<svg id="Calque_1" data-name="Calque 1" xmlns="http://www.w3.org/2000/svg" viewBox="0 0 50 50"><defs><style>.cls-1{fill:#305260;}</style></defs><title>Sans titre - 1</title><g id="Groupe_1121" data-name="Groupe 1121"><path id="Tracé_2582" data-name="Tracé 2582" class="cls-1" d="M33.27,13.55,13,16a4.53,4.53,0,0,0-3.93,5L10.43,32.3a4.53,4.53,0,0,0,5,3.93l20.26-2.49a4.53,4.53,0,0,0,4-5L38.31,17.48A4.53,4.53,0,0,0,33.27,13.55ZM13.11,17.08,33.4,14.59a3.48,3.48,0,0,1,3.84,2.81L10.07,20.74A3.48,3.48,0,0,1,13.11,17.08ZM35.62,32.69l-20.29,2.5a3.47,3.47,0,0,1-3.86-3L10.36,23.1l27.17-3.34,1.11,9.07A3.47,3.47,0,0,1,35.62,32.69Z"/><path id="Tracé_2584" data-name="Tracé 2584" class="cls-1" d="M14.13,33.15,24,31.94l-.59-4.76-9.86,1.21Zm.59-3.81,7.75-.95L22.79,31,15.05,32Z"/></g></svg>