<?xml version="1.0" encoding="utf-8"?>
<!-- Generator: Adobe Illustrator 23.0.3, SVG Export Plug-In . SVG Version: 6.00 Build 0)  -->
<svg version="1.1" id="Calque_1" xmlns="http://www.w3.org/2000/svg" xmlns:xlink="http://www.w3.org/1999/xlink" x="0px" y="0px"
	 viewBox="0 0 50 50" style="enable-background:new 0 0 50 50;" xml:space="preserve">
<style type="text/css">
	.st0{fill:#65C1AC;}
	.st1{fill:#FFFFFF;}
	.st2{fill:none;stroke:#FFFFFF;}
	.st3{fill:#164152;}
	.st4{fill:none;stroke:#164152;stroke-width:2;}
	.st5{fill:#F17889;}
	.st6{fill:none;stroke:#164152;stroke-width:2;stroke-linecap:round;stroke-linejoin:round;}
	.st7{fill:#64B7D3;}
	.st8{fill:none;stroke:#64B7D3;stroke-miterlimit:10;}
	.st9{fill:#64B7D3;stroke:#FFFFFF;stroke-width:0.5;}
	.st10{fill-rule:evenodd;clip-rule:evenodd;fill:#164152;}
</style>
<path id="Tracé_5455" class="st7" d="M23.4,7c-1.2,0-2.2,0.6-2.8,1.6c-0.3-0.2-0.7-0.3-1.1-0.3h-0.3c-1.4,0-2.8,0.7-3.6,1.8
	c-0.8,1.1-1.1,2.5-0.8,3.9l1.2,4.7h-0.4c-1.1,0-1.9,0.9-1.9,1.9v1.3c0,1.1,0.9,1.9,1.9,1.9h0.7c0.3,2.5,1.7,4.7,3.8,6.2v2.9
	c0,0.1,0,0.1,0,0.2l-6.7,2.3c-2.6,0.8-4.5,3-4.8,5.7c-0.1,0.3-0.1,0.7-0.1,1v-0.6c0,0.3,0.2,0.6,0.6,0.6c0,0,0,0,0.1,0h32.3
	c0.3,0,0.6-0.2,0.6-0.6c0,0,0,0,0-0.1V42c0-0.3,0-0.6-0.1-1c-0.3-2.7-2.2-5-4.8-5.8L30.5,33c0-0.1,0-0.1,0-0.2V30
	c0.9-0.6,1.7-1.4,2.3-2.3c2.3-0.2,4.1-2.1,4.2-4.5v-2.6c0-1.1-0.9-1.9-1.9-1.9h-0.5l1-4.5c0.3-1.7-0.1-3.5-1.2-4.9
	C33.3,7.8,31.6,7,29.8,7H23.4z M23.4,8.3h6.5c1.4,0,2.7,0.7,3.5,1.8c0.9,1,1.2,2.4,0.9,3.8l-1.1,4.8h-0.1c-0.3,0-0.6-0.2-0.6-0.6
	c0,0,0,0,0-0.1v-2.6c0-1.1-0.9-1.9-1.9-1.9H20.1c-1.1,0-1.9,0.9-1.9,1.9V18c0,0.3-0.2,0.6-0.6,0.6c0,0,0,0-0.1,0h-0.1l-1.3-5
	c-0.3-0.9-0.1-2,0.5-2.7c0.6-0.8,1.6-1.3,2.6-1.3h0.3c0.3,0,0.6,0.2,0.6,0.6c0,0,0,0,0,0.1c0,0.3,0.1,0.5,0.4,0.6c0.1,0,0.2,0,0.3,0
	c0.3,0,0.6-0.2,0.6-0.6c0,0,0,0,0-0.1C21.5,9.2,22.3,8.3,23.4,8.3z M20.1,14.8h10.3c0.3,0,0.6,0.2,0.6,0.6c0,0,0,0,0,0.1V18
	c0,1.1,0.9,1.9,1.9,1.9v2.6c0,1.4-0.4,2.7-1.1,3.9h-3c-0.3-0.8-1-1.3-1.8-1.3H26c-1.1,0-1.9,0.9-1.9,2c0,1,0.9,1.9,1.9,1.9h1.3
	c0.8,0,1.5-0.5,1.8-1.3h2c-2.8,3.2-7.7,3.5-10.9,0.6c-1.6-1.5-2.6-3.6-2.6-5.8v-2.6c1.1,0,1.9-0.9,1.9-1.9v-2.6
	C19.5,15.1,19.7,14.8,20.1,14.8C20.1,14.8,20.1,14.8,20.1,14.8z M15.6,19.9h0.6v2.6h-0.6c-0.3,0-0.6-0.2-0.6-0.6c0,0,0,0,0-0.1v-1.3
	C14.9,20.2,15.2,20,15.6,19.9C15.6,19.9,15.6,19.9,15.6,19.9z M34.4,19.9H35c0.3,0,0.6,0.2,0.6,0.6c0,0,0,0,0,0.1v1.9h-1.3
	L34.4,19.9z M34.3,23.8h1.3c-0.2,1.1-1,2-2,2.4C33.9,25.4,34.1,24.6,34.3,23.8L34.3,23.8z M26,26.4h1.3c0.4,0,0.6,0.3,0.6,0.7
	c0,0.3-0.3,0.6-0.6,0.6H26c-0.4,0-0.6-0.3-0.6-0.7C25.3,26.7,25.6,26.4,26,26.4L26,26.4z M21.4,30.7c2.5,1.2,5.3,1.2,7.8,0v2.2
	c0,0.3,0,0.5-0.1,0.8c-0.4,1.7-2,3-3.8,3c-1.4,0-2.6-0.7-3.4-1.8c-0.1-0.1-0.1-0.2-0.2-0.3c0,0,0-0.1-0.1-0.1
	c-0.2-0.5-0.3-1-0.3-1.5V30.7z"/>
</svg>
