<?xml version="1.0" encoding="utf-8"?>
<!-- Generator: Adobe Illustrator 23.0.3, SVG Export Plug-In . SVG Version: 6.00 Build 0)  -->
<svg version="1.1" id="Calque_1" xmlns="http://www.w3.org/2000/svg" xmlns:xlink="http://www.w3.org/1999/xlink" x="0px" y="0px"
	 viewBox="0 0 50 50" style="enable-background:new 0 0 50 50;" xml:space="preserve">
<style type="text/css">
	.st0{fill:#65C1AC;}
	.st1{fill:#FFFFFF;}
	.st2{fill:none;stroke:#FFFFFF;}
	.st3{fill:#164152;}
	.st4{fill:none;stroke:#164152;stroke-width:2;}
	.st5{fill:#F17889;}
	.st6{fill:none;stroke:#164152;stroke-width:2;stroke-linecap:round;stroke-linejoin:round;}
	.st7{fill:#64B7D3;}
	.st8{fill:none;stroke:#64B7D3;stroke-miterlimit:10;}
	.st9{fill:#64B7D3;stroke:#FFFFFF;stroke-width:0.5;}
	.st10{fill-rule:evenodd;clip-rule:evenodd;fill:#164152;}
</style>
<path id="Tracé_5456" class="st7" d="M42,16.7c0-1-0.8-1.8-1.8-1.8h-9.4v-2.5c0-1.4-1.1-2.4-2.5-2.5h-6.2c-1.4,0-2.4,1.1-2.5,2.5
	v2.5h-9.4c-1,0-1.8,0.8-1.8,1.8l0,8.6c0,0.3,0.1,0.5,0.4,0.6c0.4,0.2,0.8,0.4,1.2,0.5v11.7c0,1,0.8,1.8,1.8,1.8h26.8
	c1,0,1.8-0.8,1.8-1.8V26.2c0.4-0.2,0.8-0.4,1.2-0.6c0.2-0.1,0.4-0.4,0.4-0.6L42,16.7z M21.1,12.5c0-0.6,0.5-1.1,1.1-1.1h6.2
	c0.6,0,1.1,0.5,1.1,1.1v2.5h-8.4V12.5z M39.1,38.1c0,0.2-0.2,0.4-0.4,0.4H11.8c-0.2,0-0.4-0.2-0.4-0.4V26.9c3.4,1.2,7,1.9,10.6,2.1
	v1c0,0.7,0.6,1.3,1.3,1.3h3.9c0.7,0,1.3-0.6,1.3-1.3v-1c3.6-0.2,7.2-0.9,10.6-2.2L39.1,38.1z M28.5,27.6v-0.2c0-0.7-0.6-1.3-1.3-1.3
	h-3.9c-0.7,0-1.3,0.6-1.3,1.3v0.2c-4.2-0.2-8.3-1.1-12.2-2.8l0-8.1c0-0.2,0.2-0.4,0.4-0.4h30c0.2,0,0.4,0.2,0.4,0.4l0,7.9
	C36.8,26.4,32.7,27.5,28.5,27.6z"/>
</svg>
