<?xml version="1.0" encoding="utf-8"?>
<!-- Generator: Adobe Illustrator 23.0.3, SVG Export Plug-In . SVG Version: 6.00 Build 0)  -->
<svg version="1.1" id="Calque_1" xmlns="http://www.w3.org/2000/svg" xmlns:xlink="http://www.w3.org/1999/xlink" x="0px" y="0px"
	 viewBox="0 0 50 50" style="enable-background:new 0 0 50 50;" xml:space="preserve">
<style type="text/css">
	.st0{fill:#65C1AC;}
	.st1{fill:#FFFFFF;}
	.st2{fill:none;stroke:#FFFFFF;}
	.st3{fill:#164152;}
	.st4{fill:none;stroke:#164152;stroke-width:2;}
	.st5{fill:#F17889;}
	.st6{fill:none;stroke:#164152;stroke-width:2;stroke-linecap:round;stroke-linejoin:round;}
	.st7{fill:#64B7D3;}
	.st8{fill:none;stroke:#64B7D3;stroke-miterlimit:10;}
	.st9{fill:#64B7D3;stroke:#FFFFFF;stroke-width:0.5;}
	.st10{fill-rule:evenodd;clip-rule:evenodd;fill:#164152;}
</style>
<g id="Groupe_3009" transform="translate(-5.15 -16.249)">
	<path id="Tracé_5457" class="st9" d="M40.7,31c-1.4,0-2.7,0.9-3.2,2.3l-18.3,5.3c-0.2-0.3-0.5-0.5-0.9-0.5h-4c-0.6,0-1,0.5-1,1
		c0,0,0,0,0,0v6.7c0,0.6,0.5,1,1,1h4c0.3,0,0.6-0.1,0.8-0.3l2.7,0.8V53c0,0.6,0.5,1,1,1c0,0,0,0,0,0h10.7c0.6,0,1-0.5,1-1l0,0v-2.2
		l3,0.8c0.6,1.7,2.5,2.7,4.2,2.1c1.4-0.5,2.3-1.8,2.3-3.2V34.3C44.1,32.5,42.6,31,40.7,31L40.7,31z M19.4,40.7l18-5.2v13.9l-18-5.1
		L19.4,40.7z M17.3,44.8h-1.9v-4.6h1.9L17.3,44.8z M32.6,52h-8.6v-4.2l8.6,2.4V52z M42,50.5c0,0.7-0.6,1.3-1.3,1.3
		c-0.7,0-1.3-0.6-1.3-1.3c0,0,0,0,0,0V34.3c0-0.7,0.6-1.3,1.3-1.3c0.7,0,1.3,0.6,1.3,1.3c0,0,0,0,0,0l0,0V50.5z"/>
</g>
</svg>
