<?xml version="1.0" encoding="utf-8"?>
<!-- Generator: Adobe Illustrator 23.0.4, SVG Export Plug-In . SVG Version: 6.00 Build 0)  -->
<svg version="1.1" id="Calque_1" xmlns="http://www.w3.org/2000/svg" xmlns:xlink="http://www.w3.org/1999/xlink" x="0px" y="0px"
	 viewBox="0 0 66.9 66.9" style="enable-background:new 0 0 66.9 66.9;" xml:space="preserve">
<style type="text/css">
	.st0{fill:#164152;}
</style>
<title>Crustaces</title>
<g>
	<g id="picto">
		<path class="st0" d="M40,33.1v-1.7l5.8-1.9c0.2-0.1,0.4-0.2,0.5-0.5l2.2-5.5C51,23.2,53,20,53,15.9c0-4.3-2.2-7.7-5-7.7
			c-0.5,0-1,0.1-1.4,0.3c-0.3,0.1-0.4,0.4-0.5,0.7c0,0.3,0.1,0.6,0.4,0.7c0.9,0.8,1.3,1.9,1.3,3c0,1.8-0.8,3.2-1.5,3.2
			c-0.3,0-0.6-0.5-1.1-1.3c-0.2-0.3-0.3-0.6-0.5-0.9c-0.2-0.3-0.5-0.4-0.8-0.4c-0.3,0.1-0.6,0.3-0.6,0.6c-0.1,0.6-0.2,1.3-0.2,1.9
			c0,3.7,1.6,6.7,3.8,7.5L45,28.1l-4.9,1.6l0.1-4.2l0,0c0-2.6-1.6-4.9-4-5.9c0.3-1.4,0.8-4.5,1-5.8c0-1.5,1.2-2.7,2.7-2.8
			c0.4,0,0.8-0.3,0.8-0.8c0-0.4-0.3-0.8-0.8-0.8c0,0,0,0,0,0c-2.3,0-4.2,1.9-4.3,4.3c-0.1,1.2-0.7,4.1-0.9,5.5
			c-0.3,0-0.6-0.1-0.8-0.1c-0.3,0-0.7,0-1,0.1c-0.2-1.5-0.8-4.6-0.9-5.8c-0.1-2.3-2-4.2-4.3-4.3c-0.4,0-0.8,0.3-0.8,0.8c0,0,0,0,0,0
			c0,0.4,0.3,0.8,0.8,0.8l0,0c1.5,0,2.7,1.3,2.8,2.8c0.1,1.4,0.7,4.7,0.9,6.1c-2.3,1-3.8,3.3-3.8,5.8l0,0l0.1,4.2l-4.9-1.6l-1.9-4.7
			c2.2-0.8,3.8-3.8,3.8-7.5c0-0.6,0-1.2-0.1-1.8c-0.1-0.4-0.5-0.7-0.9-0.6c-0.2,0-0.4,0.2-0.5,0.4c-0.2,0.3-0.4,0.6-0.5,0.9
			c-0.5,0.9-0.8,1.3-1.1,1.3c-0.7,0-1.5-1.3-1.5-3.2c0-1.1,0.4-2.2,1.3-3c0.2-0.1,0.4-0.4,0.4-0.7c0-0.3-0.2-0.5-0.5-0.7
			c-0.4-0.2-0.9-0.3-1.4-0.3c-2.8,0-5,3.4-5,7.7c0,4.1,2,7.3,4.5,7.7l2.1,5.5c0.1,0.2,0.3,0.4,0.5,0.5l5.8,1.9l0,1.7
			c0,0.6,0.4,1.2,0.9,1.5l0.3,2.3l0,0v0.4h-3.4l-4.4-3.5c-0.3-0.3-0.8-0.2-1.1,0.1c-0.3,0.3-0.2,0.8,0.1,1.1c0,0,0,0,0,0l4.6,3.7
			c0.1,0.1,0.3,0.2,0.5,0.2h3.8l0.1,1.5l0,0l0.4,3.5l0,0l0,0.5h-4.2l-4.7-4.2c-0.4-0.2-0.9-0.1-1.1,0.3c-0.2,0.3-0.1,0.6,0.1,0.9
			l5,4.4c0.1,0.1,0.3,0.2,0.5,0.2h4.6l0.1,1.5l0,0l0.4,4c-1,0.8-4.3,3.4-5.5,4.3c-0.2,0.2-0.4,0.4-0.3,0.7c0,0.3,0.2,0.5,0.4,0.7
			c5.6,2.9,12.3,2.9,17.8,0c0.2-0.1,0.4-0.4,0.4-0.7c0-0.3-0.1-0.5-0.3-0.7c-1.2-0.8-4.5-3.4-5.5-4.3l0.4-4l0,0l0.2-1.5h4.7
			c0.2,0,0.4-0.1,0.5-0.2l5-4.4c0.3-0.3,0.4-0.8,0.1-1.1c0,0,0,0,0,0c-0.3-0.3-0.7-0.4-1.1-0.1c0,0,0,0-0.1,0.1l-4.8,4.2H38l0-0.5
			l0,0l0.3-3.5l0,0l0.2-1.5h3.8c0.2,0,0.3-0.1,0.5-0.2l4.6-3.7c0.3-0.3,0.4-0.8,0.1-1.1s-0.8-0.4-1.1-0.1l-4.4,3.5h-3.4l0.3-2.7
			C39.6,34.4,40,33.8,40,33.1z M44.6,16.8c0.4,0.5,1,0.8,1.6,0.8c1.7,0,3.1-2.1,3.1-4.7c0-1.1-0.3-2.2-0.8-3.1
			c1.6,0.5,2.9,3.1,2.9,6.1c0,3.4-1.6,6.2-3.4,6.2C46.3,22.1,44.9,19.7,44.6,16.8L44.6,16.8z M16.4,15.9c0-3,1.3-5.6,2.9-6.1
			c-0.5,0.9-0.8,2-0.8,3.1c0,2.6,1.4,4.7,3.1,4.7c0.6,0,1.3-0.3,1.6-0.8c-0.2,3-1.7,5.3-3.4,5.3C17.9,22.1,16.3,19.2,16.4,15.9
			L16.4,15.9z M36.6,43h-5.5l-0.2-2h5.9L36.6,43z M36.4,45.1l-0.2,1.5h-4.8l-0.1-1.4c0,0,0,0,0-0.1c0-0.1,0-0.2,0-0.2v-0.3h5.2v0.4
			c0,0.1,0,0.1,0,0.2L36.4,45.1z M31.9,51l-0.3-2.9h4.5L35.8,51H31.9z M37.1,38L37.1,38L37,39.5h-6.2l-0.2-1.8h4.2
			c0.4,0,0.8-0.3,0.8-0.8c0-0.4-0.3-0.8-0.8-0.8h-4.4l-0.1-1.3h7.2L37.1,38z M36.4,22c0.5,0,0.9,0.4,0.9,0.9c0,0.5-0.4,0.9-0.9,0.9
			s-0.9-0.4-0.9-0.9l0,0C35.5,22.4,35.9,22,36.4,22z M35,20.9c-1.1,0.8-1.4,2.3-0.6,3.4c0.8,1.1,2.3,1.4,3.4,0.6
			c0.3-0.2,0.5-0.4,0.7-0.7c0.1,0.4,0.2,0.9,0.2,1.3l-0.2,7.6c0,0.1-0.1,0.3-0.3,0.2h-8.6c-0.1,0-0.3-0.1-0.3-0.2l-0.1-2.2v-0.1
			l-0.1-5.3c0-0.4,0.1-0.8,0.1-1.2c0.8,1.1,2.3,1.4,3.4,0.6c1.1-0.8,1.4-2.3,0.6-3.4c-0.2-0.2-0.4-0.4-0.6-0.6
			c0.4-0.1,0.8-0.2,1.2-0.2C34.2,20.7,34.6,20.8,35,20.9z M32,22.9c0,0.5-0.4,0.9-0.9,0.9s-0.9-0.4-0.9-0.9c0-0.5,0.4-0.9,0.9-0.9
			C31.7,22,32.1,22.3,32,22.9C32.1,22.8,32.1,22.8,32,22.9L32,22.9z M37,57.4l-0.7-2.3c-0.1-0.4-0.6-0.7-1-0.5
			c-0.4,0.1-0.6,0.5-0.5,1c0,0,0,0,0,0l0.6,2.1c-1.1,0.1-2.2,0.1-3.3,0l0.6-2.1c0.1-0.4-0.2-0.8-0.6-0.9c-0.4-0.1-0.8,0.1-0.9,0.5
			l-0.7,2.3c-1.3-0.2-2.6-0.6-3.9-1.2c1.6-1.2,4-3.1,4.7-3.7h4.8c0.7,0.6,3.1,2.4,4.7,3.7C39.7,56.8,38.4,57.1,37,57.4L37,57.4z"/>
	</g>
</g>
</svg>
