<?xml version="1.0" encoding="utf-8"?>
<!-- Generator: Adobe Illustrator 23.0.4, SVG Export Plug-In . SVG Version: 6.00 Build 0)  -->
<svg version="1.1" id="Calque_1" xmlns="http://www.w3.org/2000/svg" xmlns:xlink="http://www.w3.org/1999/xlink" x="0px" y="0px"
	 viewBox="0 0 66.9 66.9" style="enable-background:new 0 0 66.9 66.9;" xml:space="preserve">
<style type="text/css">
	.st0{fill:#164152;}
</style>
<title>Farine-de-seigle</title>
<g>
	<g id="picto">
		<path class="st0" d="M32.6,26.8C26.1,27,21,32.5,21.2,39c0.2,6.3,5.2,11.3,11.5,11.5c3,0,6-1.2,8.2-3.3c0.3-0.3,0.3-0.8,0-1.2
			c-0.3-0.3-0.8-0.3-1.2,0l0,0c-1.9,1.8-4.4,2.8-7,2.8c-5.6,0-10.2-4.5-10.3-10.1s4.5-10.2,10.1-10.3S42.7,33,42.8,38.6
			c0,0,0,0,0,0.1c0,1.7-0.4,3.5-1.3,5c-0.2,0.4-0.1,0.9,0.3,1.1c0,0,0,0,0,0c0.4,0.2,0.9,0.1,1.1-0.3c3.2-5.7,1.2-12.9-4.5-16.1
			C36.6,27.4,34.7,26.8,32.6,26.8z"/>
		<path class="st0" d="M30.4,13.4c-0.3-0.3-0.8-0.3-1.1,0s-0.3,0.8,0,1.1l0,0c0.3,0.3,0.8,0.3,1.1,0c0.2-0.2,0.2-0.4,0.2-0.6
			C30.6,13.8,30.5,13.6,30.4,13.4z"/>
		<path class="st0" d="M33.2,15.6c-0.3-0.3-0.8-0.3-1.2,0c-0.1,0.1-0.2,0.3-0.2,0.6c0,0.2,0.1,0.4,0.2,0.6c0.3,0.3,0.8,0.3,1.2,0
			C33.5,16.4,33.5,15.9,33.2,15.6C33.2,15.6,33.2,15.6,33.2,15.6z"/>
		<path class="st0" d="M36.1,13.4c-0.2-0.2-0.4-0.2-0.6-0.2c-0.4,0-0.8,0.4-0.8,0.8c0,0.2,0.1,0.4,0.2,0.6c0.2,0.1,0.4,0.2,0.6,0.2
			c0.2,0,0.4-0.1,0.6-0.2C36.4,14.2,36.4,13.7,36.1,13.4z"/>
		<path class="st0" d="M39,15.6c-0.3-0.3-0.8-0.3-1.1,0c-0.3,0.3-0.3,0.8,0,1.1c0,0,0,0,0,0c0.3,0.3,0.8,0.3,1.1,0
			C39.3,16.4,39.3,15.9,39,15.6C39,15.6,39,15.6,39,15.6z"/>
		<path class="st0" d="M27.5,15.6c-0.3-0.3-0.8-0.3-1.1,0c-0.3,0.3-0.3,0.8,0,1.1c0.1,0.1,0.3,0.2,0.5,0.2c0.2,0,0.4-0.1,0.6-0.2
			C27.8,16.5,27.8,15.9,27.5,15.6C27.5,15.6,27.5,15.6,27.5,15.6L27.5,15.6z"/>
		<path class="st0" d="M47.4,50.9c-0.3-0.3-0.8-0.3-1.2,0c-0.3,0.3-0.3,0.8,0,1.2c0.3,0.3,0.8,0.3,1.2,0
			C47.7,51.7,47.7,51.2,47.4,50.9C47.4,50.9,47.4,50.9,47.4,50.9z"/>
		<path class="st0" d="M50.4,52.2c-0.3-0.3-0.8-0.3-1.1,0c-0.3,0.3-0.3,0.8,0,1.1c0.3,0.3,0.8,0.3,1.1,0c0.2-0.2,0.2-0.4,0.2-0.6
			C50.6,52.6,50.6,52.4,50.4,52.2z"/>
		<path class="st0" d="M44.6,52.2c-0.3-0.3-0.8-0.3-1.2,0c-0.3,0.3-0.3,0.8,0,1.2c0.3,0.3,0.8,0.3,1.2,0c0,0,0,0,0,0
			C44.9,53,44.9,52.5,44.6,52.2z"/>
		<path class="st0" d="M56.7,55L56.7,55L56.7,55l-5.8-5.5c-0.1-0.1-0.3-0.3-0.4-0.4c-0.4-0.4-0.9-0.7-1.5-0.8h-0.1v-7.7
			c0-0.4-0.4-0.8-0.8-0.8c-0.4,0-0.8,0.4-0.8,0.8v7.3h-0.3c-1.5,0-2.9,0.6-3.9,1.6l-5.2,5.2H18c-1.3,0-2.4-1.1-2.4-2.4
			c0-1,0.7-2,1.7-2.3h2c0.5,0,0.9-0.3,0.9-0.7s-0.3-0.9-0.7-0.9c-0.1,0-0.1,0-0.2,0H18V23.7h29.3v0.7h-1.1c-0.4,0-0.8,0.4-0.8,0.8
			c0,0.4,0.4,0.8,0.8,0.8l0,0h1.1v1.2h-1.1c-0.4,0-0.8,0.4-0.8,0.8c0,0.4,0.4,0.8,0.8,0.8l0,0h1.1V30h-1.1c-0.4,0-0.8,0.4-0.8,0.8
			c0,0.4,0.4,0.8,0.8,0.8l0,0h1.1v1.2h-1.1c-0.4,0-0.8,0.4-0.8,0.8c0,0.4,0.4,0.8,0.8,0.8h1.1v2.7c0,0.4,0.4,0.8,0.8,0.8
			c0.4,0,0.8-0.4,0.8-0.8V23.7h0.8c0.7,0,1.3-0.6,1.3-1.4v-3.6c0-0.7-0.6-1.4-1.3-1.4h-3.2c-0.3-0.3-0.6-0.5-0.9-0.7l-2.8-2
			c-0.3-0.3-0.9-0.2-1.1,0.1c-0.3,0.3-0.2,0.9,0.1,1.1c0,0,0,0,0.1,0l2,1.5H21.5l7.1-5.1c2.5-1.6,5.7-1.6,8.2,0l2.4,1.7
			c0.4,0.3,0.9,0.2,1.1-0.2c0.3-0.4,0.2-0.9-0.2-1.1c0,0,0,0,0,0L37.7,11c-3.1-2-7-2-10.1,0l-7.9,5.7c-0.3,0.2-0.6,0.5-0.9,0.7h-3.2
			c-0.7,0-1.3,0.6-1.4,1.3c0,0,0,0,0,0v3.6c0,0.7,0.6,1.4,1.3,1.4c0,0,0,0,0,0h0.8v25.1c-2,0.9-2.9,3.3-2,5.3c0.6,1.4,2,2.3,3.6,2.4
			h38.1c0.2,0,0.4-0.1,0.6-0.2c0.2-0.2,0.2-0.4,0.2-0.6C56.9,55.4,56.8,55.2,56.7,55z M15.9,22v-0.7h8.5c0.4,0,0.8-0.4,0.8-0.8
			c0-0.4-0.4-0.8-0.8-0.8h-8.5V19h33.5v0.7h-7.7c-0.4,0-0.8,0.4-0.8,0.8c0,0.4,0.4,0.8,0.8,0.8h7.7V22H15.9z M40.1,54.8l4.1-4.1
			c1.6-1.5,4-1.5,5.6,0l4.3,4.1H40.1z"/>
		<path class="st0" d="M35,37l0.5-0.8c0.4-0.6,0.2-1.4-0.3-1.9v-2.6c0-0.2-0.2-0.4-0.4-0.4c-0.2,0-0.4,0.2-0.4,0.4v2.2
			c-0.2,0-0.3,0-0.5,0c-0.2,0-0.4,0.1-0.5,0.2v-3.7c0-0.2-0.2-0.4-0.4-0.4c-0.2,0-0.4,0.2-0.4,0.4v3.7c-0.3-0.2-0.6-0.3-1-0.3v-2.2
			c0-0.2-0.2-0.4-0.4-0.4c0,0,0,0,0,0c-0.2,0-0.4,0.2-0.4,0.4c0,0,0,0,0,0v2.6c-0.6,0.5-0.7,1.3-0.3,1.9l0.5,0.8
			c-0.6,0.4-0.8,1.3-0.5,2l0.5,0.8c-0.3,0.2-0.5,0.5-0.6,0.9c-0.1,0.4,0,0.8,0.2,1.2l1.4,2.3c0.1,0.2,0.3,0.4,0.6,0.6
			c0.1,0.1,0.2,0.1,0.3,0.1v2.3c0,0.2,0.2,0.4,0.4,0.4s0.4-0.2,0.4-0.4v-2.3c0.4-0.1,0.7-0.4,0.9-0.7l1.3-2.3
			c0.2-0.4,0.3-0.8,0.2-1.2c-0.1-0.4-0.3-0.7-0.6-0.9l0.5-0.8C35.9,38.3,35.7,37.4,35,37z M33.6,35.1c0.1-0.1,0.2-0.3,0.4-0.3
			c0.2,0,0.3,0,0.5,0.1c0.3,0.2,0.4,0.6,0.2,0.9c0,0,0,0,0,0l-0.6,1c-0.1,0-0.3,0-0.4,0c-0.4,0.1-0.7,0.4-0.9,0.7l0,0l0,0
			c-0.1-0.2-0.2-0.3-0.3-0.4L33.6,35.1z M31.1,34.8c0.3-0.2,0.7-0.1,0.9,0.2c0,0,0,0,0,0l0.3,0.5l-0.7,1.2h-0.1l-0.6-1
			C30.7,35.4,30.8,35,31.1,34.8C31.1,34.8,31.1,34.8,31.1,34.8L31.1,34.8z M32.3,38.4l-0.7,1.2h-0.1l-0.6-1c-0.2-0.3,0-0.7,0.3-0.9
			c0.3-0.1,0.6-0.1,0.8,0.2L32.3,38.4z M31.6,42.6l-0.7-1.1c-0.1-0.1-0.1-0.3-0.1-0.5c0-0.2,0.2-0.3,0.3-0.4
			c0.2-0.1,0.3-0.1,0.5-0.1c0.2,0,0.3,0.2,0.4,0.3l0.3,0.5L31.6,42.6z M34.7,41.5l-1.3,2.3C33.3,43.9,33.2,44,33,44
			c-0.1,0-0.1,0-0.2,0l0,0c-0.1,0-0.2,0-0.3-0.1c-0.1-0.1-0.2-0.1-0.2-0.2l0,0c0-0.1-0.1-0.1-0.1-0.2c0-0.2,0-0.3,0.1-0.5l1.3-2.3
			c0.1-0.1,0.2-0.3,0.4-0.3h0.2c0.1,0,0.2,0,0.3,0.1c0.2,0.1,0.3,0.2,0.3,0.4C34.8,41.1,34.8,41.3,34.7,41.5L34.7,41.5z M34.7,38.6
			l-0.6,1c-0.1,0-0.3,0-0.4,0c-0.4,0.1-0.7,0.4-0.9,0.7l0,0l0,0c-0.1-0.2-0.2-0.3-0.3-0.4l1.2-2c0.1-0.2,0.2-0.3,0.4-0.3
			c0.2-0.1,0.3,0,0.5,0.1C34.8,37.8,34.9,38.2,34.7,38.6C34.7,38.6,34.7,38.6,34.7,38.6L34.7,38.6z"/>
	</g>
</g>
</svg>
