<?xml version="1.0" encoding="utf-8"?>
<!-- Generator: Adobe Illustrator 23.0.4, SVG Export Plug-In . SVG Version: 6.00 Build 0)  -->
<svg version="1.1" id="Calque_1" xmlns="http://www.w3.org/2000/svg" xmlns:xlink="http://www.w3.org/1999/xlink" x="0px" y="0px"
	 viewBox="0 0 66.9 66.9" style="enable-background:new 0 0 66.9 66.9;" xml:space="preserve">
<style type="text/css">
	.st0{fill:#164152;}
</style>
<title>Gluten</title>
<g>
	<g id="picto">
		<path class="st0" d="M53.2,34.7c0-0.9,0-1.6,0-1.9c0-2.8-0.7-18.8-0.8-20.6c0-1.3-0.1-2.4-0.9-3.1c-0.8-0.6-1.7-0.8-2.7-0.6
			c-2.1,0.1-5.9,0.6-9.2,1.1L36.4,10l0,0c-1.3,0.2-2.4,0.3-2.7,0.3h-0.4c-0.6,0-3.2-0.3-5.9-0.7c-3.3-0.4-7.1-0.9-9.2-1.1
			c-0.9-0.2-1.9,0-2.7,0.6c-0.6,0.7-1,1.7-0.9,2.7c0,0.7-0.8,18.1-0.8,21c0,0.3,0,1,0,1.9c-0.1,4.7-0.3,14.4,0.4,18.7
			c0.4,2.6,1.4,3.6,3.6,3.6c0.2,0,0.4,0,0.6,0c1.7-0.1,4.2-0.4,6.8-0.8l0,0l2.1-0.3c2.7-0.3,5.3-0.7,5.9-0.7h0.4
			c0.6,0,3.2,0.3,5.9,0.7c3.1,0.4,6.7,0.9,8.9,1c2.8,0.2,4-0.8,4.4-3.6C53.4,49.2,53.2,39.4,53.2,34.7z M51.2,53.2
			c-0.3,2-0.7,2.3-2.7,2.2c-2.1-0.2-5.7-0.6-8.8-1c-3.3-0.4-5.4-0.7-6.1-0.7h-0.4c-0.2,0-0.4,0-0.7,0c0.6-0.2,1.2-0.5,1.7-0.7
			c0.7-0.4,1.5-0.7,2.3-0.9c0.4,0,0.8-0.4,0.8-0.8c0-0.5-0.4-0.8-0.8-0.8c-1,0.2-2.1,0.5-3,1c-2.8,1.3-5.7,2.3-8.7,3.2
			c-2.5,0.3-5.1,0.6-6.7,0.7s-2.2-0.3-2.5-2.2C15.1,49,15.2,39,15.3,34.7c0-0.9,0-1.6,0-2c0-2.9,0.8-20.2,0.8-21
			c0-0.5,0.1-1.3,0.3-1.5c0.3-0.2,0.7-0.2,1-0.2H18c2.1,0.1,5.8,0.6,9.1,1l4,0.5c-1.5,0.6-2.7,1.1-3.8,1.6c-0.7,0.3-1.5,0.6-2.2,0.9
			c-0.5,0-0.8,0.4-0.8,0.8c0,0.5,0.4,0.8,0.8,0.8c1-0.2,2-0.5,2.9-1c2.8-1.3,5.7-2.4,8.6-3.2l3.1-0.4c3.3-0.4,7.1-0.9,9.1-1
			c1-0.1,1.3,0.1,1.5,0.2s0.3,1.1,0.3,1.9l0,0c0.3,6.6,0.8,18.3,0.8,20.5c0,0.3,0,1,0,2C51.6,39,51.8,49,51.2,53.2L51.2,53.2z"/>
		<path class="st0" d="M37.2,30l0.8-1.4c0.6-1.1,0.4-2.5-0.6-3.3v-4.5c0-0.4-0.3-0.8-0.8-0.8s-0.8,0.3-0.8,0.8v3.8
			c-0.3,0-0.6,0-0.9,0.1c-0.3,0.1-0.6,0.2-0.9,0.4v-6.3c0-0.4-0.4-0.7-0.8-0.7c-0.4,0-0.6,0.3-0.7,0.7v6.3c-0.5-0.4-1.1-0.5-1.8-0.5
			v-3.8c0-0.4-0.3-0.8-0.8-0.8s-0.8,0.3-0.8,0.8v4.4c-1,0.8-1.2,2.2-0.6,3.3l0.8,1.4c-1.1,0.8-1.5,2.3-0.8,3.5l0.8,1.4
			c-0.5,0.4-0.9,0.9-1.1,1.5c-0.2,0.7-0.1,1.4,0.3,2l2.3,3.9c0.3,0.6,0.9,1,1.5,1.2v3.9c0,0.4,0.4,0.7,0.8,0.7
			c0.4,0,0.6-0.3,0.7-0.7v-4c0.7-0.2,1.2-0.6,1.5-1.2l2.3-3.9c0.4-0.6,0.4-1.3,0.3-2c-0.2-0.6-0.5-1.1-1.1-1.5l0.8-1.4
			C38.7,32.3,38.3,30.8,37.2,30z M34.8,26.7c0.3-0.6,0.9-0.8,1.5-0.5c0.6,0.3,0.8,0.9,0.5,1.5c0,0.1-0.1,0.1-0.1,0.2l-1,1.7
			c-0.2,0-0.4,0-0.7,0.1c-0.7,0.2-1.2,0.6-1.6,1.2v0v0c-0.2-0.3-0.4-0.5-0.6-0.7L34.8,26.7z M30.6,26.3c0.5-0.3,1.2-0.1,1.5,0.4
			c0,0,0,0,0,0l0.5,0.8l-1.2,2h-0.2l-1-1.7C29.8,27.3,30,26.6,30.6,26.3C30.6,26.3,30.6,26.3,30.6,26.3z M32.6,32.4l-1.2,2h-0.2
			l-1-1.7c-0.4-0.5-0.2-1.2,0.3-1.6c0.5-0.4,1.2-0.2,1.6,0.3c0,0.1,0.1,0.1,0.1,0.2L32.6,32.4z M31.3,39.5l-1.1-1.9
			C30,37.3,30,37,30,36.8c0.1-0.3,0.3-0.5,0.5-0.7c0.5-0.3,1.2-0.1,1.5,0.4l0.5,0.8L31.3,39.5z M36.7,37.6l-2.3,3.9
			c-0.1,0.3-0.4,0.4-0.7,0.5c-0.1,0-0.2,0-0.3,0l0,0c-0.2,0-0.4-0.1-0.5-0.2c-0.2-0.1-0.3-0.2-0.4-0.4l0,0c-0.1-0.1-0.1-0.2-0.1-0.3
			c-0.1-0.3,0-0.6,0.1-0.8l2.3-3.9c0.2-0.3,0.4-0.4,0.7-0.5c0.1,0,0.2,0,0.3,0c0.2,0,0.4,0,0.5,0.1c0.3,0.1,0.4,0.4,0.5,0.7
			C36.9,37,36.8,37.3,36.7,37.6L36.7,37.6z M36.7,32.7l-1,1.7c-0.2,0-0.4,0-0.7,0.1c-0.7,0.2-1.2,0.6-1.6,1.2l0,0l0,0
			c-0.2-0.3-0.4-0.5-0.6-0.7l2-3.4c0.2-0.3,0.4-0.4,0.7-0.5c0.6-0.2,1.2,0.2,1.4,0.8C36.9,32.1,36.9,32.4,36.7,32.7L36.7,32.7z"/>
	</g>
</g>
</svg>
