<svg xmlns="http://www.w3.org/2000/svg" width="102.414" height="101.41" viewBox="0 0 102.414 101.41">
  <g id="Group_2812" data-name="Group 2812" transform="translate(1.5 1.5)">
    <path id="icon--shoping-cart" d="M29.5,80.728a9.849,9.849,0,0,0,0,19.682,9.847,9.847,0,0,0,0-19.682Zm47.5,0a9.847,9.847,0,1,0,9.5,9.841A9.664,9.664,0,0,0,77,80.728ZM30.308,64.736l.143-.59,4.275-8.02H70.114a9.41,9.41,0,0,0,8.313-5.068L99.41,11.841H21L16.533,2H1v9.841h9.5L27.6,49.188,21.188,61.243A9.876,9.876,0,0,0,29.5,75.807h57V65.966H31.5A1.228,1.228,0,0,1,30.308,64.736Z" transform="translate(-1 -2)" fill="none" stroke="#65c1ac" stroke-width="3"/>
  </g>
</svg>
