<svg xmlns="http://www.w3.org/2000/svg" width="17" height="17" viewBox="0 0 17 17">
  <g id="pic-location" transform="translate(-3531 -4950)">
    <rect id="Rectangle_2206" data-name="Rectangle 2206" width="17" height="17" transform="translate(3531 4950)" fill="none"/>
    <path id="Path_2549" data-name="Path 2549" d="M6.989,10.065A2.961,2.961,0,0,0,9.955,7.1,3.052,3.052,0,0,0,6.989,4.028,2.961,2.961,0,0,0,4.023,6.994,3.126,3.126,0,0,0,6.989,10.065ZM2.011,2.015a7.04,7.04,0,0,1,9.956,9.956L6.989,16.95,2.011,11.972A7.232,7.232,0,0,1,2.011,2.015Z" transform="translate(3532.038 4950.05)" fill="#65c1ac" fill-rule="evenodd"/>
  </g>
</svg>
