<svg xmlns="http://www.w3.org/2000/svg" width="57.784" height="57.785" viewBox="0 0 57.784 57.785">
  <g id="Groupe_2666" data-name="Groupe 2666" transform="translate(0)">
    <path id="Tracé_4326" data-name="Tracé 4326" d="M102.149,1.062c2.937,0,5.764,1.461,8.9,4.594,2.825,2.824,4.27,5.364,4.546,7.992.345,3.27-1.142,6.515-4.546,9.92a38.647,38.647,0,0,1-7.789,5.84l13.154,13.153A28.884,28.884,0,0,0,75.586,1.871a1.66,1.66,0,0,1,.4.267L87.3,13.446a38.032,38.032,0,0,1,5.838-7.789C96.226,2.565,99.175,1.062,102.149,1.062Z" transform="translate(-65.742 5.306)" fill="#fff"/>
    <path id="Tracé_4327" data-name="Tracé 4327" d="M90.053,14.084a1.145,1.145,0,1,0,1.974,1.162C94.232,11.5,96.394,9,98.637,7.6a1.146,1.146,0,0,0-1.212-1.944" transform="translate(-63.656 6.879)" fill="#fff"/>
    <path id="Tracé_4328" data-name="Tracé 4328" d="M90.137,32.311,86.52,35.927a4.026,4.026,0,0,1-6.386,4.766,4.912,4.912,0,0,1-1.289-2.784,4.93,4.93,0,0,1-2.785-1.289,4.023,4.023,0,0,1,0-5.692,4.117,4.117,0,0,1,4.766-.693l3.63-3.63c-.431-3.157.614-7.2,2.438-11.153L74.81,3.367a1.649,1.649,0,0,1-.288-.433A28.891,28.891,0,0,0,115.26,43.818L101.318,29.876a24.022,24.022,0,0,1-9.65,2.546A10.859,10.859,0,0,1,90.137,32.311Z" transform="translate(-66.994 6.507)" fill="#fff"/>
  </g>
</svg>
