<svg xmlns="http://www.w3.org/2000/svg" width="57.783" height="57.784" viewBox="0 0 57.783 57.784">
  <path id="Tracé_4338" data-name="Tracé 4338" d="M-269.248-221.168a28.892,28.892,0,0,0-28.892,28.892,28.892,28.892,0,0,0,28.892,28.892,28.892,28.892,0,0,0,28.892-28.892A28.892,28.892,0,0,0-269.248-221.168Zm16.437,27.65c-1.667,1.945-4.492,2.686-7.271,2.454l-9.585,19.727a1.838,1.838,0,0,1-1.667,1.065A1.888,1.888,0,0,1-273-171.336l-14.355-29.637a1.915,1.915,0,0,1,.88-2.5,1.916,1.916,0,0,1,2.5.88l12.688,26.164,11.716-24.219a27.84,27.84,0,0,0-6.205,7.5,5.913,5.913,0,0,1-2.315-3.566c-1.2-6.668,8.2-9.077,12.5-16.949a1.253,1.253,0,0,1,2.269.232C-251.375-207.687-249.43-197.5-252.811-193.518Z" transform="translate(298.14 221.168)" fill="#fff"/>
</svg>
