<?xml version="1.0" encoding="utf-8"?>
<!-- Generator: Adobe Illustrator 23.0.4, SVG Export Plug-In . SVG Version: 6.00 Build 0)  -->
<svg version="1.1" id="Calque_1" xmlns="http://www.w3.org/2000/svg" xmlns:xlink="http://www.w3.org/1999/xlink" x="0px" y="0px"
	 viewBox="0 0 66.9 66.9" style="enable-background:new 0 0 66.9 66.9;" xml:space="preserve">
<style type="text/css">
	.st0{fill:#164152;}
</style>
<title>Lait</title>
<g>
	<g id="picto">
		<path class="st0" d="M45,24.9l-4.9-9.7v-2.2h0.3c0.4,0,0.8-0.4,0.8-0.8V8.8c0-0.4-0.3-0.8-0.8-0.8c0,0,0,0,0,0H28.7
			c-0.4,0-0.8,0.4-0.8,0.8v3.2c0,0.4,0.4,0.8,0.8,0.8H29v2.2l-4.9,9.7c-0.7,1.4-1,2.9-1.1,4.5v26.5c0,1.7,1.3,3,3,3h17.1
			c1.7,0,3-1.3,3-3V29.3C46.1,27.8,45.7,26.2,45,24.9z M29.5,9.6h10.1v1.6H29.5V9.6z M30.5,15.6c0.1-0.1,0.1-0.2,0.1-0.4v-2.4h7.9
			v2.4c0,0.1,0,0.2,0.1,0.4l3.1,6.1c-0.5,0.2-1,0.4-1.3,0.8c-0.9,0.8-2.3,0.8-3.2,0c-1.5-1.2-3.7-1.2-5.1,0c-0.9,0.8-2.3,0.8-3.2,0
			c-0.4-0.3-0.9-0.6-1.4-0.8L30.5,15.6L30.5,15.6z M44.5,55.8c0,0.7-0.6,1.3-1.3,1.3c0,0,0,0,0,0H26c-0.7,0-1.4-0.6-1.4-1.3V29.3
			c0.1-1.3,0.4-2.5,0.9-3.7l1.2-2.3c0.4,0.1,0.8,0.3,1.1,0.6c1.5,1.3,3.7,1.3,5.2,0c0.9-0.8,2.3-0.8,3.2,0c1.5,1.3,3.7,1.3,5.2,0
			c0.3-0.3,0.7-0.5,1.1-0.6l1.2,2.3c0.5,1.2,0.8,2.4,0.9,3.7L44.5,55.8L44.5,55.8z"/>
		<path class="st0" d="M27.1,50.7c-0.4,0-0.8,0.4-0.8,0.8l0,0v3.2c0,0.4,0.4,0.8,0.8,0.8c0.4,0,0.8-0.4,0.8-0.8v-3.2
			C27.9,51.1,27.5,50.7,27.1,50.7z"/>
		<path class="st0" d="M28,26c-0.4-0.2-0.9,0-1.1,0.4c-0.4,0.9-0.7,2-0.7,3v19c0,0.4,0.4,0.8,0.8,0.8c0.4,0,0.8-0.4,0.8-0.8v-19
			c0-0.8,0.2-1.6,0.5-2.4C28.6,26.6,28.4,26.2,28,26z"/>
		<path class="st0" d="M33,16.1h3.1c0.4,0,0.8-0.4,0.8-0.8c0-0.4-0.4-0.8-0.8-0.8c0,0,0,0,0,0H33c-0.4,0-0.8,0.4-0.8,0.8
			C32.2,15.8,32.6,16.1,33,16.1z"/>
	</g>
</g>
</svg>
