<svg id="Calque_1" data-name="Calque 1" xmlns="http://www.w3.org/2000/svg" viewBox="0 0 50 50"><defs><style>.cls-1{fill:#305260;}</style></defs><title>Sans titre - 1</title><g id="Groupe_1121" data-name="Groupe 1121"><path id="Tracé_2582" data-name="Tracé 2582" class="cls-1" d="M35.27,13.55,15,16a4.53,4.53,0,0,0-3.93,5L12.43,32.3a4.53,4.53,0,0,0,5,3.93l20.26-2.49a4.53,4.53,0,0,0,4-5L40.31,17.48A4.53,4.53,0,0,0,35.27,13.55ZM15.11,17.08,35.4,14.59a3.48,3.48,0,0,1,3.84,2.81L12.07,20.74A3.48,3.48,0,0,1,15.11,17.08ZM37.62,32.69l-20.29,2.5a3.47,3.47,0,0,1-3.86-3L12.36,23.1l27.17-3.34,1.11,9.07A3.47,3.47,0,0,1,37.62,32.69Z"/><path id="Tracé_2583" data-name="Tracé 2583" class="cls-1" d="M35.83,25a2.66,2.66,0,0,0-1.57.72l-.08-.06,0,0a3,3,0,1,0-1,5.6,3,3,0,0,0,1.64-.73l0,0,0,0a2.8,2.8,0,0,0,1.73.32,2.94,2.94,0,0,0,2.59-3.25v0a3,3,0,0,0-3.31-2.6Zm-1.18,3.38c0,.07,0,.15,0,.22s0,.07,0,.11,0,.1,0,.14h0a1.7,1.7,0,0,1-.27-.74,1.91,1.91,0,0,1,.08-.79h0a3.28,3.28,0,0,1,.27.74A2.31,2.31,0,0,1,34.65,28.33Zm-3.78.19a1.88,1.88,0,0,1,2.65-1.95,1.33,1.33,0,0,0-.13.33s0,.08,0,.11l-.07.26c0,.07,0,.14,0,.21s0,.18,0,.26a.23.23,0,0,1,0,.14c0,.14,0,.25,0,.39a1.43,1.43,0,0,0,.09.41h0a2.81,2.81,0,0,0,.59,1.12,1.89,1.89,0,0,1-.94.4,1.92,1.92,0,0,1-2.07-1.68Zm5.55,1.25a1.94,1.94,0,0,1-1-.15,3.14,3.14,0,0,0,.32-1.7,2.92,2.92,0,0,0-.68-1.54A1.86,1.86,0,0,1,36,26a1.89,1.89,0,0,1,.46,3.75Z"/><path id="Tracé_2584" data-name="Tracé 2584" class="cls-1" d="M16.13,33.15,26,31.94l-.59-4.76-9.86,1.21Zm.59-3.81,7.75-.95L24.79,31,17.05,32Z"/></g></svg>