<?xml version="1.0" encoding="utf-8"?>
<!-- Generator: Adobe Illustrator 23.0.4, SVG Export Plug-In . SVG Version: 6.00 Build 0)  -->
<svg version="1.1" id="Calque_1" xmlns="http://www.w3.org/2000/svg" xmlns:xlink="http://www.w3.org/1999/xlink" x="0px" y="0px"
	 viewBox="0 0 66.9 66.9" style="enable-background:new 0 0 66.9 66.9;" xml:space="preserve">
<style type="text/css">
	.st0{fill:#164152;}
</style>
<title>Molusque</title>
<g>
	<g id="picto">
		<path class="st0" d="M36.1,37.3c-0.6,0-1.1,0.5-1.1,1.1s0.5,1.1,1.1,1.1s1.1-0.5,1.1-1.1S36.7,37.3,36.1,37.3L36.1,37.3z"/>
		<path class="st0" d="M29.6,37.3c-0.6,0-1.1,0.5-1.1,1.1s0.5,1.1,1.1,1.1s1.1-0.5,1.1-1.1S30.2,37.3,29.6,37.3L29.6,37.3z"/>
		<path class="st0" d="M59.6,29.4c-0.9-1.5-2.2-2.8-3.7-3.7c0-0.2,0-0.4,0-0.7c0-4.8-4.5-5.8-6.8-6.1c-0.1-0.6-0.2-1.2-0.5-1.8
			c-1.1-2.3-3.4-3.7-5.9-3.9l-4.8-0.3c-1.4-1.2-3.2-1.8-5-1.7c-1.8-0.1-3.6,0.5-5,1.7l-4.7,0.3c-2.5,0.1-4.8,1.6-5.9,3.9
			c-0.3,0.6-0.4,1.1-0.5,1.8C14.5,19.2,10,20.1,10,25c0,0.2,0,0.4,0,0.7c-1.6,0.9-2.9,2.2-3.8,3.7c-1.1,1.8-1.5,3.9-1,6
			c0.8,3.3,5.4,8,12.7,13v2.5c0,3.4,2.7,6.1,6.1,6.1c2.5,0,3.9-1.4,4.8-2c0.6,0.3,1.2,0.6,1.7,0.9c1.5,0.8,3.3,0.8,4.8,0l1.6-0.8
			c0.8,0.5,2.2,1.9,4.7,1.9c3.4,0,6.1-2.7,6.1-6.1v-2.5c4.3-3,8.2-6.5,11.7-10.4l0,0l0,0l0,0c0,0,0,0,0-0.1l0,0l0,0
			c0.5-0.8,0.8-1.6,1-2.5C60.9,33.4,60.6,31.2,59.6,29.4z M23.9,54.8c-2.2,0-4-1.7-4-3.9v-1c2.1,1.4,4.3,2.7,6.6,4
			C25.8,54.5,24.9,54.8,23.9,54.8z M45.5,50.9c0,2.2-1.7,3.9-3.9,3.9c0,0,0,0,0,0c-0.9,0-1.8-0.3-2.5-0.9c2.2-1.3,4.4-2.6,6.4-4
			V50.9z M58.4,34.8c-0.2,0.7-0.4,1.3-0.8,1.9c-4,4.8-12.5,11.8-23.3,17.3c-0.9,0.5-2,0.5-2.9,0c-4.1-2.1-8.1-4.4-11.9-7
			C11.3,41.3,7.8,37,7.2,34.8c-0.7-2.6,0.9-5.2,3-6.8c1.5,6.5,7,11.6,11,15.7c0.4,0.4,1.1,0.4,1.5,0c0.4-0.4,0.4-1.1,0-1.5
			c-3.5-3.6-10-9.3-10.6-16c0-0.4-0.1-0.8-0.1-1.2c0-2.5,1.8-3.4,4.6-3.9c0.6,6.2,5.3,15.5,7.4,20c0.2,0.5,0.9,0.8,1.4,0.5
			c0,0,0,0,0,0c0.6-0.2,0.8-0.9,0.6-1.4c0,0,0-0.1-0.1-0.1c-1.5-3.2-7.4-14.4-7.3-20.3c0-0.6,0.1-1.2,0.3-1.7
			c0.8-1.6,2.3-2.6,4.1-2.7l3.1-0.2c-1.8,4.6,0.6,12.4,1.7,19.1c0.1,0.6,0.6,1,1.2,0.9c0,0,0,0,0,0c0.6-0.1,1-0.7,0.9-1.2
			c-1.2-7.1-3.9-16.1-1.1-19.3c1-1,2.3-1.4,3.7-1.3c1.4-0.1,2.7,0.3,3.7,1.3c2.8,3.2,0,12.1-1.1,19.3c-0.1,0.6,0.3,1.2,0.9,1.2h0.2
			c0.5,0,1-0.4,1.1-0.9c1.1-6.8,3.5-14.5,1.7-19.1l3.2,0.2c1.8,0.1,3.3,1.1,4.1,2.7c0.3,0.6,0.4,1.2,0.4,1.8
			c0.1,5.7-5.5,16.4-7.3,20.3c-0.3,0.6,0,1.2,0.5,1.5c0.6,0.3,1.2,0,1.5-0.5c1.4-3,6.8-13.4,7.5-20c2.8,0.5,4.6,1.4,4.6,3.9
			c0,0.4,0,0.8-0.1,1.2c-0.7,6.6-6.8,12.1-10.8,16.1c-0.4,0.4-0.4,1.1,0,1.5c0.4,0.4,1.1,0.4,1.5,0l0,0c3.5-3.5,9.5-8.9,11-15.7
			C57.5,29.6,59,32.2,58.4,34.8z"/>
	</g>
</g>
</svg>
