<?xml version="1.0" encoding="utf-8"?>
<!-- Generator: Adobe Illustrator 23.0.4, SVG Export Plug-In . SVG Version: 6.00 Build 0)  -->
<svg version="1.1" id="Calque_1" xmlns="http://www.w3.org/2000/svg" xmlns:xlink="http://www.w3.org/1999/xlink" x="0px" y="0px"
	 viewBox="0 0 66.9 66.9" style="enable-background:new 0 0 66.9 66.9;" xml:space="preserve">
<style type="text/css">
	.st0{fill:#164152;}
</style>
<title>Oeuf</title>
<g>
	<g id="picto">
		<path class="st0" d="M24.4,24.4c-0.5,0.2-1.1,0.4-1.6,0.6l0.6,1.4c0.5-0.2,1-0.4,1.5-0.5L24.4,24.4z"/>
		<path class="st0" d="M21.5,25.6c-3.3,1.5-5.5,3.6-6.1,5.7l1.5,0.4c0.5-1.6,2.5-3.4,5.3-4.8L21.5,25.6z"/>
		<path class="st0" d="M45.5,14.2c-3.3,0-6.5,2.5-8.9,6.8c-1.7-0.5-3.4-0.7-5.1-0.7c-9,0-19.4,5.3-19.4,12.1c0,3,2,6,5.7,8.3
			l0.8-1.3c-3.2-2-5-4.5-5-7c0-5.9,9.8-10.6,17.9-10.6c1.5,0,3,0.2,4.4,0.5c-1.6,3.5-2.5,7.4-2.5,11.2c0,0.7,0,1.3,0.1,2l1.6-0.2
			c0-0.6-0.1-1.2-0.1-1.8c0-4,1-7.9,2.8-11.4c2.1-4.1,5-6.5,7.9-6.5c5.9,0,10.6,9.8,10.6,17.9c0,7.6-4.2,12.5-10.6,12.5
			c-0.2,0-0.5,0-0.7,0l-0.1,1.5c0.3,0,0.5,0,0.8,0c7.4,0,12.2-5.5,12.2-14C57.7,24.6,52.4,14.2,45.5,14.2z"/>
		<path class="st0" d="M42.2,20.8l-1.2-1c-0.3,0.4-0.6,0.8-0.9,1.2l1.3,0.9C41.7,21.5,41.9,21.1,42.2,20.8z"/>
		<path class="st0" d="M36.5,31.6l1.5,0.1c0.3-3,1.2-5.9,2.6-8.6l-1.3-0.7C37.7,25.3,36.8,28.4,36.5,31.6z"/>
		<path class="st0" d="M19,43.1v0.2c0.2,8.2,5,13.5,12.1,13.5s11.7-5.1,12.1-13.1c0-0.2,0.1-0.4,0.1-0.6c0-0.7-0.2-1.3-0.6-1.9
			c-0.1-0.1-0.2-0.2-0.2-0.3l-0.1-0.2c-1.8-2.2-5.9-3.6-10.9-3.7h-0.3c-5.6,0-10.1,1.7-11.6,4.2l-0.1,0.2c-0.1,0.1-0.1,0.2-0.2,0.3
			c-0.1,0.1-0.1,0.3-0.1,0.4c0,0.1,0,0.1-0.1,0.2s0,0.2,0,0.4c0,0.1,0,0.2,0,0.3V43.1L19,43.1z M20.6,42.6c0.5-2,4.7-4.1,10.6-4.1
			h0.4c0.3,0,0.5,0,0.8,0l0,0c4.8,0.2,8.3,1.9,9.2,3.7c0,0.1,0.1,0.2,0.1,0.2v0.1c0,0.1,0.1,0.3,0.1,0.4v0.3c0,0.1,0,0.2,0,0.2
			c-0.4,1.1-1.2,1.9-2.3,2.4c-1.4-2.6-4.7-4.3-8.3-4.3s-6.9,1.7-8.3,4.3c-1.5-0.8-2.3-1.8-2.3-2.7v0c0-0.1,0-0.2,0-0.3
			C20.5,42.7,20.5,42.7,20.6,42.6L20.6,42.6z M24.5,46.8l-0.3-0.2c1.2-2.1,3.9-3.5,7-3.5s5.8,1.4,7,3.5l-0.6,0.4l-3-0.7l-4.2,1.4
			l-3-1.5L24.5,46.8z M31.1,55.2c-5.4,0-9.1-3.3-10.3-8.9c0.4,0.3,0.9,0.6,1.4,0.9l1.9,1.2l3.1-0.8l3.1,1.5l4.3-1.4l3.1,0.8l2.1-1.2
			c0.5-0.3,1-0.6,1.5-0.9C40.2,51.9,36.5,55.2,31.1,55.2L31.1,55.2z"/>
	</g>
</g>
</svg>
