<?xml version="1.0"?>
<svg xmlns="http://www.w3.org/2000/svg" id="Out_line" data-name="Out line" viewBox="0 0 512 512" width="512" height="512"><defs><style>.cls-1{fill:#305260;}</style></defs><path class="cls-1" d="M56,488v-8H80a8.00008,8.00008,0,0,0,8-8v-1.69189A197.8187,197.8187,0,0,0,185.689,496H360a32,32,0,0,0,0-64H259.70557A31.99011,31.99011,0,0,0,232,384H212.99927l166.76538-88.94141A8.00014,8.00014,0,0,0,383.023,284.169l-11.25122-20.6272L387.31348,248H408v16a8.00008,8.00008,0,0,0,8,8h24v16a8.00008,8.00008,0,0,0,8,8h48V280H456V120h40V104H448a8.00008,8.00008,0,0,0-8,8H416a8.00008,8.00008,0,0,0-8,8v16H385.64209l-54.49072-23.35352A7.99916,7.99916,0,0,0,328,112H289.11267L239.023,20.169a7.99869,7.99869,0,0,0-10.7876-3.22754L52.23779,110.80664a8.00016,8.00016,0,0,0-3.2583,10.88965L192.05426,384H187.314l-5.65722-5.65723A75.99989,75.99989,0,0,0,88,367.53345V360a8.00008,8.00008,0,0,0-8-8H56v-8a8.00008,8.00008,0,0,0-8-8H16v16H40V480H16v16H48A8.00008,8.00008,0,0,0,56,488ZM424,128h16V256H424ZM168,88a55.83536,55.83536,0,0,1-22.44055,44.81934L122.89,91.25854,164.64862,68.9873A56.05833,56.05833,0,0,1,168,88Zm16,0a71.94447,71.94447,0,0,0-.85986-11.0708,71.97658,71.97658,0,0,0,76.08911,13.69775l22.13342,40.58594-105.885,56.4563-22.19812-40.69653A71.8078,71.8078,0,0,0,184,88Zm108.687,63.999-26.34375,26.34375a30.649,30.649,0,0,0-5.66846,35.50489L205.751,243.17041l-22.61115-41.45386,105.878-56.45263Zm30.58618,56.04151L334.72,229.02661a71.93127,71.93127,0,0,0-29.86023,70.04346,71.98027,71.98027,0,0,0-76.08929-13.69751l-15.3573-28.15479,58.43939-31.1997a30.66847,30.66847,0,0,0,37.8042-4.36084ZM301.147,318.85474,259.228,341.21167l-22.72858-41.66919A55.8671,55.8671,0,0,1,301.147,318.85474ZM191.63605,250.70581l-41.86988,22.35327L127.13849,231.575l41.88226-22.33032Zm7.66223,14.04761,45.81164,83.98779-41.87945,22.33594-45.80206-83.9707Zm124.053,42.259a55.88213,55.88213,0,0,1,19.08887-63.83227l22.66967,41.561ZM326.35791,128l54.49072,23.35352A7.99916,7.99916,0,0,0,384,152h24v80H384a8.00035,8.00035,0,0,0-5.65674,2.34277L363.7854,248.90039l-28.71948-52.65283,1.36279-1.36279a53.40478,53.40478,0,0,0,50.39844,6.94335l-5.64746-14.9707a37.34945,37.34945,0,0,1-39.52295-8.51465,8.00182,8.00182,0,0,0-11.31348,0l-32,32a14.62723,14.62723,0,1,1-20.68652-20.68554L308.231,159.083a8.00026,8.00026,0,0,0,1.36816-9.48438L297.83252,128ZM228.772,34.78809,251.50031,76.457a55.865,55.865,0,0,1-64.64759-19.312ZM108.77191,98.78833l52.58667,96.40894-41.88226,22.33056L66.89258,121.124ZM128,372.11719a59.49072,59.49072,0,0,1,42.34326,17.54l8,8A8.00035,8.00035,0,0,0,184,400h48a16,16,0,0,1,0,32H168a8,8,0,0,0,0,16H360a16,16,0,0,1,0,32H185.689A181.928,181.928,0,0,1,88,451.66016V387.43359A59.44776,59.44776,0,0,1,128,372.11719ZM72,368v96H56V368Z"/></svg>
