<?xml version="1.0" encoding="utf-8"?>
<!-- Generator: Adobe Illustrator 23.0.4, SVG Export Plug-In . SVG Version: 6.00 Build 0)  -->
<svg version="1.1" id="Calque_1" xmlns="http://www.w3.org/2000/svg" xmlns:xlink="http://www.w3.org/1999/xlink" x="0px" y="0px"
	 viewBox="0 0 66.9 66.9" style="enable-background:new 0 0 66.9 66.9;" xml:space="preserve">
<style type="text/css">
	.st0{fill:#164152;}
</style>
<title>Semoule-de-ble</title>
<g>
	<g id="picto">
		<path class="st0" d="M39.8,17.7c-4.8-1.1-9.8-0.9-14.6,0.4c-2.5,0.7-4.9,1.7-7.1,3.1c-2,1.2-3.8,2.6-5.5,4.2h-2.2
			c-1.6-0.3-3.2,0.8-3.5,2.5c-0.3,1.6,0.8,3.2,2.5,3.5l0,0c0.3,6.1,3,11.9,7.5,16.1l0.1,0.1c1.9,1.7,4.1,3.2,6.5,4.2
			c0.1,0.1,0.3,0.1,0.4,0.1h18.9c0.1,0,0.3,0,0.4-0.1c8.2-3.5,13.7-11.5,14.1-20.4c1.6-0.3,2.7-1.8,2.5-3.5
			c-0.3-1.6-1.8-2.7-3.5-2.5h-2.2c-1.9-1.8-3.9-3.4-6.2-4.6C45.3,19.4,42.6,18.3,39.8,17.7z M46.4,22.3c1.6,0.9,3.2,1.9,4.6,3.1
			H15.7c7.1-5.9,16.6-7.8,25.4-5.3C42.9,20.6,44.7,21.4,46.4,22.3z M42.6,49.7H24.1c-1.3-0.6-2.4-1.2-3.6-2h2.7c0.6,0,1-0.4,1-1
			s-0.4-1-1-1h-5.2c-3.9-3.7-6.3-8.8-6.6-14.2h43.8C54.8,39.5,49.9,46.5,42.6,49.7z M56.3,29.4H10.4c-0.6,0-1-0.4-1-1s0.4-1,1-1
			h45.9c0.6,0,1,0.4,1,1S56.8,29.4,56.3,29.4z"/>
		<path class="st0" d="M30.8,21.4L30.8,21.4c-0.6,0-1,0.4-1,1s0.4,1,1,1s1-0.4,1-1S31.4,21.4,30.8,21.4z"/>
		<path class="st0" d="M22.1,22.2L22.1,22.2c-0.6,0-1,0.4-1,1s0.4,1,1,1s1-0.4,1-1S22.7,22.2,22.1,22.2z"/>
		<path class="st0" d="M26.8,20.8L26.8,20.8c-0.6,0-1,0.4-1,1s0.4,1,1,1s1-0.4,1-1S27.3,20.8,26.8,20.8z"/>
		<path class="st0" d="M43.8,22.3L43.8,22.3c-0.6,0-1,0.4-1,1s0.4,1,1,1s1-0.4,1-1S44.3,22.3,43.8,22.3z"/>
		<path class="st0" d="M34.8,21.2L34.8,21.2c-0.6,0-1,0.4-1,1s0.4,1,1,1s1-0.4,1-1S35.4,21.2,34.8,21.2z"/>
		<path class="st0" d="M38.7,20.8L38.7,20.8c-0.6,0-1,0.4-1,1s0.4,1,1,1s1-0.4,1-1S39.3,20.8,38.7,20.8z"/>
		<path class="st0" d="M51.2,33.5h-5.6c-0.6,0-1,0.4-1,1s0.4,1,1,1h5.6c0.6,0,1-0.4,1-1S51.8,33.5,51.2,33.5z"/>
		<path class="st0" d="M41.1,33.5L41.1,33.5c-0.6,0-1,0.4-1,1s0.4,1,1,1s1-0.4,1-1S41.6,33.5,41.1,33.5z"/>
		<path class="st0" d="M27.8,45.7c-0.6,0-1,0.4-1,1s0.4,1,1,1l0,0c0.6,0,1-0.4,1-1S28.4,45.7,27.8,45.7z"/>
	</g>
</g>
</svg>
