<?xml version="1.0" encoding="utf-8"?>
<!-- Generator: Adobe Illustrator 23.0.4, SVG Export Plug-In . SVG Version: 6.00 Build 0)  -->
<svg version="1.1" id="Calque_1" xmlns="http://www.w3.org/2000/svg" xmlns:xlink="http://www.w3.org/1999/xlink" x="0px" y="0px"
	 viewBox="0 0 66.9 66.9" style="enable-background:new 0 0 66.9 66.9;" xml:space="preserve">
<style type="text/css">
	.st0{fill:#164152;}
</style>
<title>Sesame</title>
<g>
	<g id="barre">
		<rect x="30.1" y="28.5" transform="matrix(0.7071 -0.7071 0.7071 0.7071 -12.9076 31.1455)" class="st0" width="2" height="5.4"/>
	</g>
	<g id="picto">
		<path class="st0" d="M34.2,32.3l-0.8-0.5l-0.8,0.5C27,35.9,24,40.5,24,45.4c0,5.2,4.2,9.4,9.4,9.4c5.2,0,9.4-4.2,9.4-9.4
			C42.9,40.5,39.9,35.9,34.2,32.3z M33.4,52.9c-4,0-7.3-3.3-7.3-7.3c0-5.1,3.8-8.9,7.3-11.3c3.5,2.5,7.3,6.3,7.3,11.3
			C40.8,49.6,37.5,52.9,33.4,52.9z"/>
		<path class="st0" d="M54.7,18c-2.6-4.5-8.4-6.1-12.9-3.5c-4.3,2.5-6.7,7.3-7,14.1v0.9l0.8,0.4c2.9,1.6,6.1,2.5,9.4,2.6l0,0
			c2.2,0,4.4-0.5,6.3-1.6C55.8,28.3,57.3,22.5,54.7,18z M50.3,29c-1.6,0.9-3.5,1.4-5.4,1.4l0,0c-2.8-0.1-5.6-0.8-8.1-2.1
			c0.4-4.3,1.8-9.5,6.2-12c1.1-0.7,2.4-1,3.7-1c4,0,7.3,3.2,7.4,7.3C54,25.2,52.6,27.7,50.3,29z"/>
		<path class="st0" d="M32.1,29.5v-0.9c-0.3-6.8-2.8-11.6-7-14.1c-4.5-2.6-10.3-1.1-12.9,3.5s-1.1,10.3,3.5,12.9l0,0
			c1.9,1.1,4.1,1.7,6.3,1.6l0,0c3.3-0.1,6.5-1,9.4-2.6L32.1,29.5z M22,30.4c-1.9,0-3.8-0.5-5.4-1.4c-3.5-2-4.7-6.5-2.7-10
			s6.5-4.7,10-2.7c4.4,2.5,5.8,7.7,6.1,12C27.5,29.6,24.8,30.3,22,30.4z"/>
	</g>
</g>
</svg>
