<?xml version="1.0" encoding="utf-8"?>
<!-- Generator: Adobe Illustrator 23.0.4, SVG Export Plug-In . SVG Version: 6.00 Build 0)  -->
<svg version="1.1" id="Calque_1" xmlns="http://www.w3.org/2000/svg" xmlns:xlink="http://www.w3.org/1999/xlink" x="0px" y="0px"
	 viewBox="0 0 66.9 66.9" style="enable-background:new 0 0 66.9 66.9;" xml:space="preserve">
<style type="text/css">
	.st0{fill:#164152;}
</style>
<title>Soja</title>
<g>
	<g id="picto">
		<path class="st0" d="M34.9,26c-3.5,0-6.3,2.8-6.3,6.3s2.8,6.3,6.3,6.3c3.5,0,6.3-2.8,6.3-6.3c0,0,0,0,0,0
			C41.2,28.8,38.3,26,34.9,26z M34.9,36.5c-2.3,0-4.2-1.9-4.2-4.2c0-2.3,1.9-4.2,4.2-4.2c2.3,0,4.2,1.9,4.2,4.2c0,0,0,0,0,0
			C39.1,34.6,37.2,36.5,34.9,36.5C34.9,36.5,34.9,36.5,34.9,36.5L34.9,36.5z"/>
		<path class="st0" d="M24.4,36.5c-3.5,0-6.3,2.8-6.3,6.3c0,3.5,2.8,6.3,6.3,6.3s6.3-2.8,6.3-6.3l0,0C30.7,39.3,27.8,36.5,24.4,36.5
			z M24.4,47c-2.3,0-4.2-1.9-4.1-4.2c0-2.3,1.9-4.2,4.2-4.1c2.3,0,4.1,1.9,4.1,4.2C28.6,45.2,26.7,47,24.4,47L24.4,47z"/>
		<path class="st0" d="M45.4,15.5c-3.5,0-6.3,2.8-6.3,6.3s2.8,6.3,6.3,6.3c3.5,0,6.3-2.8,6.3-6.3l0,0C51.7,18.3,48.8,15.5,45.4,15.5
			z M45.4,26c-2.3,0-4.2-1.9-4.2-4.2s1.9-4.2,4.2-4.2c2.3,0,4.2,1.9,4.2,4.2c0,0,0,0,0,0C49.6,24.1,47.7,26,45.4,26L45.4,26z"/>
		<path class="st0" d="M57.2,22c-0.1-3.1-2-8.9-2.1-9.1c-0.1-0.4-0.5-0.7-0.9-0.9c-0.2-0.1-6.1-2-9.2-2.1c-5.3-0.1-10,3.1-11.9,8.1
			c-0.5,1.3-1.5,2.3-2.8,2.7c-3.3,1.3-5.9,3.9-7.2,7.2c-0.5,1.3-1.4,2.3-2.7,2.8c-5,1.8-8.2,6.6-8.1,11.9c0.1,3.1,2,8.9,2.1,9.2
			c0.1,0.4,0.5,0.7,0.9,0.9c0.2,0.1,6.1,2,9.2,2.1h0.3c5.2,0,9.8-3.2,11.6-8.1c0.5-1.3,1.5-2.2,2.8-2.7c3.3-1.3,5.9-3.9,7.2-7.2
			c0.5-1.3,1.5-2.3,2.7-2.8C54.1,32.1,57.4,27.3,57.2,22z M48.5,31.3c-2.1,0.8-3.7,2.4-4.5,4.5c-1,2.6-3.1,4.7-5.7,5.7
			c-2.1,0.8-3.7,2.4-4.5,4.5c-1.5,3.9-5.2,6.4-9.4,6.4c-2.7-0.3-5.3-0.9-7.8-1.8c-0.9-2.5-1.4-5.2-1.8-7.8c-0.1-4.2,2.5-7.9,6.4-9.4
			c2.1-0.8,3.7-2.4,4.4-4.5c1-2.6,3.1-4.7,5.7-5.7c2.1-0.8,3.7-2.4,4.5-4.4c1.5-3.9,5.2-6.5,9.4-6.4c2.7,0.3,5.3,0.9,7.8,1.8
			c0.9,2.5,1.4,5.2,1.8,7.8C54.9,26.1,52.4,29.8,48.5,31.3z"/>
	</g>
</g>
</svg>
