<?xml version="1.0" encoding="utf-8"?>
<!-- Generator: Adobe Illustrator 23.0.3, SVG Export Plug-In . SVG Version: 6.00 Build 0)  -->
<svg version="1.1" id="Calque_1" xmlns="http://www.w3.org/2000/svg" xmlns:xlink="http://www.w3.org/1999/xlink" x="0px" y="0px"
	 viewBox="0 0 50 50" style="enable-background:new 0 0 50 50;" xml:space="preserve">
<style type="text/css">
	.st0{fill:#65C1AC;}
	.st1{fill:#FFFFFF;}
	.st2{fill:none;stroke:#FFFFFF;}
	.st3{fill:#164152;}
	.st4{fill:none;stroke:#164152;stroke-width:2;}
	.st5{fill:#F17889;}
	.st6{fill:none;stroke:#164152;stroke-width:2;stroke-linecap:round;stroke-linejoin:round;}
	.st7{fill:#64B7D3;}
	.st8{fill:none;stroke:#64B7D3;stroke-miterlimit:10;}
	.st9{fill:#64B7D3;stroke:#FFFFFF;stroke-width:0.5;}
	.st10{fill-rule:evenodd;clip-rule:evenodd;fill:#164152;}
</style>
<g id="Groupe_3001" transform="translate(-16 -9)">
	<path id="Tracé_5447" class="st7" d="M47,18c-2.7,0-4.9,2.2-4.9,4.9c0,0.6,0.1,1.3,0.4,1.9l-10.1,6.5c-2-1.9-5.1-1.8-6.9,0.1
		c-1.9,2-1.8,5.1,0.1,6.9c1.9,1.8,4.9,1.8,6.8,0l10.1,6.5c-0.3,0.6-0.4,1.2-0.4,1.9c0,2.7,2.2,5,4.9,5c2.7,0,5-2.2,5-4.9
		c0-2.7-2.2-5-4.9-5c-1.4,0-2.8,0.6-3.8,1.7l-10-6.4c0.7-1.4,0.7-3,0-4.4l10-6.4c1.8,2,4.9,2.2,6.9,0.4c2-1.8,2.2-4.9,0.4-6.9
		C49.7,18.6,48.4,18,47,18z M47,19.7c1.8,0,3.3,1.5,3.3,3.3c0,1.8-1.5,3.3-3.3,3.3s-3.3-1.5-3.3-3.3C43.7,21.2,45.1,19.7,47,19.7
		C47,19.7,47,19.7,47,19.7z M28.9,31.6c1.8,0,3.3,1.5,3.3,3.3s-1.5,3.3-3.3,3.3c-1.8,0-3.3-1.5-3.3-3.3l0,0
		C25.6,33,27.1,31.6,28.9,31.6C28.9,31.6,28.9,31.6,28.9,31.6z M47,43.5c1.8,0,3.3,1.5,3.3,3.3S48.8,50,47,50s-3.3-1.5-3.3-3.3
		C43.7,44.9,45.1,43.5,47,43.5C47,43.5,47,43.5,47,43.5z"/>
</g>
</svg>
