<?xml version="1.0" encoding="utf-8"?>
<!-- Generator: Adobe Illustrator 23.0.3, SVG Export Plug-In . SVG Version: 6.00 Build 0)  -->
<svg version="1.1" id="Calque_1" xmlns="http://www.w3.org/2000/svg" xmlns:xlink="http://www.w3.org/1999/xlink" x="0px" y="0px"
	 viewBox="0 0 50 50" style="enable-background:new 0 0 50 50;" xml:space="preserve">
<style type="text/css">
	.st0{fill:#65C1AC;}
	.st1{fill:#FFFFFF;}
	.st2{fill:none;stroke:#FFFFFF;}
	.st3{fill:#164152;}
	.st4{fill:none;stroke:#164152;stroke-width:2;}
	.st5{fill:#F17889;}
	.st6{fill:none;stroke:#164152;stroke-width:2;stroke-linecap:round;stroke-linejoin:round;}
	.st7{fill:#64B7D3;}
	.st8{fill:none;stroke:#64B7D3;stroke-miterlimit:10;}
	.st9{font-family:'OpenSans-Light';}
	.st10{font-size:13.5223px;}
	.st11{fill:none;stroke:#64B7D3;}
	.st12{font-size:5.4089px;}
	.st13{fill:#64B7D3;stroke:#FFFFFF;stroke-width:0.5;}
	.st14{fill-rule:evenodd;clip-rule:evenodd;fill:#164152;}
</style>
<g id="Groupe_3021" transform="translate(-893.692 -543.213)">
	<g id="Groupe_1144" transform="translate(887.987 536.656)">
		<g id="Groupe_1142" transform="translate(6.455 7.754)">
			<path id="Tracé_2662" class="st8" d="M26.5,28.9c1.4-1.3,2.2-3.1,2.2-5c0-5-6.1-9.1-13.7-9.1S1.4,18.9,1.4,23.9S7.5,33,15.1,33
				c2.6,0,5.3-0.5,7.7-1.6l5.5,1L26.5,28.9z"/>
		</g>
		<text transform="matrix(1 0 0 1 15.2578 36.892)" class="st7 st9 st10">5</text>
		<text transform="matrix(1 0 0 1 15.2578 36.892)" class="st11 st9 st10">5</text>
		<text transform="matrix(1 0 0 1 22.9511 31.3378)" class="st7 st9 st12">€</text>
		<text transform="matrix(1 0 0 1 22.9511 31.3378)" class="st11 st9 st12">€</text>
	</g>
	<ellipse id="Ellipse_532" class="st7" cx="928.1" cy="572.6" rx="0.7" ry="1"/>
	<ellipse id="Ellipse_533" class="st7" cx="935.1" cy="572.6" rx="0.7" ry="1"/>
	<g id="Groupe_3002" transform="translate(959.237 555.48)">
		<path id="Tracé_4045_1_" class="st7" d="M-25.9,25.3c-4.6,0-8.3-3.7-8.3-8.3s3.7-8.3,8.3-8.3c4.6,0,8.3,3.7,8.3,8.3c0,0,0,0,0,0
			C-17.7,21.6-21.4,25.3-25.9,25.3z M-25.9,9.6c-4.1,0-7.5,3.3-7.5,7.5s3.3,7.5,7.5,7.5c4.1,0,7.5-3.3,7.5-7.5
			C-18.5,12.9-21.8,9.6-25.9,9.6C-25.9,9.6-25.9,9.6-25.9,9.6z"/>
	</g>
	<circle id="Ellipse_534" class="st7" cx="930.7" cy="576" r="1.8"/>
</g>
</svg>
