<?xml version="1.0" encoding="utf-8"?>
<!-- Generator: Adobe Illustrator 23.0.3, SVG Export Plug-In . SVG Version: 6.00 Build 0)  -->
<svg version="1.1" id="Calque_1" xmlns="http://www.w3.org/2000/svg" xmlns:xlink="http://www.w3.org/1999/xlink" x="0px" y="0px"
	 viewBox="0 0 50 50" style="enable-background:new 0 0 50 50;" xml:space="preserve">
<style type="text/css">
	.st0{fill:#F17889;}
	.st1{fill:#FFFFFF;}
	.st2{fill-rule:evenodd;clip-rule:evenodd;fill:#FFFFFF;}
	.st3{fill-rule:evenodd;clip-rule:evenodd;fill:#F17889;}
</style>
<path id="Tracé_4304_2_" class="st0" d="M25.25,0C38.92,0,50,11.08,50,24.75S38.92,49.5,25.25,49.5S0.5,38.42,0.5,24.75
	C0.5,11.08,11.58,0,25.25,0C25.25,0,25.25,0,25.25,0z"/>
<path class="st1" d="M15.42,37.38l-0.05,0.21c-0.4,1.61,0.58,3.25,2.19,3.65l8.7,2.17c1.6,0.4,3.25-0.58,3.65-2.19l5.11-20.5
	c0.31-1.24,0.25-2.53-0.17-3.73c-0.36-1.02-0.98-1.93-1.8-2.63l-0.12-0.1l0.41-1.65l0.22,0.03c0.29,0.04,0.55-0.15,0.62-0.42
	l0.57-2.3c0.29-1.17-0.43-2.37-1.6-2.66l-4.7-1.17c-1.18-0.3-2.37,0.42-2.67,1.6l-0.57,2.3c-0.07,0.28,0.08,0.56,0.35,0.66
	l0.21,0.08l-0.41,1.65l-0.15,0.04c-2.34,0.56-4.15,2.36-4.74,4.69L15.42,37.38z M28.81,40.94c-0.21,0.85-0.98,1.43-1.83,1.43
	c-0.15,0-0.3-0.02-0.45-0.06v0l-8.7-2.17c-1-0.25-1.62-1.27-1.37-2.28l1.27-5.1l12.34,3.08L28.81,40.94z M26.89,7.94
	c0.14-0.57,0.72-0.92,1.29-0.78l4.7,1.17c0.57,0.14,0.92,0.72,0.78,1.29l-0.44,1.75l-6.76-1.69L26.89,7.94z M21.58,17.36
	c0.51-2.07,2.21-3.62,4.32-3.94l0.04-0.01c0.21-0.04,0.38-0.2,0.43-0.42l0.51-2.03l5.37,1.34l-0.51,2.04
	c-0.06,0.23,0.03,0.46,0.22,0.6c1.72,1.27,2.49,3.43,1.96,5.51l-0.69,2.76l-12.35-3.08L21.58,17.36z M32.96,24.3l-2.6,10.44
	l-12.35-3.08l2.6-10.44L32.96,24.3z"/>
</svg>
