<?xml version="1.0" encoding="utf-8"?>
<!-- Generator: Adobe Illustrator 23.0.3, SVG Export Plug-In . SVG Version: 6.00 Build 0)  -->
<svg version="1.1" id="Calque_1" xmlns="http://www.w3.org/2000/svg" xmlns:xlink="http://www.w3.org/1999/xlink" x="0px" y="0px"
	 viewBox="0 0 50 50" style="enable-background:new 0 0 50 50;" xml:space="preserve">
<style type="text/css">
	.st0{fill:#F17889;}
	.st1{fill:#FFFFFF;}
	.st2{fill-rule:evenodd;clip-rule:evenodd;fill:#FFFFFF;}
	.st3{fill-rule:evenodd;clip-rule:evenodd;fill:#F17889;}
</style>
<path id="Tracé_4304_5_" class="st0" d="M25.25,0C38.92,0,50,11.08,50,24.75S38.92,49.5,25.25,49.5S0.5,38.42,0.5,24.75
	C0.5,11.08,11.58,0,25.25,0C25.25,0,25.25,0,25.25,0z"/>
<g id="Groupe_2635" transform="translate(-0.499 -0.5)">
	<path id="Tracé_4310" class="st1" d="M29.27,9.37c-1.17-0.29-2.36,0.42-2.66,1.58c-0.55,2.31-2.59,3.97-4.96,4.05
		c-0.2,0.01-0.38,0.1-0.52,0.25C21,15.4,20.94,15.6,20.96,15.8l0.06,0.5c0.02,1.77-0.84,3.44-2.3,4.45
		c-1.42,0.98-3.25,1.19-4.86,0.56c-0.34-0.13-0.73,0.02-0.89,0.34c-0.69,1.35-1.94,2.34-3.41,2.72c-0.15,0.04-0.28,0.12-0.37,0.24
		c-0.11,0.13-0.18,0.29-0.18,0.46c-0.08,4.39,1.61,8.63,4.7,11.75c6.4,6.5,16.86,6.59,23.36,0.19c3.13-3.08,4.9-7.27,4.93-11.66
		C42.01,17.7,36.73,11.07,29.27,9.37z M25.5,40.32c-7.99,0.02-14.6-6.22-15.05-14.2l-0.03-0.5l0.46-0.19
		c1.1-0.47,2.06-1.23,2.78-2.2l0.27-0.37l0.45,0.09c3.64,0.74,7.19-1.62,7.93-5.26c0.05-0.26,0.09-0.52,0.11-0.79l0.04-0.52
		l0.51-0.12c2.47-0.57,4.41-2.48,5-4.95l0.11-0.45l0.61-0.12l0.25,0.02C37,12.62,42.03,20.65,40.19,28.7
		C38.62,35.54,32.51,40.37,25.5,40.32z"/>
	<circle id="Ellipse_517" class="st1" cx="29.09" cy="20.23" r="1.43"/>
	<circle id="Ellipse_518" class="st1" cx="19.05" cy="28.84" r="1.43"/>
	<circle id="Ellipse_519" class="st1" cx="30.53" cy="31.71" r="1.43"/>
	<circle id="Ellipse_520" class="st1" cx="25.5" cy="25.25" r="0.72"/>
	<circle id="Ellipse_521" class="st1" cx="22.63" cy="33.86" r="0.72"/>
	<circle id="Ellipse_522" class="st1" cx="21.2" cy="9.47" r="0.72"/>
	<circle id="Ellipse_523" class="st1" cx="14.74" cy="15.92" r="1.43"/>
	<circle id="Ellipse_524" class="st1" cx="34.11" cy="25.25" r="0.72"/>
</g>
</svg>
