<?xml version="1.0" encoding="utf-8"?>
<!-- Generator: Adobe Illustrator 23.0.3, SVG Export Plug-In . SVG Version: 6.00 Build 0)  -->
<svg version="1.1" id="Calque_1" xmlns="http://www.w3.org/2000/svg" xmlns:xlink="http://www.w3.org/1999/xlink" x="0px" y="0px"
	 viewBox="0 0 50 50" style="enable-background:new 0 0 50 50;" xml:space="preserve">
<style type="text/css">
	.st0{fill:#F17889;}
	.st1{fill:#FFFFFF;}
	.st2{fill-rule:evenodd;clip-rule:evenodd;fill:#FFFFFF;}
	.st3{fill-rule:evenodd;clip-rule:evenodd;fill:#F17889;}
</style>
<path id="Tracé_4304_3_" class="st0" d="M25.25,0C38.92,0,50,11.08,50,24.75S38.92,49.5,25.25,49.5S0.5,38.42,0.5,24.75
	C0.5,11.08,11.58,0,25.25,0C25.25,0,25.25,0,25.25,0z"/>
<g id="Groupe_2633" transform="translate(-0.814 -0.936)">
	<g id="Groupe_2632" transform="translate(1.315 1.402)">
		<g id="Groupe_2631">
			<path id="Tracé_4307" class="st2" d="M37,39.81c-2.93-0.09-5.57-2.92-5.55-2.89c-3.25-3.43-6.62-6.35-9.94-9.78
				c-3.69-3.81-7.07-7.95-10.59-11.87c-0.44-0.49-1.93-2.11-1.62-4.04c0.14-0.94,0.68-1.77,1.49-2.26c1.23-0.6,2.66,0.15,3.55,0.63
				c0.5,0.19,0.96,0.47,1.37,0.83c0.33,0.41,0.16,0.61,0.38,0.75c0.2,0.12,0.28-0.12,0.87,0.02c0.54,0.23,1.03,0.55,1.46,0.95
				c0.51,0.36,1.01,0.73,1.51,1.11c0.29,0.17,0.54,0.4,0.73,0.68c0.21,0.41,0.07,0.63,0.2,0.79c0.1,0.12,0.02,0.02,0.54,0.1
				c0.88,0.14,1.56,1.03,1.95,1.41c0.39,0.38,0.79,0.79,1.18,1.19c0.47,0.39,0.76,0.96,0.79,1.57c0,0.08,0.02,0.15,0.04,0.23
				c0.03,0.08,0.13,0.16,0.41,0.19c0.17,0.01,0.34,0.03,0.51,0.07l0.04,0.01l0.08,0.03l0.04,0.02c0.16,0.1,0.3,0.22,0.42,0.36
				c0.5,0.55,1.01,1.09,1.51,1.64c0.32,0.27,0.6,0.58,0.84,0.92c0.12,0.31,0.2,0.64,0.26,0.97c0.04,0.11,0.09,0.22,0.17,0.31
				c0.06,0.07,0.13,0.11,0.22,0.14l0.2,0.04c0.06-0.01,0.12-0.02,0.18,0c0.06,0.01,0.11,0.03,0.16,0.07l0.04,0.04
				c0.13,0.05,0.26,0.11,0.37,0.2c0.9,0.67,1.59,1.59,1.97,2.65c0.03,0.15,0.09,0.29,0.18,0.42c0.16,0.19,0.41,0.04,0.91,0.4
				c0.4,0.38,0.76,0.8,1.06,1.26c0.38,0.45,0.75,0.91,1.12,1.37c0.34,0.45,0.6,0.97,0.75,1.51c0.03,0.14,0.1,0.27,0.19,0.38
				c0.11,0.1,0.24,0.17,0.38,0.2c0.08,0.02,0.15,0.06,0.2,0.12c0.59,0.62,1.12,1.29,1.57,2.02c0.67,1.09,1.35,2.13,1,3.3
				c-0.17,0.54-0.5,1.01-0.95,1.35C38.56,39.66,37.78,39.87,37,39.81z M38.67,38.52c0.3-0.23,0.53-0.55,0.65-0.91
				c0.21-0.72-0.17-1.39-0.91-2.6c-0.15-0.24-0.34-0.53-0.58-0.85l-0.48-0.56l-0.21,0.43c-0.43,0.68-1.04,1.22-1.76,1.57
				c-0.22,0.1-0.47,0.01-0.58-0.21c-0.06-0.12-0.05-0.26,0-0.37c0.5-1.01,0.7-2.15,0.59-3.27c-0.01-0.1-0.02-0.2-0.01-0.3
				c0.01-0.08,0.03-0.16,0.07-0.24l0.09-0.12l-0.15-0.22c-0.37-0.45-0.74-0.91-1.11-1.36c-0.1-0.12-0.18-0.23-0.26-0.34l-0.16-0.23
				l0,0.02c-0.31,1.37-1.18,2.56-2.39,3.27c-0.21,0.12-0.47,0.05-0.59-0.16c-0.04-0.06-0.06-0.14-0.06-0.21
				c0-0.29,0.05-0.58,0.14-0.86c0.08-0.25,0.18-0.49,0.26-0.71c0.44-1.19,0.55-2.48,0.31-3.73c-0.01-0.06-0.01-0.11,0-0.17
				l0.04-0.09l-0.04-0.08c-0.21-0.3-0.44-0.59-0.7-0.85l-0.42-0.37l-0.17,0.38c-0.52,0.84-1.19,1.57-1.97,2.17
				c-0.23,0.2-0.47,0.38-0.73,0.54c-0.21,0.12-0.47,0.04-0.59-0.17c-0.05-0.09-0.07-0.19-0.05-0.29c0.04-0.19,0.1-0.37,0.2-0.54
				c0.08-0.15,0.18-0.3,0.24-0.41c0.74-1.23,0.96-2.7,0.62-4.1c-0.01-0.06-0.02-0.12-0.01-0.17l0.02-0.07l-0.22-0.22l-1.48-1.6
				l-0.13,0.31c-0.36,0.72-0.84,1.37-1.43,1.91c-0.39,0.39-0.88,0.66-1.41,0.77c-0.24,0.04-0.46-0.13-0.49-0.36
				c-0.01-0.08,0-0.15,0.03-0.23c0.13-0.29,0.27-0.57,0.43-0.85c0.62-1.19,0.86-2.53,0.71-3.86l0.01-0.15l-0.06-0.06
				c-0.38-0.4-0.77-0.79-1.16-1.17c-0.3-0.29-0.54-0.56-0.77-0.77l-0.24-0.18l-0.22,0.68c-0.38,1.13-1.12,2.12-2.09,2.81
				c-0.2,0.13-0.47,0.07-0.6-0.13c-0.07-0.11-0.09-0.26-0.04-0.38c0.68-1.53,0.85-3.23,0.51-4.87l-0.01-0.14l-1.36-1
				c-0.24-0.17-0.45-0.36-0.64-0.51l-0.03-0.02v0.16c-0.06,0.57-0.26,1.12-0.57,1.61c-0.41,0.63-0.95,1.16-1.58,1.55
				c-0.2,0.13-0.47,0.07-0.6-0.13c-0.06-0.1-0.08-0.22-0.06-0.33c0.19-0.73,0.31-1.48,0.38-2.23c0.06-0.7-0.06-1.4-0.35-2.04
				c-0.03-0.05-0.04-0.11-0.04-0.17l0.02-0.14l-0.17-0.07c-0.11-0.05-0.23-0.11-0.35-0.18c-0.99-0.54-1.99-0.99-2.76-0.62
				c-0.56,0.37-0.93,0.96-1.02,1.62c-0.24,1.45,0.92,2.77,1.41,3.32c3.56,3.97,6.89,8.04,10.57,11.85c3.14,3.25,6.8,6.47,9.94,9.79
				c0.02,0.02,2.44,2.55,4.95,2.62C37.61,39,38.19,38.85,38.67,38.52z M36.1,33.99l0.03-0.04c0.12-0.14,0.22-0.29,0.32-0.45
				l0.22-0.46l-0.08-0.05c-0.07-0.05-0.14-0.11-0.21-0.18l-0.1-0.12v0.03c-0.02,0.36-0.07,0.72-0.15,1.07L36.1,33.99z M32.96,28.95
				l0.12-0.65l-0.12-0.04c-0.12-0.05-0.24-0.1-0.35-0.17L32.49,28l-0.01,0.51c-0.06,0.71-0.21,1.41-0.46,2.08l-0.04,0.12
				C32.44,30.21,32.78,29.61,32.96,28.95L32.96,28.95z M28.56,26.12l0.15-0.15c0.37-0.36,0.67-0.78,0.88-1.25l0.01-0.03l-0.25-0.1
				c-0.13-0.07-0.25-0.16-0.36-0.28l-0.04-0.06l-0.11,0.86c-0.06,0.3-0.14,0.6-0.25,0.89L28.56,26.12z M24.26,21.98l0.11-0.11
				c0.42-0.44,0.77-0.94,1.03-1.49l0.06-0.15l-0.08-0.02c-0.11-0.03-0.21-0.07-0.31-0.12l-0.26-0.2l-0.01,0.18
				C24.7,20.74,24.52,21.38,24.26,21.98L24.26,21.98z M20.12,17.45l0.02-0.03c0.2-0.33,0.38-0.67,0.52-1.03l0.25-0.74l-0.07-0.01
				c-0.11-0.02-0.22-0.06-0.33-0.11l-0.16-0.13l0,0.07c0,0.58-0.06,1.15-0.18,1.72L20.12,17.45z M15.55,14.16L15.69,14
				c0.1-0.12,0.19-0.24,0.27-0.37c0.24-0.37,0.39-0.79,0.44-1.23l0-0.32h-0.02c-0.12,0-0.25-0.01-0.37-0.03l-0.36-0.14l0.05,0.47
				c0.01,0.21,0.01,0.42,0,0.62c-0.02,0.31-0.05,0.61-0.1,0.91L15.55,14.16z"/>
		</g>
	</g>
</g>
</svg>
