<svg xmlns="http://www.w3.org/2000/svg" width="128" height="128" viewBox="0 0 128 128">
  <g id="Group_3093" data-name="Group 3093" transform="translate(-1071 -981)">
    <circle id="Ellipse_544" data-name="Ellipse 544" cx="64" cy="64" r="64" transform="translate(1071 981)" fill="#fec731"/>
    <g id="Group_3091" data-name="Group 3091" transform="translate(1095.295 1006.293)">
      <path id="Path_5496" data-name="Path 5496" d="M71.2,25.613a7.918,7.918,0,0,1-8.309-9.894,10.376,10.376,0,0,1-6.407-1.769c-4.054,1.368-6.958.1-8.626,7.041A17.083,17.083,0,0,1,24.852,46.035c-2.653,5.306-6.09,6.04-8.926,6.607-2.753.567-4.789,1-6.09,6.307A36.679,36.679,0,0,0,71.2,25.613ZM24.719,58.849l-3.787.884a1.67,1.67,0,1,1-.751-3.254l3.771-.884a1.671,1.671,0,1,1,.768,3.254ZM37.3,59.983,34.947,63.2a1.67,1.67,0,0,1-2.686-1.985l2.353-3.2A1.665,1.665,0,1,1,37.3,59.983ZM49.646,57l-3.971.25h-.1a1.67,1.67,0,0,1-.117-3.337l3.988-.25a1.71,1.71,0,0,1,1.769,1.568A1.677,1.677,0,0,1,49.646,57Zm8.976-9.026a1.649,1.649,0,0,1-1.869,1.452,1.672,1.672,0,0,1-1.435-1.869l.5-3.954a1.674,1.674,0,0,1,3.32.434Z" transform="translate(4.572 7.32)" fill="#164152"/>
      <path id="Path_5497" data-name="Path 5497" d="M56.354,11.943a7.942,7.942,0,0,1-9.861-8.309A37.179,37.179,0,0,0,39.686,3,36.676,36.676,0,0,0,11.772,63.482c1.935-5.523,5.172-6.19,8.059-6.791,2.686-.551,5.022-1.018,7.024-5.723A17.089,17.089,0,0,1,49.68,25.825c1.752-5.356,4.388-6.39,8.559-7.258A10.322,10.322,0,0,1,56.354,11.943ZM16.561,43.694l-3.137,2.469a1.664,1.664,0,1,1-2.052-2.62l3.12-2.469a1.688,1.688,0,0,1,2.353.284A1.669,1.669,0,0,1,16.561,43.694Zm2.286-11.112-3.721,1.4a1.679,1.679,0,0,1-2.152-.968,1.653,1.653,0,0,1,.968-2.152l3.737-1.4a1.64,1.64,0,0,1,2.136.968A1.659,1.659,0,0,1,18.847,32.582Zm6.407-13.164a1.671,1.671,0,0,1-1.668,1.6h-.067a1.66,1.66,0,0,1-1.6-1.719l.15-3.988a1.619,1.619,0,0,1,1.719-1.6A1.663,1.663,0,0,1,25.4,15.43ZM38.918,14l-3.971.234a.212.212,0,0,1-.1.017,1.67,1.67,0,0,1-.1-3.337l3.971-.25a1.671,1.671,0,0,1,.2,3.337Z" transform="translate(0 0)" fill="#164152"/>
    </g>
  </g>
</svg>
