<?xml version="1.0" encoding="utf-8"?>
<!-- Generator: Adobe Illustrator 23.0.3, SVG Export Plug-In . SVG Version: 6.00 Build 0)  -->
<svg version="1.1" id="Calque_1" xmlns="http://www.w3.org/2000/svg" xmlns:xlink="http://www.w3.org/1999/xlink" x="0px" y="0px"
	 viewBox="0 0 50 50" style="enable-background:new 0 0 50 50;" xml:space="preserve">
<style type="text/css">
	.st0{fill:#F17889;}
	.st1{fill:#FFFFFF;}
	.st2{fill-rule:evenodd;clip-rule:evenodd;fill:#FFFFFF;}
	.st3{fill-rule:evenodd;clip-rule:evenodd;fill:#F17889;}
</style>
<path id="Tracé_4304_4_" class="st0" d="M25.25,0C38.92,0,50,11.08,50,24.75S38.92,49.5,25.25,49.5S0.5,38.42,0.5,24.75
	C0.5,11.08,11.58,0,25.25,0C25.25,0,25.25,0,25.25,0z"/>
<path id="Tracé_4311" class="st1" d="M31.25,38.27c2.39-2.82,4.22-6.07,5.39-9.58c1.24-3.48,1.8-7.17,1.65-10.86l1.72-3.05
	c0.09-0.17,0.11-0.37,0.05-0.55c-0.07-0.2-0.22-0.36-0.42-0.43L20.66,7.27c-0.34-0.12-0.7,0.06-0.82,0.39
	c-0.01,0.04-0.02,0.08-0.03,0.13l-0.52,3.47c-2.42,2.82-4.26,6.08-5.43,9.6c-1.24,3.48-1.8,7.17-1.65,10.86l-1.72,3.05
	c-0.09,0.17-0.11,0.37-0.05,0.55c0.06,0.19,0.21,0.33,0.4,0.38l18.98,6.54c0.18,0.06,0.39,0.04,0.55-0.06
	c0.15-0.11,0.26-0.28,0.3-0.46L31.25,38.27z M29.95,37.86l-0.43,2.9l-1.77-0.61l0.11-0.32c0.11-0.35-0.09-0.73-0.44-0.84
	c-0.34-0.1-0.7,0.07-0.82,0.4l-0.11,0.32l-1.9-0.65l0.11-0.32c0.11-0.35-0.09-0.73-0.44-0.84c-0.34-0.1-0.7,0.07-0.82,0.4
	l-0.11,0.32l-1.9-0.65l0.11-0.32c0.13-0.35-0.04-0.73-0.39-0.86c-0.35-0.13-0.73,0.04-0.86,0.39c0,0.01-0.01,0.03-0.01,0.04
	l-0.11,0.32l-1.9-0.65l0.11-0.32c0.11-0.35-0.09-0.73-0.44-0.84c-0.34-0.1-0.7,0.07-0.82,0.4l-0.11,0.32l-1.9-0.65l0.11-0.32
	c0.11-0.35-0.09-0.73-0.44-0.84c-0.34-0.1-0.7,0.07-0.82,0.4l-0.11,0.32l-1.77-0.61l1.44-2.55c0.09-0.15,0.11-0.34,0.07-0.51
	c-0.16-3.53,0.37-7.07,1.56-10.4c1.11-3.35,2.85-6.45,5.13-9.14c0.16-0.11,0.27-0.27,0.3-0.46l0.43-2.9l1.77,0.61l-0.11,0.32
	c-0.11,0.35,0.09,0.73,0.44,0.84c0.34,0.1,0.7-0.07,0.82-0.4l0.11-0.32l1.9,0.65l-0.11,0.32c-0.11,0.35,0.09,0.73,0.44,0.84
	c0.34,0.1,0.7-0.07,0.82-0.4l0.11-0.32l1.9,0.65l-0.11,0.32c-0.13,0.35,0.04,0.73,0.39,0.86c0.35,0.13,0.73-0.04,0.86-0.39
	c0-0.01,0.01-0.03,0.01-0.04l0.11-0.32l1.9,0.65l-0.11,0.32c-0.11,0.35,0.09,0.73,0.44,0.84c0.34,0.1,0.7-0.07,0.82-0.4l0.11-0.32
	l1.9,0.65l-0.11,0.32c-0.11,0.35,0.09,0.73,0.44,0.84c0.34,0.1,0.7-0.07,0.82-0.4l0.11-0.32l1.77,0.61l-1.44,2.55
	c-0.09,0.15-0.11,0.34-0.07,0.51c0.16,3.53-0.37,7.07-1.56,10.4c-1.11,3.35-2.85,6.45-5.13,9.13C30.09,37.5,29.98,37.67,29.95,37.86
	L29.95,37.86z M35.7,17.04c-0.12,0.35-0.5,0.53-0.85,0.42L22.19,13.1c-0.35-0.11-0.55-0.48-0.44-0.84c0.11-0.35,0.48-0.55,0.84-0.44
	c0.01,0,0.03,0.01,0.04,0.01l12.66,4.36C35.63,16.31,35.82,16.69,35.7,17.04z M28.72,37.29c-0.12,0.35-0.5,0.53-0.85,0.42
	l-12.66-4.36c-0.35-0.13-0.52-0.52-0.39-0.86c0.13-0.33,0.49-0.51,0.82-0.4l12.66,4.36C28.66,36.56,28.84,36.94,28.72,37.29z
	 M27.45,29.28c1.87-0.91,2.33-3.59,1.12-6.13c-1.22-2.51-3.65-3.8-5.52-2.89c-1.87,0.91-2.33,3.59-1.12,6.13
	c0.61,1.36,1.73,2.43,3.11,2.98C25.83,29.68,26.7,29.64,27.45,29.28z M23.16,25.82c-0.87-1.79-0.65-3.76,0.5-4.32
	c0.43-0.19,0.92-0.2,1.35-0.03c1.05,0.44,1.89,1.26,2.36,2.3c0.87,1.79,0.65,3.76-0.5,4.32S24.03,27.61,23.16,25.82L23.16,25.82z"/>
</svg>
