<?xml version="1.0" encoding="utf-8"?>
<!-- Generator: Adobe Illustrator 23.0.3, SVG Export Plug-In . SVG Version: 6.00 Build 0)  -->
<svg version="1.1" id="Calque_1" xmlns="http://www.w3.org/2000/svg" xmlns:xlink="http://www.w3.org/1999/xlink" x="0px" y="0px"
	 viewBox="0 0 50 50" style="enable-background:new 0 0 50 50;" xml:space="preserve">
<style type="text/css">
	.st0{fill:#F17889;}
	.st1{fill:#FFFFFF;}
	.st2{fill-rule:evenodd;clip-rule:evenodd;fill:#FFFFFF;}
	.st3{fill-rule:evenodd;clip-rule:evenodd;fill:#F17889;}
</style>
<g id="Tracé_4304_6_">
	<path class="st0" d="M25.25,1C38.35,1,49,11.65,49,24.75S38.35,48.5,25.25,48.5S1.5,37.85,1.5,24.75S12.15,1,25.25,1 M25.25,0
		C11.58,0,0.5,11.08,0.5,24.75S11.58,49.5,25.25,49.5S50,38.42,50,24.75S38.92,0,25.25,0L25.25,0z"/>
</g>
<g>
	<path class="st0" d="M13.22,34.78h24.07v-0.54c-0.01-5.77-4.13-10.74-9.8-11.81l-0.46-0.09L27.35,22c1.12-1.16,1.09-3.01-0.07-4.13
		c-0.55-0.53-1.27-0.82-2.03-0.82c-1.61,0-2.92,1.31-2.92,2.92c0,0.76,0.29,1.48,0.82,2.03l0.32,0.33l-0.46,0.09
		c-5.68,1.07-9.8,6.04-9.8,11.81V34.78z M23.42,19.97c-0.01-1,0.8-1.83,1.81-1.83h0.03c1.01,0,1.83,0.82,1.83,1.83
		s-0.82,1.83-1.83,1.83S23.42,20.98,23.42,19.97z M14.38,33.43c0.39-5.6,5.02-10.01,10.61-10.14v0l0.25,0
		c5.7,0,10.48,4.46,10.87,10.14l0.02,0.27H14.36L14.38,33.43z"/>
	<rect x="10.84" y="36.86" class="st0" width="28.82" height="1.08"/>
	<path class="st0" d="M26.28,13.49c-0.36-0.48-0.54-1.09-0.51-1.69c0.09-0.65,0.28-1.26,0.56-1.83c0.33-0.66,0.53-1.37,0.62-2.11
		c0.04-0.83-0.22-1.65-0.73-2.31L25.4,6.23c0.34,0.44,0.51,1,0.47,1.56c-0.1,0.63-0.28,1.23-0.56,1.79
		c-0.33,0.68-0.54,1.41-0.62,2.16c-0.03,0.86,0.23,1.72,0.74,2.42L26.28,13.49z"/>
	<path class="st0" d="M30.64,16.27c-0.36-0.49-0.54-1.09-0.51-1.7c0.09-0.65,0.28-1.26,0.56-1.83c0.33-0.66,0.53-1.37,0.62-2.11
		c0.04-0.83-0.22-1.64-0.73-2.31L29.76,9c0.34,0.44,0.51,1,0.47,1.56c-0.1,0.64-0.28,1.23-0.56,1.79c-0.33,0.68-0.54,1.4-0.62,2.16
		c-0.03,0.86,0.23,1.72,0.74,2.42L30.64,16.27z"/>
	<path class="st0" d="M21.53,16.27c-0.36-0.49-0.54-1.09-0.51-1.69c0.09-0.65,0.28-1.26,0.56-1.83c0.33-0.66,0.53-1.37,0.62-2.11
		c0.04-0.83-0.22-1.64-0.73-2.31L20.64,9c0.34,0.44,0.51,1,0.47,1.56c-0.1,0.64-0.28,1.23-0.56,1.79c-0.33,0.68-0.54,1.4-0.62,2.16
		c-0.03,0.86,0.23,1.72,0.74,2.42L21.53,16.27z"/>
</g>
</svg>
