<?xml version="1.0" encoding="utf-8"?>
<!-- Generator: Adobe Illustrator 23.0.3, SVG Export Plug-In . SVG Version: 6.00 Build 0)  -->
<svg version="1.1" id="Calque_1" xmlns="http://www.w3.org/2000/svg" xmlns:xlink="http://www.w3.org/1999/xlink" x="0px" y="0px"
	 viewBox="0 0 50 50" style="enable-background:new 0 0 50 50;" xml:space="preserve">
<style type="text/css">
	.st0{fill:#F17889;}
	.st1{fill:#FFFFFF;}
	.st2{fill-rule:evenodd;clip-rule:evenodd;fill:#FFFFFF;}
	.st3{fill-rule:evenodd;clip-rule:evenodd;fill:#F17889;}
</style>
<g id="Tracé_4304_7_">
	<path class="st0" d="M25.25,1C38.35,1,49,11.65,49,24.75S38.35,48.5,25.25,48.5S1.5,37.85,1.5,24.75S12.15,1,25.25,1 M25.25,0
		C11.58,0,0.5,11.08,0.5,24.75S11.58,49.5,25.25,49.5S50,38.42,50,24.75S38.92,0,25.25,0L25.25,0z"/>
</g>
<path class="st0" d="M38.61,24.99c0-0.26-0.21-0.46-0.47-0.46h-1.86l0.95-0.87c0.47-0.51,0.79-1.1,0.94-1.74
	c0.1-0.4,0.25-0.77,0.45-1.12l0.13-0.2c0.24-0.36,0.44-0.73,0.6-1.12c0.34-0.92,0.1-2.7-0.93-3.25c-0.44-0.21-0.93-0.3-1.41-0.26
	c-1.1,0.01-2.16,0.2-3.17,0.57l-0.51,0.18l-0.14-0.52c-0.05-0.19-0.07-0.39-0.04-0.59c0.01-0.13,0.04-0.29,0.08-0.44
	c0.08-0.32,0.11-0.66,0.09-1c-0.06-1.08-0.52-2.07-1.29-2.81c-1.6-1.46-4.1-0.81-5.74,0.19l-0.64,0.39l-0.12-0.74
	c-0.04-0.25-0.18-0.49-0.39-0.64c-0.29-0.18-0.69-0.2-1.04-0.05l-0.2,0.04c-0.79,0.13-1.63,0.02-2.38-0.34
	c-0.56-0.21-1.19-0.35-1.83-0.4c-1.33-0.06-4.41,0.41-4.78,2.34c-0.08,0.54,0,1.11,0.24,1.63c0.09,0.22,0.2,0.43,0.3,0.63
	c0.11,0.23,0.22,0.45,0.3,0.65L16,15.67l-0.67,0.06c-1.08,0.1-2.09,0.64-2.76,1.49c-0.32,0.52-0.32,1.23,0.03,1.8
	c0.06,0.1,0.11,0.18,0.16,0.26c0.09,0.13,0.17,0.29,0.23,0.46l0.03,0.09l0,0.09c0,0.15-0.03,0.3-0.07,0.45
	c-0.03,0.15-0.05,0.27-0.06,0.39c-0.05,0.59,0.09,1.21,0.41,1.73c0.26,0.43,0.55,0.84,0.86,1.23l0.64,0.81h-2.81c0,0,0,0,0,0
	c-0.13,0-0.24,0.05-0.33,0.13c-0.09,0.09-0.14,0.21-0.14,0.33c0.01,4.22,1.93,8.13,5.26,10.72l0.19,0.15v3.38
	c0,0.26,0.21,0.47,0.47,0.47H32.7c0.26,0,0.47-0.21,0.47-0.47v-3.38l0.19-0.15C36.69,33.12,38.6,29.22,38.61,24.99z M33.25,19.76
	c0.27-0.54,0.4-1.17,0.37-1.79l-0.02-0.36l0.33-0.13c0.99-0.4,2.05-0.58,3.09-0.58c0.27-0.02,0.59,0.02,0.89,0.12l0.15,0.05
	l0.09,0.13c0.38,0.54,0.51,1.22,0.37,1.86l-0.09,0.39h-0.08c-0.11,0.21-0.23,0.42-0.36,0.62l-0.1,0.17
	c-0.24,0.4-0.43,0.85-0.56,1.32c-0.09,0.44-0.28,0.89-0.56,1.29l-0.13,0.13l-0.25,0.17c-0.54,0.3-0.98,0.7-1.31,1.17l-0.15,0.22
	h-4.42l0.38-0.82c0.02-0.04,0.04-0.07,0.05-0.11c0.1-0.25,0.17-0.53,0.21-0.8c0.02-0.23,0.08-0.46,0.18-0.68l0.05-0.1
	c0.11-0.15,0.23-0.29,0.37-0.41C32.38,21.04,32.87,20.44,33.25,19.76z M25.3,13.49c0.23-0.19,0.46-0.38,0.69-0.58
	c1.36-1.19,4.01-2.15,5.43-0.85l0.02,0.02c0.58,0.58,0.92,1.36,0.95,2.18c0.01,0.26-0.02,0.51-0.09,0.76
	c-0.02,0.12-0.06,0.28-0.07,0.44c-0.05,0.5,0.03,1.02,0.23,1.5l0.13,0.38c0.21,0.69,0.15,1.41-0.17,2.04
	c-0.35,0.61-0.78,1.12-1.28,1.56c-0.52,0.45-0.82,1.03-0.87,1.64c-0.03,0.22-0.07,0.41-0.13,0.6c-0.22,0.45-0.46,0.81-0.74,1.14
	l-0.15,0.17H27.1l1.87-8.96c0.07-0.27-0.08-0.53-0.33-0.59c-0.12-0.03-0.25-0.02-0.35,0.05c-0.11,0.06-0.18,0.16-0.22,0.28
	l-1.82,8.79l0.08,0.57l-0.57-0.08h-0.69l-0.15-0.22c-0.18-0.27-0.37-0.53-0.56-0.79l-0.12-0.17c-0.75-1.03-1.46-1.99-1.46-3.32
	c-0.02-0.09-0.02-0.25,0-0.41l0.02-0.14l0.21-0.23c0.56-0.48,0.82-1.22,0.69-1.95c-0.03-0.2-0.07-0.37-0.11-0.55
	c-0.07-0.26-0.11-0.55-0.12-0.83c0.01-0.34,0.1-0.63,0.28-0.88C24.2,14.43,24.72,13.92,25.3,13.49z M15.82,12.36l0.01-0.05
	c0.22-1.15,2.61-1.63,3.82-1.58c0.59,0.06,1.14,0.2,1.66,0.4c0.89,0.38,1.85,0.49,2.78,0.34l0.53-0.09l0.05,0.53
	c0.01,0.13,0.04,0.26,0.09,0.39l0.12,0.35l-0.29,0.22c-0.62,0.47-1.18,1.03-1.65,1.65c-0.27,0.38-0.42,0.85-0.43,1.33
	c0,0.35,0.05,0.72,0.14,1.07c0.05,0.21,0.08,0.36,0.1,0.51c0.08,0.55-0.03,0.7-0.5,1.21c-0.36,0.42-0.51,0.91-0.46,1.4
	c0.12,1.35,0.65,2.61,1.53,3.65l0.69,0.82H20.3l0.04-0.54c0.05-0.72-0.11-1.43-0.46-2.06c-0.45-0.62-0.71-1.41-0.73-2.23v-0.2
	c0.05-0.78-0.09-1.53-0.39-2.21c-0.34-0.63-0.92-1.13-1.63-1.37l-0.32-0.11l-0.02-0.34c-0.01-0.26-0.07-0.5-0.17-0.74
	c-0.1-0.26-0.22-0.5-0.33-0.72c-0.13-0.27-0.19-0.38-0.27-0.57C15.86,13.13,15.79,12.74,15.82,12.36z M14.1,22.03
	c-0.22-0.33-0.33-0.72-0.31-1.13c0.02-0.15,0.04-0.25,0.06-0.36c0.07-0.27,0.09-0.54,0.07-0.8c-0.05-0.29-0.18-0.6-0.36-0.87
	l-0.13-0.23c-0.2-0.35-0.21-0.64-0.04-0.92l0.09-0.11c0.7-0.66,1.67-1.02,2.61-0.97c0.75,0.02,1.45,0.41,1.85,1.06l0.04,0.09
	c0.21,0.56,0.29,1.18,0.24,1.78l0,0.15c0.01,0.95,0.3,1.87,0.84,2.66c0.27,0.48,0.39,0.99,0.37,1.49l-0.01,0.25l-0.2,0.14
	c-0.03,0.02-0.06,0.05-0.08,0.08l-0.15,0.19h-3.05l-0.32-0.43c-0.12-0.16-0.24-0.32-0.36-0.47l-0.05-0.06
	C14.81,23.09,14.44,22.57,14.1,22.03z M32.58,35.13L32.58,35.13l-0.16,0.13c-0.12,0.09-0.19,0.23-0.19,0.38v3.14H17.86v-3.16
	c0-0.15-0.07-0.29-0.19-0.38c-3.02-2.17-4.93-5.54-5.23-9.24l-0.05-0.54h25.29L37.64,26C37.34,29.63,35.5,32.95,32.58,35.13z"/>
</svg>
