<svg xmlns="http://www.w3.org/2000/svg" xmlns:xlink="http://www.w3.org/1999/xlink" width="126.378" height="126.378" viewBox="0 0 126.378 126.378">
  <defs>
    <clipPath id="clip-path">
      <circle id="Ellipse_503" data-name="Ellipse 503" cx="63.189" cy="63.189" r="63.189" fill="#fff" stroke="#707070" stroke-width="1"/>
    </clipPath>
    <filter id="Path_2549" x="79.961" y="3.276" width="38.459" height="42.829" filterUnits="userSpaceOnUse">
      <feOffset dy="1" input="SourceAlpha"/>
      <feGaussianBlur stdDeviation="3" result="blur"/>
      <feFlood flood-opacity="0.161"/>
      <feComposite operator="in" in2="blur"/>
      <feComposite in="SourceGraphic"/>
    </filter>
    <clipPath id="clip-path-2">
      <rect id="Rectangle_2243" data-name="Rectangle 2243" width="30.528" height="14.147" fill="#cde7df" stroke="#ffeecb" stroke-width="1"/>
    </clipPath>
    <filter id="Path_2549-2" x="35.347" y="33.073" width="38.459" height="42.829" filterUnits="userSpaceOnUse">
      <feOffset dy="1" input="SourceAlpha"/>
      <feGaussianBlur stdDeviation="3" result="blur-2"/>
      <feFlood flood-opacity="0.161"/>
      <feComposite operator="in" in2="blur-2"/>
      <feComposite in="SourceGraphic"/>
    </filter>
    <clipPath id="clip-path-3">
      <rect id="Rectangle_2243-2" data-name="Rectangle 2243" width="30.528" height="14.147" fill="#cde7df" stroke="#cde7df" stroke-width="1"/>
    </clipPath>
    <filter id="Path_2549-3" x="4.502" y="3.53" width="38.459" height="42.829" filterUnits="userSpaceOnUse">
      <feOffset dy="1" input="SourceAlpha"/>
      <feGaussianBlur stdDeviation="3" result="blur-3"/>
      <feFlood flood-opacity="0.161"/>
      <feComposite operator="in" in2="blur-3"/>
      <feComposite in="SourceGraphic"/>
    </filter>
    <filter id="Path_2549-4" x="19.9" y="77.369" width="38.459" height="42.829" filterUnits="userSpaceOnUse">
      <feOffset dy="1" input="SourceAlpha"/>
      <feGaussianBlur stdDeviation="3" result="blur-4"/>
      <feFlood flood-opacity="0.161"/>
      <feComposite operator="in" in2="blur-4"/>
      <feComposite in="SourceGraphic"/>
    </filter>
  </defs>
  <g id="Groupe_2614" data-name="Groupe 2614" transform="translate(0)">
    <g id="Mask_Group_21" data-name="Mask Group 21" clip-path="url(#clip-path)">
      <path id="Path_2665" data-name="Path 2665" d="M0,0H339.649V604.123H0Z" transform="translate(-74.687 -7.629)" fill="#ffeecb"/>
      <path id="Intersection_3" data-name="Intersection 3" d="M230.175,639.758,220.8,613.077l-17.379,4.759-2.452,21.922h-3.894l6.13-54.875-10.6,1.3-19.47,53.505h-8.148l10.239-28.2-23.364-5.48L139.1,638.676l2.524,1.082h-7.067l6.346-16.224L115.52,613.8A286.04,286.04,0,0,1,102.9,639.757H93.96c11.537-19.9,20.335-42.4,26.32-60.716l-54.66-4.182,10.816,64.9H68.648l-3.461-20.7L33.82,624.4l-.288,4.182,6.561,11.176H35.623l-2.6-4.4-.288,4.4H28.916L30,625.048l-22.93,3.893.793,10.745H.145l-.145-2V514.475l6.851-23.407L0,490.485v-7.67l9.014.754,8.941-30.575L0,444.334v-14.1l4.76,2.285L21.345,374.1,5.7,365.308,0,382.811V370.436l2.092-6.425L0,363.66V359.8l3.317.536,11.177-34.324L0,320.1v-4.174l15.648,6.4L35.7,260.893,0,264.292v-7.764l53.795-5.081-38.507-44.2c-2.631.251-10,.992-15.288,1.465v-3.761l14.062-1.381-1.442-21.56L0,183.614V170.7l11.177-1.389-2.6-16.369c-3.143.493-6.091.96-8.581,1.345V150.34l8-1.217L5.337,132.61,0,133.31v-3.869l4.687-.653L1.082,106.145,0,106.25V98.584L30.143,95.69,25.383,61.8C17.357,63.457,8.815,64.724,0,65.676v-7.7q2.214-.238,4.4-.507l-2.236-30.5L0,26.707V18.924l1.515.185L.145.072H7.861L12.043,56.39c4.471-.721,8.8-1.442,12.98-2.38L28.916.072h3.822l-3.822,53C40.31,50.332,50.261,46.655,57.9,41.679c.5-.361,1.082-.793,1.658-1.153L35.7.072h4.471L50.333,17.306,69.587,5.841,68.649.072h7.787L79.9,20.911A159.583,159.583,0,0,0,93.96.072H102.9Q101.279,3.1,99.439,6.129l28.917,10.023L134.63.072H141.7l20.191,8.437,3.1-8.437h8.148l-.649,1.875,23.58,7.283L197.076.072h3.894l-1.226,10.311,18.46,5.769c2.524-.721,8.87-2.524,16.009-4.471L230.1,0h4.038c1.515,4.254,2.812,8.076,3.75,10.672,5.913-1.659,11.9-3.317,16.369-4.543L251.3.072h14.278l1.3,2.524L275.6.072h27.474c-13.269,3.822-25.527,7.427-32.81,9.519l12.259,25.022,28.627-4.832L307.476.072h7.716L318.8,28.555l29.277-4.976L352.4.072h7.283V30.694L357.737,41.03l1.947.573v3.952l-2.38-.7,2.38,5.141V68.266l-4.9-10.578-10.744,58.553a28.416,28.416,0,0,1,8.365,8.726l7.283-4.382v4.542l-5.481,3.3a28.942,28.942,0,0,1,2.307,11.177c0,.577-.072,1.082-.072,1.658l3.245.608V154.9l-6.995-1.311a28.022,28.022,0,0,1-19.4,13.557l-10.744,33.531,37.137,7.449v3.935l-17.091-3.451c-.432,2.74-1.3,8-2.235,13.7l19.325,2.555v3.874l-19.9-2.679c-.865,5.408-1.731,10.744-2.307,14.206l22.21,4.195v7.8l-23.652-4.42-8.8,40.237,32.45-30.32v5.32l-33.027,30.769L339.854,310l19.83-11.773V307.1l-14.927,8.883,11.1,13.485,3.822-2.26v4.508l-1.442.853,1.442,1.764v6.025L341.441,318l-38.507,22.859,56.75,10.2v13.02l-14.927-2.67-7.211,42.9,22.138,5.269v3.944L336.9,408.069l-4.255,25.454c9.519,1.8,18.739,3.592,27.042,5.182v7.8l-18.028-3.46-5.769,40.165,17.667,3.606,6.13-25.54v16.643l-2.308,9.618,2.308.466v7.853l-24.806-5-3.389,23.58,28.2,5.562v3.843l-28.772-5.656L326.8,547.024l32.883,5.634v7.811l-33.964-5.8-4.038,28.339,38,5.195v7.686l-16.514-2.281-4.182,27.618,17.667-5.119,3.029-16.251v39.831h-7.427l2.812-15.143c-9.231,2.74-24.662,7.211-40.31,11.754l.432,3.389h-7.716l-.144-1.226c-1.442.433-2.812.793-4.254,1.226H275.6l31.584-9.086L310,610.7l-50.91,15.792,6.49,13.268H251.3L236.16,608.895l-11.681,3.173c1.658,4.759,6.129,17.522,9.735,27.69Zm85.017-11.538,19.686-5.7,4.4-29.277-18.749-2.6ZM4.76,598.078l2.019,27.041,57.76-9.879-3.894-23.219Zm245.895,11.249,6.706,13.629,19.254-6.057-3.606-13.989Zm-133.62.866,25.31,9.662,5.769-14.71-26.609-6.273C120.136,602.622,118.621,606.371,117.035,610.193ZM276.686,601.9l3.606,13.917,30.286-9.374,2.092-14.855ZM207.1,584.378l-3.245,29.349,30.574-8.365-11.321-23.075ZM155.974,599.16l21.921,5.12,6.922-19.181-13.845-5.7Zm81.2-17.378,10.095,20.551,66.63-19.037,2.019-13.99-67.5-9.735Zm-113,9.879,27.763,6.489,16.153-21.272-15.576-26.536-15.864-.432A423.353,423.353,0,0,1,124.173,591.661ZM2.668,569.379l1.514,20.984,55.236-5.985-3.245-19.542ZM194.12,582.215l27.258-3.533-9.086-18.46a27.886,27.886,0,0,1-8.87,1.442,14.405,14.405,0,0,1-1.8-.072Zm-20.7-5.986,12.763,5.264,7.861-21.56a25.737,25.737,0,0,1-5.986-2.957ZM223.18,553.37l11.826,24.085,17.883-35.189-21.921-3.75A27.773,27.773,0,0,1,223.18,553.37ZM64.971,570.893l56.535,4.327c3.389-10.745,5.841-19.686,7.283-25.527l-67.639-1.947Zm105.713,2.74,14.422-18.965a25.591,25.591,0,0,1-3.39-3.462l-24.661-.721Zm-168.232-8L55.6,561.086,53.361,547.6,1.01,546.087Zm285.771-4.182,28.194,4.038,1.731-12.115-27.113-4.542Zm-38-5.481,34.18,4.9,2.885-12.764-30.5-5.119Zm-62.014-22.354A15.215,15.215,0,1,0,203.422,518.4,15.219,15.219,0,0,0,188.207,533.612Zm87.831,4.832L319.23,545.8l2.163-14.926-42.617-8Zm-119.054-.722,18.893.505a19.66,19.66,0,0,1-.361-4.615,30.4,30.4,0,0,1,.361-4.471l-16.008-7.716ZM124.534,520.2l-2.091,16.513,30.574.865L156.19,519.7l-24.229-11.682Zm103.622.432a26.986,26.986,0,0,1,3.1,10.167l37.208,6.346,8.581-48.674ZM61.294,534.982l57.327,1.658,1.947-15.576L66.2,509.311ZM2.452,533.324l51.053,1.443,1.875-9.807-48.962-5.12Zm276.974-14.278,42.544,8.077,1.587-11.321L283.68,495.178Zm-245.967-.288,22.643,2.38,8.725-45.574-18.82-9.086ZM7.572,516.089,29.638,518.4,42.473,464.82,24.95,456.382Zm93.526-3.172,20.623,4.471,6.707-11.1L109.535,497.2Zm121.288.144a29.823,29.823,0,0,1,3.75,4.254l51.847-34.035.649-3.75-42.689-8.653Zm-78.095-13.268,36.416,17.522a28.222,28.222,0,0,1,9.158-8.148L183.88,485.3Zm-77.373,5.7L97.2,512.051l8.87-16.585L71.966,479.025ZM284.4,491.212l39.733,20.551,3.172-22.426-41.1-8.292Zm-95.69-39.156,13.556,53.578h1.154a26.842,26.842,0,0,1,7.644,1.082l15.07-47.232-6.851-16.945Zm-69.874,35.406,20.7,10.024,26.393-9.663L160.95,469.94Zm38.146-45.934,12.476,44.852,13.484-4.9-11.465-45.5ZM82.638,470.011l31.584,15.215L129,479.1,116.457,457.1ZM287.5,473.473l40.887,8.292,5.769-40.165L294.5,433.956ZM120.063,455.662l12.475,21.921,27.33-11.393-6.49-23.291Zm118.26,7.86L280,471.959,287,432.515,250.51,425.52ZM55.309,456.816,73.12,465.4l37.208-14.206L67.134,421.554Zm152.8-52.208,19.9,49.179L250.726,382.9ZM11.826,435.9,48.386,453.5l11.97-35.838L21.994,400.065Zm83.142-32.449-4.542,29.42,24.229,16.658,14.71-5.625,11.61-59.2c-10.311-3.606-22.282-7.788-32.738-11.466Zm78.6-11.61,14.278,56.534L217.916,439l-21.7-53.578Zm-39.949,50.4,36.055-13.773L160.3,391.412c-3.894-1.371-9.374-3.317-15.648-5.481Zm166-15.143c9.519,1.8,19.47,3.749,29.2,5.624l12.115-72.038-6.2-1.153ZM68.433,417.8,86.965,430.5l3.966-25.888-17.45-2.091Zm184.457.36c8.581,1.659,24.589,4.687,42.833,8.221l2.668-5.12L262.336,388.6ZM283.1,402.229l17.018,15.5L330.7,358.89l-19.47-3.533ZM23,396.315l38.578,17.667,4.4-13.2L26.464,384.273Zm176.524-12.908,7.139,17.667,44.925-22.859L211.282,367.9ZM74.85,398.911l17.162,2.019,12.62-28.916c-8-2.812-14.783-5.192-18.676-6.562Zm188.784-14.35,16.585,15.07,26.969-45-32.161-5.768Zm-216.114.216L68.433,393.5,78.6,363.073l-20.768-6.418Zm125.039,3.317,23.579-6.706,11.033-14.566-42.689-10.889Zm-50.694-14.134,37.209,13.052-8.8-34.829-21.2-6.346Zm-93.238,2.885,15.432,6.417,20.767-56.534-20.263-6.057Zm58.481-15.071,31.152,10.889,7.139-27.979-29.638-8.8Zm153.882,5.769L254.476,371l6.851-21.272-14.206-4.759ZM39.877,260.46,6.923,361.559l15.5,8.725L54.01,259.163Zm177.1,101.026,20.335,5.192,6.2-22.859-17.235-5.768Zm-24.156-47.376-14.134,8.148,8.941,31.583,21.85,5.553L228.8,311.009ZM59.275,352.977C63.6,354.347,74.2,357.665,79.9,359.4l8.581-25.671-19.974-5.913Zm99.584-19.253L162.32,347.5l20.912,5.336-8-28.555Zm68.793.721,34.829,11.61,11.177-34.829-31.729-12.547Zm-113.284-1.009,33.819,10.023-8.436-33.315Zm164.626,3.172,12.4,2.236,23.94-14.206c1.154-5.48,3.678-16.874,6.418-29.493l-27.4-6.49ZM76.221,277.046l-9.807,42.112,43.627,12.98,28.7-26.176-7.716-30.5Zm74.489,24.3,7.211,28.483,31.44-18.1c-3.75-5.048-14.71-19.614-18.1-24.157Zm169.17,20.48,16.657-9.88-11.466-13.989ZM46.656,313.317l16.08,4.759,6.273-26.969L54.3,286.419Zm127.778-27.979,18.677,24.878,37.208-3.173.721-1.8-38.073-32.378Zm68.938,9.735,31.512,12.475,7.211-22.57-30.286-11.033Zm-25.6-6.13,14.783,12.547,12.331-31.007-9.3-6.779Zm-70.739-2.019,2.667,10.456,19.181-12.908-6.706-8.436Zm148.474-1.875,27.041,6.346c3.894-17.595,8-36.415,9.662-44.2l-23.22-4.327ZM62.231,258.369l-6.922,24.3,14.566,4.686L76.942,257Zm121.793,1.947,30.791,26.1L232.482,261.4l-24.95-18.027Zm-18.748,13.413c2.163,2.74,5.192,6.561,6.778,8.581l17.811-12.042-9.087-7.716Zm87.9-3.317,30.07,10.889,4.615-14.495c-6.057-3.028-16.585-8.509-27.4-14.71ZM132.827,230.174l12.258,48.674L179.049,254.4l-9.375-31.3ZM80.98,256.638l-3.894,16.585,52.929-1.587-4.832-19.181ZM210.85,240.99l35.55,25.744,7.356-18.532c-9.014-5.337-17.667-11.033-23.58-16.153a36.2,36.2,0,0,1-2.884-2.884Zm22.426-16.585a22.132,22.132,0,0,0,1.875,1.8c13.341,11.466,42.328,26.753,55.092,33.243l8.509-26.536-34.613-34.973ZM56.606,199.961l5.986,50.693,17.883-1.731L73.7,197.436Zm122.155,26.969,6.85,22.787,17.306-12.4-7.139-18.532ZM84.3,248.562l39.012-3.677-1.875-7.5L80.98,223.252Zm-67.855-66.99L17.955,204.5l36.416,41.824-8.148-68.433Zm294.929,53.866,22.282,4.182,5.191-31.728-17.522-3.533Zm-124.461-50.4,19.253,49.9,16.514-11.9C212.652,207.82,204.5,182.582,200.1,167.15ZM77.518,196.86,80.4,219l39.877,13.918-10.312-40.887Zm39.877-27.69L131.817,226.5l36.7-7.139L152.08,164.915ZM269.98,192.893l31.439,31.8,13.557-42.473-20.407-10.456Zm-97.854,12.115,5.481,18.171,16.8-8.076-10.239-26.464Zm44.42-12.259c3.533,9.446,7.644,18.749,12.115,25.6L240.7,207.965l-10.672-20.407Zm17.09-6.706,10.095,19.325,14.855-12.836-13.051-11.106ZM159.8,164.05l10.961,36.415,28.051-38.073c-.288-1.082-.577-2.092-.793-3.029ZM53.866,176.957l2.307,19.181,52.856-7.787-4.471-17.6ZM255.485,152.3l-7.427,26.248,13.485,11.466,42.617-36.56a28.017,28.017,0,0,1-2.812-6.778Zm-49.756,6.129c1.875,7.067,5.264,18.749,9.519,30.647l29.132-11.249,7.067-25.022ZM297.67,169.1l18.46,9.446,3.967-12.259a28.559,28.559,0,0,1-11.25-6.778ZM12.4,152.367,15,168.809l29.061-3.533-4.038-17.162C34.325,148.978,22.715,150.782,12.4,152.367Zm39.228,11.971,52.28-6.418-2.019-7.643-54.155-2.524Zm64.538-7.932,32.017-3.894L128.86,121.5Zm197.076-16.874a15.215,15.215,0,1,0,15.215-15.215A15.218,15.218,0,0,0,313.246,139.532Zm-181.861-21.2,20.984,33.676,12.331-1.515.072-37.353ZM110.04,150.853l19.47-53.361L92.878,84.585Zm58.625-38.29-.073,37.5,40.887-4.976-4.327-38.217ZM9.158,132.1l2.6,16.441,27.4-4.182-3.677-15.792Zm54.083-31.873,7.931,44.781,29.782,1.37L88.407,97.853Zm-25.96,2.452,9.591,41.174,20.335.938-7.86-44.2Zm174.145,25.959,1.8,15.936,23-2.812L233.781,125.9Zm26.393-26.825,6.057,39.012,26.1-3.173L263.85,97.78ZM267.672,97.2l6.2,39.949,27.257-3.317a28.042,28.042,0,0,1,8.509-14.926L296.8,92.66ZM4.9,105.785l3.6,22.5,26.032-3.462-4.976-21.416Zm204,.577,2.091,18.46,22.209-2.667-2.956-19.11ZM284.33,38.217l36.559,74.418a1.691,1.691,0,0,0,.577-.144L311.659,33.6Zm34.9-5.912,9.807,79.321c.938.072,1.8.144,2.74.216l15.5-84.224ZM132.9,110.4l32.81-5.12,13.7-49.035L155.9,47.376Zm36.993-5.769,19.975-3.1,9.3-37.786-16.153-6.129Zm24.013-3.677,30-4.687-3.1-24.229-18.1-6.851ZM31.513,78.383l2.379,16.945,52.5-5.047-5.7-21.705ZM229.6,79.753l1.947,15.287L293.2,85.45l-7.932-16.225Zm-117.612,7.5,18.821,6.634,8-21.993-20.191-8.365ZM91.724,80.042l16.658,5.913,6.706-23.94L83.648,48.89ZM222.387,23l6.707,52.929,25.239-4.76c-2.957-8.581-13.917-41.318-17.595-52.136ZM62.087,48.169c-8.726,5.625-20.046,9.807-32.954,12.908l1.875,13.556L79.754,64.9,73.192,39.516A83.73,83.73,0,0,1,62.087,48.169Zm178.4-30.142,17.667,52.5,25.383-4.832L257.793,13.2ZM119.7,59.779l20.407,8.509,12.908-35.478L129.51,24.661Zm64.539-5.769,36.055,13.7-2.957-23.364L192.75,35.406ZM79.466,33.243l2.884,11.1L116.1,58.336l9.806-34.9-30.647-10.6A149.1,149.1,0,0,1,79.466,33.243ZM157.2,43.626l23.508,8.942,9.23-20.335L194.552,16.8,169.819,9.157ZM194.12,31.8l22.715,8.221-2.163-16.946-16.441-5.12ZM52.28,20.623,62.736,38.29a96.513,96.513,0,0,0,10.672-9.807l-3.1-18.6Zm79.682-3.245L155.686,25.6l4.9-13.485L137.73,2.6ZM76.437,639.757ZM40.093,639.757ZM315.192,639.686ZM7.861,639.686Z" transform="translate(-73.781 -7.629)" fill="#fff"/>
    </g>
    <g id="pic-location" transform="translate(84.956 9.519)">
      <rect id="Rectangle_2206" data-name="Rectangle 2206" width="24.829" height="24.829" transform="translate(2.453 1.757)" fill="none"/>
      <g transform="matrix(1, 0, 0, 1, -84.96, -9.52)" filter="url(#Path_2549)">
        <path id="Path_2549-5" data-name="Path 2549" d="M2.926,2.967A10.282,10.282,0,1,1,17.467,17.508L10.2,24.779,2.926,17.508A10.563,10.563,0,0,1,2.926,2.967Z" transform="translate(88.94 11.33)" fill="#65c1ac" fill-rule="evenodd"/>
      </g>
      <g id="Mask_Group_7" data-name="Mask Group 7" clip-path="url(#clip-path-2)">
        <path id="Path_2663" data-name="Path 2663" d="M2.926,2.967A10.282,10.282,0,1,1,17.467,17.508L10.2,24.779,2.926,17.508A10.563,10.563,0,0,1,2.926,2.967Z" transform="translate(3.98 1.806)" fill="#cde7df" fill-rule="evenodd"/>
      </g>
      <path id="Path_2664" data-name="Path 2664" d="M330.414,391.943v4.419h-2.246v-4.419l-3.333-8.323h2.394l1.97,5.819h.184l1.97-5.819h2.375Z" transform="translate(-315.033 -376.546)" fill="#164152"/>
    </g>
    <g id="pic-location-2" data-name="pic-location" transform="translate(40.342 39.317)">
      <rect id="Rectangle_2206-2" data-name="Rectangle 2206" width="24.829" height="24.829" transform="translate(2.453 1.757)" fill="none"/>
      <g transform="matrix(1, 0, 0, 1, -40.34, -39.32)" filter="url(#Path_2549-2)">
        <path id="Path_2549-6" data-name="Path 2549" d="M2.926,2.967A10.282,10.282,0,0,1,17.467,17.508L10.2,24.779,2.926,17.508A10.563,10.563,0,0,1,2.926,2.967Z" transform="translate(44.32 41.12)" fill="#65c1ac" fill-rule="evenodd"/>
      </g>
      <g id="Mask_Group_7-2" data-name="Mask Group 7" transform="translate(0 0)" clip-path="url(#clip-path-3)">
        <path id="Path_2663-2" data-name="Path 2663" d="M2.926,2.967A10.282,10.282,0,1,1,17.467,17.508L10.2,24.779,2.926,17.508A10.563,10.563,0,0,1,2.926,2.967Z" transform="translate(3.98 1.806)" fill="#cde7df" fill-rule="evenodd"/>
      </g>
      <path id="Path_2664-2" data-name="Path 2664" d="M330.414,391.943v4.419h-2.246v-4.419l-3.333-8.323h2.394l1.97,5.819h.184l1.97-5.819h2.375Z" transform="translate(-315.033 -376.546)" fill="#164152"/>
    </g>
    <g id="pic-location-3" data-name="pic-location" transform="translate(9.497 9.774)">
      <rect id="Rectangle_2206-3" data-name="Rectangle 2206" width="24.829" height="24.829" transform="translate(2.453 1.757)" fill="none"/>
      <g transform="matrix(1, 0, 0, 1, -9.5, -9.77)" filter="url(#Path_2549-3)">
        <path id="Path_2549-7" data-name="Path 2549" d="M2.926,2.967A10.282,10.282,0,0,1,17.467,17.508L10.2,24.779,2.926,17.508A10.563,10.563,0,0,1,2.926,2.967Z" transform="translate(13.48 11.58)" fill="#65c1ac" fill-rule="evenodd"/>
      </g>
      <g id="Mask_Group_7-3" data-name="Mask Group 7" clip-path="url(#clip-path-3)">
        <path id="Path_2663-3" data-name="Path 2663" d="M2.926,2.967A10.282,10.282,0,1,1,17.467,17.508L10.2,24.779,2.926,17.508A10.563,10.563,0,0,1,2.926,2.967Z" transform="translate(3.98 1.806)" fill="#cde7df" fill-rule="evenodd"/>
      </g>
      <path id="Path_2664-3" data-name="Path 2664" d="M330.414,391.943v4.419h-2.246v-4.419l-3.333-8.323h2.394l1.97,5.819h.184l1.97-5.819h2.375Z" transform="translate(-315.033 -376.546)" fill="#164152"/>
    </g>
    <g id="pic-location-4" data-name="pic-location" transform="translate(24.895 83.612)">
      <rect id="Rectangle_2206-4" data-name="Rectangle 2206" width="24.829" height="24.829" transform="translate(2.453 1.757)" fill="none"/>
      <g transform="matrix(1, 0, 0, 1, -24.89, -83.61)" filter="url(#Path_2549-4)">
        <path id="Path_2549-8" data-name="Path 2549" d="M2.926,2.967A10.282,10.282,0,0,1,17.467,17.508L10.2,24.779,2.926,17.508A10.563,10.563,0,0,1,2.926,2.967Z" transform="translate(28.88 85.42)" fill="#65c1ac" fill-rule="evenodd"/>
      </g>
      <g id="Mask_Group_7-4" data-name="Mask Group 7" clip-path="url(#clip-path-3)">
        <path id="Path_2663-4" data-name="Path 2663" d="M2.926,2.967A10.282,10.282,0,1,1,17.467,17.508L10.2,24.779,2.926,17.508A10.563,10.563,0,0,1,2.926,2.967Z" transform="translate(3.98 1.806)" fill="#cde7df" fill-rule="evenodd"/>
      </g>
      <path id="Path_2664-4" data-name="Path 2664" d="M330.414,391.943v4.419h-2.246v-4.419l-3.333-8.323h2.394l1.97,5.819h.184l1.97-5.819h2.375Z" transform="translate(-315.033 -376.546)" fill="#164152"/>
    </g>
  </g>
</svg>
