<?xml version="1.0" encoding="utf-8"?>
<!-- Generator: Adobe Illustrator 23.0.4, SVG Export Plug-In . SVG Version: 6.00 Build 0)  -->
<svg version="1.1" id="Calque_1" xmlns="http://www.w3.org/2000/svg" xmlns:xlink="http://www.w3.org/1999/xlink" x="0px" y="0px"
	 viewBox="0 0 50 50" style="enable-background:new 0 0 50 50;" xml:space="preserve">
<style type="text/css">
	.st0{fill:#65C1AC;}
</style>
<g>
	<path class="st0" d="M46.5,28l-8.8-8.8c-0.5-0.5-1.2-0.8-1.9-0.8c0,0,0,0,0,0h-9.9V21h0.7v10.7h2.6V21l6.8,0l0.2,0.2h-1.9
		c-1.1,0-2,0.9-2,2v6.4c0,1.1,0.9,2,2,2h10.1v5.1c0,0.1-0.1,0.1-0.1,0.1h-1c-0.3-1.3-1-2.4-2.1-3.2c-1.2-0.9-2.6-1.3-4.1-1
		c-1.1,0.2-2.1,0.7-2.9,1.4v-2.1h-4v2.6h3.6c-0.6,0.7-1.1,1.5-1.3,2.4h-9.1c-0.3-1.3-1-2.4-2.1-3.2c-1.2-0.9-2.6-1.3-4.1-1
		c-2.3,0.3-4.1,2-4.6,4.2h-1c-0.1,0-0.1-0.1-0.1-0.1v-7.7c1,0.3,1.9,0.4,3,0.4c6.2,0,11.2-5,11.2-11.2S20.5,7,14.3,7
		S3.1,12,3.1,18.2c0,5.1,3.5,9.5,8.2,10.8H8.8v7.7c0,1.5,1.2,2.7,2.7,2.7h1c0.1,0.6,0.4,1.2,0.7,1.7H3.1v2.6h34.7
		c2.6,0,4.8-1.8,5.4-4.3h1c1.5,0,2.7-1.2,2.7-2.7v-7.8C46.9,28.6,46.8,28.2,46.5,28z M7.8,19.5V17h-2c0.6-3.8,3.5-6.7,7.3-7.3v2h2.6
		v-2c3.8,0.6,6.7,3.5,7.3,7.3h-2v2.6h2c-0.6,3.8-3.5,6.7-7.3,7.3v-2H13v2c-3.8-0.6-6.7-3.5-7.3-7.3H7.8z M43.9,29.1l-9.1,0v-5.3h3.9
		L43.9,29.1z M40.8,38.2c0,1.6-1.3,3-3,3c-1.6,0-3-1.3-3-3s1.3-3,3-3C39.4,35.2,40.8,36.5,40.8,38.2z M33.1,41.1H22.6
		c0.3-0.5,0.6-1.1,0.7-1.7h9.1C32.6,40.1,32.8,40.6,33.1,41.1z M20.9,38.2c0,1.6-1.3,3-3,3s-3-1.3-3-3s1.3-3,3-3
		S20.9,36.5,20.9,38.2z"/>
	<rect x="16.6" y="36.9" class="st0" width="2.6" height="2.6"/>
	<rect x="36.5" y="36.9" class="st0" width="2.6" height="2.6"/>
	<rect x="3.1" y="34.7" class="st0" width="4.7" height="2.6"/>
	<rect x="4.5" y="31.9" class="st0" width="3.3" height="2.6"/>
	<rect x="5.2" y="29.1" class="st0" width="2.6" height="2.6"/>
	<path class="st0" d="M14.3,21L14.3,21C14.3,21,14.3,21,14.3,21c1.5,0,2.7-1.2,2.7-2.7c0-1-0.6-1.9-1.4-2.4V12H13v3.9
		c-0.5,0.2-0.8,0.6-1.1,1.1H9.5v2.6H12C12.4,20.4,13.3,21,14.3,21z M14.5,18.2c0,0.1-0.3,0.2-0.2-0.1c0,0,0,0,0.1,0
		C14.4,18.1,14.5,18.2,14.5,18.2z"/>
</g>
</svg>
