<svg xmlns="http://www.w3.org/2000/svg" width="132.153" height="125.087" viewBox="0 0 132.153 125.087">
  <g id="Groupe_2668" data-name="Groupe 2668" transform="translate(-1044 -1339.001)">
    <g id="Groupe_2629" data-name="Groupe 2629" transform="translate(0 47)">
      <path id="Tracé_4261" data-name="Tracé 4261" d="M-17.006,40.467a5.507,5.507,0,0,0-3.316,5.517,12,12,0,0,0,.342,1.795l5.738,13.8a5.528,5.528,0,0,0,.525.952l.049.09,6.894,16.5a1.265,1.265,0,0,0,.1.2l.054.139.067-.006.139.341A23.983,23.983,0,0,0,6.868,93.062a24.531,24.531,0,0,0,18.776-.073l0,0A24.182,24.182,0,0,0,40.125,64.658a26.1,26.1,0,0,0-2.109-5.24c-1.612-3.091-2.884-5.767-3.778-7.947l-.036-.149L30.535,6.87a6.182,6.182,0,0,0-6.581-5.578L-4.749,3.66a6.183,6.183,0,0,0-5.578,6.581L-8.418,33.37l-.549,0a5.843,5.843,0,0,0-2.185.4,5.5,5.5,0,0,0-3.4,5.52l.1.735-.553.012A5.471,5.471,0,0,0-17.006,40.467Zm5.627,19.9-5.767-13.887A2.437,2.437,0,0,1-17.3,45.8a2.652,2.652,0,0,1,.194-1.222A2.446,2.446,0,0,1-15.8,43.23a2.484,2.484,0,0,1,1.854-.044,2.793,2.793,0,0,1,1.216,1.06l1.847,4.321,4.106,9.891a1.612,1.612,0,0,1,.187.741,2.654,2.654,0,0,1-1.524,2.5A2.57,2.57,0,0,1-11.379,60.364ZM28.278,43.048a3.889,3.889,0,0,1,1.379,3.077l.011.111-.01.061a6.451,6.451,0,0,0,.029,1.381c.445,3.238,3.117,8.994,5.469,13.291a18.21,18.21,0,0,1,1.814,4.5A21.184,21.184,0,0,1,24.329,90.339a21.647,21.647,0,0,1-16.43.022A21.008,21.008,0,0,1-3.745,78.784a1.555,1.555,0,0,0-.12-.251l-.062-.181A1.545,1.545,0,0,0-4.013,78l-5.41-12.949.692-.052a5.378,5.378,0,0,0,1.725-.417A5.676,5.676,0,0,0-3.6,59.489l.01-.734.679.279a5.926,5.926,0,0,0,2.762.436l20.816-1.717.111.4c.292,1.038.561,1.9.845,2.71a2.5,2.5,0,0,1-.009,1.555c-.2.495-.811.545-1.1.57a1.459,1.459,0,0,0-1.1.468,1.394,1.394,0,0,0-.381,1.058,1.459,1.459,0,0,0,.469,1.1,1.4,1.4,0,0,0,1.058.381,4.418,4.418,0,0,0,3.377-1.8,4.606,4.606,0,0,0,.352-4.294,42.619,42.619,0,0,1-2.436-13.513v-.007a3.726,3.726,0,0,1,1.629-3.621,3.29,3.29,0,0,1,1.433-.6A3.825,3.825,0,0,1,28.278,43.048ZM-5.245,35.286-7.337,9.994A3.141,3.141,0,0,1-4.5,6.65L24.2,4.282a3.14,3.14,0,0,1,3.345,2.834l2.749,33.321-.823-.465a7.507,7.507,0,0,0-4.958-.8,6.31,6.31,0,0,0-2.673,1.242,6.877,6.877,0,0,0-2.8,5.961,47.512,47.512,0,0,0,.824,7.879l.1.546L-.391,56.48a3.14,3.14,0,0,1-3.344-2.834L-5.208,35.795A1.831,1.831,0,0,0-5.245,35.286Zm-6.227,3.78a3.061,3.061,0,0,1,.155-1.136l.029-.074a2.849,2.849,0,0,1,1.339-1.322,2.54,2.54,0,0,1,1.41-.132l.376.069,1.1,13.345-4.215-10.042A1.921,1.921,0,0,1-11.472,39.066Z" transform="translate(1064.341 1322.167)" fill="#64b7d3"/>
      <path id="Tracé_4262" data-name="Tracé 4262" d="M10.841,48.012,7.461,12.171a1.5,1.5,0,0,0-2.987.282l3.38,35.841a1.5,1.5,0,0,0,2.987-.282Z" transform="translate(1064.341 1322.167)" fill="#64b7d3"/>
      <path id="Tracé_4263" data-name="Tracé 4263" d="M1.806,26.766.491,12.828a1.5,1.5,0,0,0-1.634-1.352A1.5,1.5,0,0,0-2.495,13.11l1.314,13.938A1.5,1.5,0,0,0,.453,28.4,1.5,1.5,0,0,0,1.806,26.766Z" transform="translate(1064.341 1322.167)" fill="#64b7d3"/>
      <path id="Tracé_4264" data-name="Tracé 4264" d="M3.12,40.705l-.657-6.969a1.5,1.5,0,0,0-2.987.281l.658,6.969a1.5,1.5,0,1,0,2.986-.281Z" transform="translate(1064.341 1322.167)" fill="#64b7d3"/>
      <path id="Tracé_4265" data-name="Tracé 4265" d="M21.793,20.362a1.5,1.5,0,0,0,1.352-1.635l-.751-7.964A1.5,1.5,0,0,0,20.76,9.41l-7.965.751A1.5,1.5,0,0,0,11.443,11.8l.751,7.964a1.5,1.5,0,0,0,1.634,1.353ZM15.04,17.985l-.47-4.978,4.978-.469.47,4.978Z" transform="translate(1064.341 1322.167)" fill="#64b7d3"/>
    </g>
    <g id="Groupe_2628" data-name="Groupe 2628" transform="translate(1064.341 1369.168)">
      <path id="Tracé_4266" data-name="Tracé 4266" d="M95.162,48.144l-.246,2.99.5.041.027-.33.219-2.66Z" fill="#64b7d3"/>
      <rect id="Rectangle_2376" data-name="Rectangle 2376" width="3" height="1.008" transform="translate(86.879 50.467) rotate(-85.25)" fill="#64b7d3"/>
      <rect id="Rectangle_2377" data-name="Rectangle 2377" width="3" height="1.008" transform="translate(84.87 50.3) rotate(-85.25)" fill="#64b7d3"/>
      <rect id="Rectangle_2378" data-name="Rectangle 2378" width="3" height="1.007" transform="translate(80.852 49.966) rotate(-85.246)" fill="#64b7d3"/>
      <rect id="Rectangle_2379" data-name="Rectangle 2379" width="3" height="1.008" transform="translate(90.896 50.8) rotate(-85.25)" fill="#64b7d3"/>
      <rect id="Rectangle_2380" data-name="Rectangle 2380" width="3" height="1.007" transform="translate(78.843 49.8) rotate(-85.246)" fill="#64b7d3"/>
      <rect id="Rectangle_2381" data-name="Rectangle 2381" width="3" height="1.008" transform="translate(92.905 50.967) rotate(-85.25)" fill="#64b7d3"/>
      <rect id="Rectangle_2382" data-name="Rectangle 2382" width="3" height="1.008" transform="translate(88.887 50.633) rotate(-85.25)" fill="#64b7d3"/>
      <rect id="Rectangle_2383" data-name="Rectangle 2383" width="3" height="1.007" transform="translate(82.861 50.133) rotate(-85.246)" fill="#64b7d3"/>
      <rect id="Rectangle_2384" data-name="Rectangle 2384" width="3" height="1.008" transform="translate(76.834 49.633) rotate(-85.25)" fill="#64b7d3"/>
      <rect id="Rectangle_2385" data-name="Rectangle 2385" width="3" height="1.008" transform="translate(74.825 49.466) rotate(-85.25)" fill="#64b7d3"/>
      <rect id="Rectangle_2386" data-name="Rectangle 2386" width="3" height="1.008" transform="translate(72.816 49.299) rotate(-85.25)" fill="#64b7d3"/>
      <rect id="Rectangle_2387" data-name="Rectangle 2387" width="7.502" height="0.268" transform="translate(73.698 -9.655) rotate(-85.625)" fill="#64b7d3"/>
      <path id="Tracé_4267" data-name="Tracé 4267" d="M69.29-9.993l.572-7.48h0l-.534-.041-.572,7.48Z" fill="#64b7d3"/>
      <rect id="Rectangle_2388" data-name="Rectangle 2388" width="7.502" height="0.268" transform="translate(73.163 -9.696) rotate(-85.625)" fill="#64b7d3"/>
      <rect id="Rectangle_2389" data-name="Rectangle 2389" width="7.502" height="0.268" transform="translate(69.557 -9.972) rotate(-85.625)" fill="#64b7d3"/>
      <rect id="Rectangle_2390" data-name="Rectangle 2390" width="7.502" height="1.072" transform="matrix(0.076, -0.997, 0.997, 0.076, 71.561, -9.819)" fill="#64b7d3"/>
      <rect id="Rectangle_2391" data-name="Rectangle 2391" width="7.502" height="1.072" transform="translate(67.42 -10.136) rotate(-85.623)" fill="#64b7d3"/>
      <rect id="Rectangle_2392" data-name="Rectangle 2392" width="7.502" height="0.67" transform="translate(77.304 -9.379) rotate(-85.625)" fill="#64b7d3"/>
      <path id="Tracé_4268" data-name="Tracé 4268" d="M77.037-9.4l.572-7.48h0l-.267-.02L76.77-9.42Z" fill="#64b7d3"/>
      <rect id="Rectangle_2393" data-name="Rectangle 2393" width="7.502" height="0.804" transform="translate(75.701 -9.502) rotate(-85.625)" fill="#64b7d3"/>
      <path id="Tracé_4269" data-name="Tracé 4269" d="M74.633-9.584l.572-7.48h0l-.267-.02L74.366-9.6Z" fill="#64b7d3"/>
      <rect id="Rectangle_2394" data-name="Rectangle 2394" width="7.502" height="0.268" transform="translate(75.167 -9.543) rotate(-85.625)" fill="#64b7d3"/>
      <rect id="Rectangle_2395" data-name="Rectangle 2395" width="7.502" height="0.804" transform="translate(70.358 -9.911) rotate(-85.625)" fill="#64b7d3"/>
      <rect id="Rectangle_2396" data-name="Rectangle 2396" width="7.502" height="0.268" transform="translate(83.181 -8.916) rotate(-85.625)" fill="#64b7d3"/>
      <rect id="Rectangle_2397" data-name="Rectangle 2397" width="7.502" height="0.268" transform="translate(82.647 -8.957) rotate(-85.625)" fill="#64b7d3"/>
      <rect id="Rectangle_2398" data-name="Rectangle 2398" width="7.502" height="1.072" transform="translate(81.044 -9.08) rotate(-85.625)" fill="#64b7d3"/>
      <path id="Tracé_4270" data-name="Tracé 4270" d="M80.644-9.11l.572-7.48h0l-.8-.061-.572,7.48Z" fill="#64b7d3"/>
      <rect id="Rectangle_2399" data-name="Rectangle 2399" width="7.502" height="0.268" transform="matrix(0.076, -0.997, 0.997, 0.076, 79.041, -9.233)" fill="#64b7d3"/>
      <rect id="Rectangle_2400" data-name="Rectangle 2400" width="7.502" height="0.804" transform="translate(85.185 -8.763) rotate(-85.625)" fill="#64b7d3"/>
      <rect id="Rectangle_2401" data-name="Rectangle 2401" width="7.502" height="0.268" transform="matrix(0.076, -0.997, 0.997, 0.076, 86.254, -8.681)" fill="#64b7d3"/>
      <rect id="Rectangle_2402" data-name="Rectangle 2402" width="7.502" height="0.67" transform="translate(86.788 -8.64) rotate(-85.625)" fill="#64b7d3"/>
      <rect id="Rectangle_2403" data-name="Rectangle 2403" width="7.502" height="0.268" transform="translate(84.651 -8.804) rotate(-85.625)" fill="#64b7d3"/>
      <rect id="Rectangle_2404" data-name="Rectangle 2404" width="7.502" height="0.268" transform="translate(83.849 -8.865) rotate(-85.625)" fill="#64b7d3"/>
      <rect id="Rectangle_2405" data-name="Rectangle 2405" width="7.502" height="0.536" transform="translate(78.239 -9.294) rotate(-85.625)" fill="#64b7d3"/>
      <path id="Tracé_4271" data-name="Tracé 4271" d="M97.981-7.72l.572-7.48h0l-1.336-.1-.572,7.48Z" fill="#64b7d3"/>
      <rect id="Rectangle_2406" data-name="Rectangle 2406" width="7.502" height="0.804" transform="translate(93.974 -8.027) rotate(-85.625)" fill="#64b7d3"/>
      <rect id="Rectangle_2407" data-name="Rectangle 2407" width="7.502" height="0.268" transform="translate(93.44 -8.068) rotate(-85.625)" fill="#64b7d3"/>
      <path id="Tracé_4272" data-name="Tracé 4272" d="M92.905-8.109l.572-7.48h0l-.267-.02-.572,7.48Z" fill="#64b7d3"/>
      <rect id="Rectangle_2408" data-name="Rectangle 2408" width="7.502" height="0.268" transform="translate(91.436 -8.221) rotate(-85.625)" fill="#64b7d3"/>
      <path id="Tracé_4273" data-name="Tracé 4273" d="M95.31-7.925l.572-7.48h0l-.267-.02-.572,7.48Z" fill="#64b7d3"/>
      <rect id="Rectangle_2409" data-name="Rectangle 2409" width="7.502" height="0.268" transform="translate(91.97 -8.18) rotate(-85.625)" fill="#64b7d3"/>
      <rect id="Rectangle_2410" data-name="Rectangle 2410" width="7.502" height="0.67" transform="translate(95.577 -7.904) rotate(-85.625)" fill="#64b7d3"/>
      <rect id="Rectangle_2411" data-name="Rectangle 2411" width="7.502" height="1.072" transform="translate(89.833 -8.344) rotate(-85.625)" fill="#64b7d3"/>
      <rect id="Rectangle_2412" data-name="Rectangle 2412" width="7.502" height="0.268" transform="translate(89.13 -8.418) rotate(-85.625)" fill="#64b7d3"/>
      <rect id="Rectangle_2413" data-name="Rectangle 2413" width="7.502" height="0.268" transform="translate(88.462 -8.469) rotate(-85.625)" fill="#64b7d3"/>
      <rect id="Rectangle_2414" data-name="Rectangle 2414" width="7.502" height="0.268" transform="translate(87.928 -8.51) rotate(-85.625)" fill="#64b7d3"/>
      <path id="Tracé_4274" data-name="Tracé 4274" d="M108.478,40.494a5.47,5.47,0,0,0-2-.432l-.552-.013.1-.735a5.5,5.5,0,0,0-3.4-5.519,5.8,5.8,0,0,0-2.185-.4l-.548,0L103.4-14.458a6.182,6.182,0,0,0-5.578-6.581L79.6-22.543,78.358-26.82A4.664,4.664,0,0,0,72.683-30L44.96-22.2a4.679,4.679,0,0,0-3.179,5.686L58.136,39.976,57.27,51.349l-.035.149c-.894,2.18-2.167,4.857-3.779,7.948a26.014,26.014,0,0,0-2.108,5.24A24.182,24.182,0,0,0,65.825,93.014l0,0A24.533,24.533,0,0,0,84.6,93.09,23.981,23.981,0,0,0,97.888,79.833l.139-.34.067.005.055-.138a1.24,1.24,0,0,0,.1-.205l6.894-16.5.048-.09a5.542,5.542,0,0,0,.526-.953l5.737-13.8a11.908,11.908,0,0,0,.342-1.8A5.508,5.508,0,0,0,108.478,40.494Zm-8.467-4.065a2.531,2.531,0,0,1,1.41.133,2.851,2.851,0,0,1,1.339,1.321l.029.074a3.023,3.023,0,0,1,.155,1.137,1.933,1.933,0,0,1-.194.707L98.534,49.843l1.1-13.344ZM44.666-17.34a1.631,1.631,0,0,1,1.107-1.974l27.723-7.8A1.645,1.645,0,0,1,75.473-26l.927,3.188-1.561-.128.364,1.2-1.191.36-.506-1.674-.4-.033.549,1.815-.6.18-.62-2.05-.266-.022.647,2.144-.238.072-.676-2.238-.266-.022.7,2.332-.79-.558-.644-1.835-.272-.022.678,1.929-.239.072-.71-2.023-.542-.045.776,2.212-.238.072-.81-2.306-.407-.034.86,2.448-.238.072-.888-2.53c-.089,0-.178-.008-.266-.007l.916,2.609-.239.072-.938-2.674c-.183.009-.364.024-.543.05l.478,1.714-.953.288-.495-1.78c-.128.04-.252.087-.375.136l.871,2.884a3.023,3.023,0,0,1,1.535-.3l8.425.7,3.2.263,17.079,1.41a3.141,3.141,0,0,1,2.835,3.344L96.717,35.314a1.824,1.824,0,0,0-.037.509l-.054.663-.594,7.193-.591,7.167-.027.329h0l-.206,2.5a3.142,3.142,0,0,1-3.345,2.834L71.5,54.828l.1-.546a47.782,47.782,0,0,0,.768-6.531c.022-.45.046-.9.055-1.349a6.766,6.766,0,0,0-1.684-4.874,8.546,8.546,0,0,0-1.113-1.087A6.329,6.329,0,0,0,66.959,39.2,7.52,7.52,0,0,0,62,40l-.822.466.1-1.355.294-3.929,3.953-52.764a3.125,3.125,0,0,1,1.621-2.455l-.041.012-.874-2.89c-.12.052-.235.113-.351.173l.764,2.78-.238.072-.753-2.737c-.075.043-.146.093-.219.139l.734,2.67-.239.072-.715-2.6c-.132.09-.257.187-.382.287l.662,2.407-.6.18L64.316-21.6c-.053.053-.1.108-.154.162l.985,3.053-.238.072-.939-2.91c-.072.086-.141.173-.209.262L65.3-15.882l-.714.215-1.355-4.481c-.058.108-.107.221-.159.333l1.275,4.22-.238.072-1.189-3.936a5.858,5.858,0,0,0-.259.864l.972,3.216-.238.072-.826-2.733c-.008.071-.023.139-.028.21l-.06.788.557,1.843-.238.072-.372-1.228-.052.687.185.613-.237.072L61.028,2l1.535,4.359A.5.5,0,0,1,62.257,7a.5.5,0,0,1-.637-.305l-.781-2.216L58.787,31.433ZM71.313,49.175l.25-2.989.5.041-.25,2.989ZM95.485,78.022a1.508,1.508,0,0,0-.085.358l-.062.181a1.58,1.58,0,0,0-.121.25A21,21,0,0,1,83.573,90.388a21.647,21.647,0,0,1-16.43-.022A21.182,21.182,0,0,1,54.5,65.5,18.141,18.141,0,0,1,56.317,61c2.351-4.3,5.023-10.054,5.468-13.292a6.385,6.385,0,0,0,.029-1.381l-.01-.061.012-.111a3.885,3.885,0,0,1,1.378-3.076,3.83,3.83,0,0,1,3.362-.9,3.309,3.309,0,0,1,1.433.6,3.728,3.728,0,0,1,1.629,3.62v.007a42.63,42.63,0,0,1-2.436,13.514,4.607,4.607,0,0,0,.353,4.293,4.412,4.412,0,0,0,3.376,1.8,1.4,1.4,0,0,0,1.059-.381,1.458,1.458,0,0,0,.469-1.1,1.4,1.4,0,0,0-.382-1.058,1.465,1.465,0,0,0-1.1-.468c-.294-.024-.906-.075-1.1-.569a2.486,2.486,0,0,1-.009-1.556c.284-.81.552-1.671.844-2.709l.112-.4L91.617,59.5a5.935,5.935,0,0,0,2.761-.437l.68-.279.01.735a5.676,5.676,0,0,0,3.41,5.088,5.415,5.415,0,0,0,1.726.416l.691.052Zm13.133-31.517-5.767,13.886a2.57,2.57,0,0,1-3.266,1.337,2.654,2.654,0,0,1-1.524-2.5,1.6,1.6,0,0,1,.186-.741l4.107-9.891,1.847-4.321a2.783,2.783,0,0,1,1.216-1.061,2.487,2.487,0,0,1,1.853.045,2.433,2.433,0,0,1,1.311,1.344,2.622,2.622,0,0,1,.194,1.221A2.4,2.4,0,0,1,108.618,46.505Z" fill="#64b7d3"/>
      <path id="Tracé_4275" data-name="Tracé 4275" d="M95.414,51.175l.027-.33-.027.33Z" fill="#64b7d3"/>
      <rect id="Rectangle_2415" data-name="Rectangle 2415" width="3" height="0.5" transform="translate(71.314 49.175) rotate(-85.236)" fill="#64b7d3"/>
      <rect id="Rectangle_2416" data-name="Rectangle 2416" width="0.249" height="6.966" transform="translate(48.632 -18.137) rotate(-16.812)" fill="#64b7d3"/>
      <rect id="Rectangle_2417" data-name="Rectangle 2417" width="0.746" height="6.966" transform="translate(49.347 -18.353) rotate(-16.812)" fill="#64b7d3"/>
      <rect id="Rectangle_2418" data-name="Rectangle 2418" width="0.995" height="6.966" transform="translate(46.727 -17.561) rotate(-16.812)" fill="#64b7d3"/>
      <rect id="Rectangle_2419" data-name="Rectangle 2419" width="0.995" height="6.966" transform="translate(50.418 -18.676) rotate(-16.812)" fill="#64b7d3"/>
      <rect id="Rectangle_2420" data-name="Rectangle 2420" width="0.498" height="6.966" transform="translate(47.918 -17.921) rotate(-16.812)" fill="#64b7d3"/>
      <rect id="Rectangle_2421" data-name="Rectangle 2421" width="0.622" height="6.966" transform="translate(55.538 -20.223) rotate(-16.812)" fill="#64b7d3"/>
      <rect id="Rectangle_2422" data-name="Rectangle 2422" width="0.746" height="6.966" transform="translate(54.109 -19.792) rotate(-16.812)" fill="#64b7d3"/>
      <rect id="Rectangle_2423" data-name="Rectangle 2423" width="0.249" height="6.966" transform="translate(51.847 -19.108) rotate(-16.812)" fill="#64b7d3"/>
      <path id="Tracé_4276" data-name="Tracé 4276" d="M57.315-13.484,55.3-20.151h0l-.238.072,2.015,6.668Z" fill="#64b7d3"/>
      <path id="Tracé_4277" data-name="Tracé 4277" d="M55.886-13.052,53.871-19.72h0l-.238.072,2.015,6.668Z" fill="#64b7d3"/>
      <path id="Tracé_4278" data-name="Tracé 4278" d="M54.576-12.656l-2.015-6.668h0l-.238.072,2.015,6.668Z" fill="#64b7d3"/>
      <rect id="Rectangle_2424" data-name="Rectangle 2424" width="0.249" height="6.966" transform="translate(52.919 -19.432) rotate(-16.812)" fill="#64b7d3"/>
      <path id="Tracé_4279" data-name="Tracé 4279" d="M62.568-22.334l.661,2.186,1.354,4.482.714-.216-1.536-5.083-.479-1.585Z" fill="#64b7d3"/>
      <path id="Tracé_4280" data-name="Tracé 4280" d="M61.615-22.047l-.238.072,1.189,3.935.826,2.733.238-.072-.972-3.216-1.043-3.452Z" fill="#64b7d3"/>
      <path id="Tracé_4281" data-name="Tracé 4281" d="M62.092-22.19l.825,2.731,1.19,3.937.238-.072-1.275-4.221-.739-2.447Z" fill="#64b7d3"/>
      <path id="Tracé_4282" data-name="Tracé 4282" d="M63.52-22.622l.45,1.4.938,2.91.238-.072-.984-3.053-.4-1.252Z" fill="#64b7d3"/>
      <rect id="Rectangle_2425" data-name="Rectangle 2425" width="0.498" height="6.966" transform="translate(56.376 -20.464) rotate(-16.812)" fill="#64b7d3"/>
      <path id="Tracé_4283" data-name="Tracé 4283" d="M60.782-21.795l1.644,5.439.371,1.228.238-.072-.557-1.843L61.02-21.867Z" fill="#64b7d3"/>
      <path id="Tracé_4284" data-name="Tracé 4284" d="M64-22.766l.319,1.162.585,2.127.6-.18-.662-2.407-.242-.882Z" fill="#64b7d3"/>
      <path id="Tracé_4285" data-name="Tracé 4285" d="M60.544-21.723l-.238.072,2.015,6.668h0l.238-.072-.185-.613-1.829-6.054Z" fill="#64b7d3"/>
      <path id="Tracé_4286" data-name="Tracé 4286" d="M59.344-14.084l-2.015-6.668h0l-.238.072,2.015,6.668Z" fill="#64b7d3"/>
      <rect id="Rectangle_2426" data-name="Rectangle 2426" width="0.746" height="6.966" transform="translate(57.805 -20.895) rotate(-16.812)" fill="#64b7d3"/>
      <rect id="Rectangle_2427" data-name="Rectangle 2427" width="0.995" height="6.966" transform="translate(58.877 -21.219) rotate(-16.812)" fill="#64b7d3"/>
      <path id="Tracé_4287" data-name="Tracé 4287" d="M72.8-25.366l.7,2.321.506,1.674,1.191-.36-.364-1.2L74-25.726Z" fill="#64b7d3"/>
      <path id="Tracé_4288" data-name="Tracé 4288" d="M71.852-25.078l.588,1.945.62,2.05.6-.18-.549-1.815-.659-2.18Z" fill="#64b7d3"/>
      <path id="Tracé_4289" data-name="Tracé 4289" d="M69.233-24.287l.321.915.81,2.306.238-.072-.777-2.212-.355-1.01Z" fill="#64b7d3"/>
      <path id="Tracé_4290" data-name="Tracé 4290" d="M71.376-24.935l.531,1.757.676,2.238.238-.072-.648-2.144-.559-1.851Z" fill="#64b7d3"/>
      <path id="Tracé_4291" data-name="Tracé 4291" d="M66.732-23.531l.108.388.5,1.78.953-.288-.477-1.714-.126-.454Z" fill="#64b7d3"/>
      <path id="Tracé_4292" data-name="Tracé 4292" d="M68.161-23.963l.193.549.939,2.673.238-.072-.916-2.609-.215-.613Z" fill="#64b7d3"/>
      <path id="Tracé_4293" data-name="Tracé 4293" d="M68.638-24.107l.243.693.888,2.529.238-.072-.859-2.448-.272-.774Z" fill="#64b7d3"/>
      <path id="Tracé_4294" data-name="Tracé 4294" d="M70.424-24.647l.487,1.387.644,1.835.79.558-.7-2.332-.5-1.663Z" fill="#64b7d3"/>
      <path id="Tracé_4295" data-name="Tracé 4295" d="M69.947-24.5l.421,1.2.71,2.023.238-.072-.677-1.929-.454-1.293Z" fill="#64b7d3"/>
      <path id="Tracé_4296" data-name="Tracé 4296" d="M66.1-23.36l.134.443.873,2.891.041-.012.2-.06-.008-.025-.872-2.884-.128-.424Z" fill="#64b7d3"/>
      <path id="Tracé_4297" data-name="Tracé 4297" d="M65.742-23.252l-.238.072.152.552.752,2.738.238-.072-.764-2.781-.14-.508Z" fill="#64b7d3"/>
      <path id="Tracé_4298" data-name="Tracé 4298" d="M65.028-23.036l.188.685.716,2.6.238-.072-.734-2.671-.17-.618Z" fill="#64b7d3"/>
      <path id="Tracé_4299" data-name="Tracé 4299" d="M75.836-1.91a3.235,3.235,0,0,0-.25-1.838l-.777.1A3.117,3.117,0,0,1,75-2.147,2.278,2.278,0,0,1,74.074-.57a2.884,2.884,0,0,1-1.647.436L72.9-3.5l-.582-.081L71.833-.133l-.213-.03c-.167-.023-.344-.06-.5-.094l.479-3.42-.593-.084L70.545-.446a2.841,2.841,0,0,1-1.409-.924A2.09,2.09,0,0,1,68.7-3.03a2.764,2.764,0,0,1,.519-1.284l-.751-.348a3.415,3.415,0,0,0-.6,1.527,3.166,3.166,0,0,0,.656,2.491A3.81,3.81,0,0,0,70.4.611l-.11.783.594.083.1-.7c.165.035.341.072.531.1L71.688.9l-.094.677.581.082.1-.736a3.7,3.7,0,0,0,2.163-.57A3.135,3.135,0,0,0,75.836-1.91Z" fill="#64b7d3"/>
      <path id="Tracé_4300" data-name="Tracé 4300" d="M73.492,6.234a.5.5,0,0,0-.538.458L70.7,34.6a.5.5,0,0,0,.458.538l.041,0a.5.5,0,0,0,.5-.46L73.95,6.772A.5.5,0,0,0,73.492,6.234Z" fill="#64b7d3"/>
      <path id="Tracé_4301" data-name="Tracé 4301" d="M58.942-7.477a3.238,3.238,0,0,0-.978-1.577l-.67.4a3.125,3.125,0,0,1,.785,1.3,2.276,2.276,0,0,1-.2,1.816A2.882,2.882,0,0,1,56.55-4.467l-.938-3.262-.565.162.961,3.343-.207.06c-.162.046-.338.084-.491.115l-.955-3.319-.576.166L54.7-3.986a2.844,2.844,0,0,1-1.663-.271A2.089,2.089,0,0,1,51.97-5.6a2.766,2.766,0,0,1-.049-1.384l-.827-.012a3.4,3.4,0,0,0,.072,1.639,3.167,3.167,0,0,0,1.613,2.008A3.808,3.808,0,0,0,55-2.96l.218.76.577-.166-.2-.679c.165-.035.341-.074.525-.127l.174-.05.188.657.565-.162-.2-.714a3.694,3.694,0,0,0,1.743-1.4A3.143,3.143,0,0,0,58.942-7.477Z" fill="#64b7d3"/>
      <path id="Tracé_4302" data-name="Tracé 4302" d="M60.115.916a.5.5,0,0,0-.306.637l1.03,2.925L61.028,2l-.276-.782A.5.5,0,0,0,60.115.916Z" fill="#64b7d3"/>
      <path id="Tracé_4303" data-name="Tracé 4303" d="M61.62,6.694a.5.5,0,0,0,.943-.332L61.028,2l-.189,2.475Z" fill="#64b7d3"/>
    </g>
  </g>
</svg>
