<?xml version="1.0" encoding="utf-8"?>
<!-- Generator: Adobe Illustrator 23.0.4, SVG Export Plug-In . SVG Version: 6.00 Build 0)  -->
<svg version="1.1" id="Calque_1" xmlns="http://www.w3.org/2000/svg" xmlns:xlink="http://www.w3.org/1999/xlink" x="0px" y="0px"
	 viewBox="0 0 66.9 66.9" style="enable-background:new 0 0 66.9 66.9;" xml:space="preserve">
<style type="text/css">
	.st0{fill:#164152;}
</style>
<title>Arachides</title>
<g>
	<g id="picto">
		<path class="st0" d="M54.8,21.2C53.3,13.5,47.6,8,42.1,8.9c-2.2,0.4-4.1,1.7-5.3,3.6c-2.1,3.1-2.9,7.7-2,12.3
			c0.1,0.7,0.3,1.3,0.5,2c0.8,2.9,0.7,6-0.2,8.9c-0.8,2.8-0.9,5.8-0.3,8.7c1.4,7.1,6.3,12.4,11.4,12.4c0.4,0,0.9,0,1.3-0.1
			c2.2-0.4,4.1-1.7,5.3-3.6c2.1-3.1,2.9-7.7,2-12.3c-0.1-0.7-0.3-1.3-0.5-2c-0.8-2.9-0.7-6,0.2-8.9C55.2,27.1,55.4,24.1,54.8,21.2z
			 M52.7,39.3c0.2,0.6,0.3,1.2,0.4,1.8c0.8,4.2,0.1,8.3-1.8,11.1c-1,1.5-2.5,2.6-4.2,2.9c-4.7,0.8-9.5-4.1-10.8-11
			c-0.6-2.7-0.4-5.4,0.3-8c1-3.2,1.1-6.6,0.2-9.8c-0.2-0.6-0.3-1.2-0.4-1.8c-0.8-4.2-0.1-8.3,1.8-11.1c1-1.5,2.5-2.6,4.3-2.9
			c0.3-0.1,0.7-0.1,1-0.1c4.3,0,8.6,4.7,9.8,11.1c0.5,2.7,0.4,5.4-0.3,8C51.9,32.7,51.8,36.1,52.7,39.3L52.7,39.3z"/>
		<path class="st0" d="M30.8,21.2C29.3,13.5,23.6,8,18.1,8.9c-2.2,0.4-4.1,1.7-5.3,3.6c-2.1,3.1-2.9,7.7-2,12.3
			c0.1,0.7,0.3,1.3,0.5,2c0.8,2.9,0.7,6-0.2,8.9c-0.8,2.8-0.9,5.8-0.4,8.7c1.4,7.2,6.3,12.4,11.4,12.4c0.4,0,0.9,0,1.3-0.1
			c2.2-0.4,4.1-1.7,5.3-3.6c2.1-3.1,2.9-7.7,2-12.3c-0.1-0.7-0.3-1.3-0.5-2c-0.8-2.9-0.7-6,0.2-8.9C31.3,27.1,31.4,24.1,30.8,21.2z
			 M28.7,39.3c0.2,0.6,0.3,1.2,0.4,1.8c0.8,4.2,0.1,8.3-1.8,11.1c-1,1.5-2.5,2.6-4.2,2.9c-4.6,0.8-9.5-4.1-10.8-11
			c-0.5-2.7-0.4-5.4,0.3-8c1-3.2,1.1-6.6,0.2-9.8c-0.2-0.6-0.3-1.2-0.4-1.8c-0.8-4.2-0.1-8.3,1.8-11.1c1-1.5,2.5-2.6,4.2-2.9
			c0.3-0.1,0.7-0.1,1-0.1c4.3,0,8.6,4.7,9.8,11.1c0.5,2.7,0.4,5.4-0.3,8C27.9,32.7,27.8,36.1,28.7,39.3L28.7,39.3z"/>
		<path class="st0" d="M27.8,27.4c0.2-1.8,0.5-6.2-1.6-9.7c-0.9-1.4-2.3-2.4-3.9-2.7c-0.8-0.2-1.6-0.5-2.4-1l-0.1-0.1
			c-0.2-0.1-0.3-0.2-0.5-0.4c-0.8-0.6-1.9-0.7-2.6-0.1c-2.6,2-3.6,6.5-2.7,11.3c0.4,2.5,1.5,4.8,3.1,6.8c-0.1,0.1-0.2,0.1-0.4,0.2
			c-2.6,2-3.6,6.5-2.7,11.3c1.1,5.6,4.5,9.6,8.1,9.6c0.3,0,0.6,0,0.9-0.1c3.8-0.8,4.7-5.5,4.9-6.9c0.2-1.8,0.5-6.2-1.6-9.7
			c-0.5-0.9-1.3-1.6-2.3-2.1C26.9,32.7,27.6,28.7,27.8,27.4z M24.8,36.9c1.4,2.7,1.8,5.7,1.4,8.7c-0.1,1.2-0.9,5-3.6,5.6
			s-6.1-3.2-7.1-8.3c-0.8-4.2,0-8.2,2.1-9.8c0.1-0.1,0.1-0.1,0.2-0.1c0.2,0,0.4,0.1,0.5,0.2c0.1,0.1,0.3,0.2,0.4,0.3l0.2,0.1
			c0.9,0.6,1.9,1.1,2.9,1.3C23.1,35.4,24.1,35.7,24.8,36.9L24.8,36.9z M22.6,32.8c-2.9,0.6-6.1-3.2-7.1-8.3c-0.8-4.1,0-8.2,2.1-9.8
			c0.1-0.1,0.2-0.1,0.2-0.1c0.2,0,0.4,0.1,0.5,0.2c0.1,0.1,0.3,0.2,0.4,0.3l0.2,0.1c0.9,0.6,1.8,1,2.9,1.3c1.3,0.4,2.3,0.7,3,2
			c1.4,2.7,1.9,5.7,1.4,8.7C26.1,28.4,25.4,32.2,22.6,32.8z"/>
		<path class="st0" d="M19,18l-1.5-0.7c-0.2,0.6-0.4,1.1-0.5,1.7l1.6,0.3C18.7,18.9,18.8,18.4,19,18z"/>
		<path class="st0" d="M18.4,20.9l-1.6-0.1c0,1.1,0,2.3,0.3,3.4c0.3,1.9,1.1,3.6,2.2,5.1l1.3-1c-1-1.3-1.6-2.9-1.9-4.5
			C18.4,22.8,18.3,21.9,18.4,20.9z"/>
		<path class="st0" d="M19,36.4l-1.5-0.7c-0.2,0.6-0.4,1.1-0.5,1.7l1.6,0.3C18.7,37.3,18.8,36.9,19,36.4z"/>
		<path class="st0" d="M18.4,39.3l-1.6-0.1c0,1.1,0,2.3,0.3,3.4c0.3,1.9,1.1,3.6,2.2,5.1l1.3-1c-1-1.3-1.6-2.9-1.9-4.5
			C18.4,41.2,18.3,40.2,18.4,39.3z"/>
		<path class="st0" d="M40.8,44.4c-0.4,0-0.8,0.3-0.8,0.8c0,1-0.2,1.9-0.6,2.8c-0.1,0.4,0.1,0.8,0.5,1c0.1,0,0.2,0,0.3,0
			c0.3,0,0.6-0.2,0.8-0.5c0.4-1,0.6-2.1,0.7-3.2C41.6,44.7,41.2,44.3,40.8,44.4C40.8,44.3,40.8,44.3,40.8,44.4L40.8,44.4z"/>
		<path class="st0" d="M40.8,26.3L40.8,26.3c-0.4,0-0.8,0.4-0.8,0.8c0,0,0,0,0,0v0.3c0,0.9-0.1,1.7-0.3,2.5c-0.1,0.4,0.1,0.9,0.5,1
			c0.2,0,0.3,0,0.5,0c0.3-0.1,0.5-0.3,0.6-0.6c0.2-1,0.4-1.9,0.3-2.9V27C41.6,26.6,41.2,26.2,40.8,26.3z"/>
		<path class="st0" d="M39.2,36.9c0.4,0,0.8-0.3,0.8-0.8c0,0,0,0,0,0v-0.2c0-0.9,0.1-1.7,0.3-2.6c0.1-0.4-0.1-0.9-0.6-1c0,0,0,0,0,0
			c-0.4-0.1-0.9,0.1-1,0.5c0,0,0,0,0,0c-0.2,1-0.4,2-0.3,3v0.3C38.4,36.5,38.7,36.9,39.2,36.9L39.2,36.9z"/>
		<path class="st0" d="M39.2,20.3c-0.4,0.1-0.7,0.5-0.6,0.9c0.2,0.7,0.4,1.5,0.7,2.2c0.1,0.3,0.2,0.5,0.3,0.9c0.2,0.4,0.6,0.6,1,0.5
			c0.4-0.1,0.7-0.6,0.5-1c-0.1-0.3-0.2-0.6-0.3-0.9c-0.3-0.6-0.5-1.3-0.6-1.9C40,20.5,39.6,20.2,39.2,20.3z"/>
		<path class="st0" d="M40.6,42.9h0.2c0.4-0.1,0.7-0.5,0.6-0.9c0,0,0,0,0,0c-0.1-0.7-0.4-1.4-0.6-2.1c-0.1-0.3-0.2-0.6-0.3-0.9
			c-0.2-0.4-0.6-0.6-1-0.5c-0.4,0.1-0.6,0.5-0.5,1c0.1,0.3,0.2,0.7,0.3,1c0.2,0.6,0.4,1.2,0.6,1.9C39.9,42.6,40.2,42.9,40.6,42.9z"
			/>
		<path class="st0" d="M39.1,18.8L39.1,18.8c0.4,0,0.8-0.3,0.8-0.8c0-1,0.3-1.9,0.6-2.8c0.2-0.4-0.1-0.9-0.5-1
			c-0.4-0.2-0.9,0.1-1,0.5l0,0c-0.4,1-0.6,2.1-0.7,3.2C38.3,18.4,38.6,18.8,39.1,18.8C39.1,18.8,39.1,18.8,39.1,18.8z"/>
		<path class="st0" d="M45.5,27c-0.4,0-0.8,0.4-0.8,0.8c0,0,0,0,0,0v0.4c0,0.9-0.1,1.9-0.3,2.8c-0.1,0.4,0.1,0.9,0.6,1c0,0,0,0,0,0
			h0.2c0.4,0,0.7-0.3,0.8-0.6c0.2-1,0.3-2.1,0.3-3.2v-0.4C46.3,27.4,46,27,45.5,27z"/>
		<path class="st0" d="M45.5,46.9c-0.4,0-0.8,0.3-0.8,0.8c-0.1,1.1-0.3,2.1-0.6,3.1c-0.1,0.4,0.1,0.9,0.5,1c0.1,0,0.2,0,0.2,0
			c0.3,0,0.6-0.2,0.8-0.5c0.4-1.1,0.6-2.3,0.7-3.5C46.3,47.2,46,46.9,45.5,46.9z"/>
		<path class="st0" d="M44,38.5c0.4,0,0.8-0.4,0.8-0.8v-0.3c0-1,0.1-1.9,0.3-2.9c0.1-0.3,0-0.6-0.2-0.8c-0.2-0.2-0.5-0.3-0.8-0.2
			c-0.3,0.1-0.5,0.3-0.5,0.6c-0.2,1.1-0.4,2.2-0.3,3.2v0.3C43.2,38.2,43.5,38.5,44,38.5C44,38.5,44,38.5,44,38.5L44,38.5z"/>
		<path class="st0" d="M45.3,45.1h0.1c0.4-0.1,0.7-0.5,0.7-0.9c-0.2-0.8-0.4-1.6-0.7-2.4c-0.1-0.3-0.2-0.6-0.3-1
			c-0.1-0.3-0.3-0.5-0.6-0.6c-0.4-0.1-0.9,0.1-1,0.5c0,0.2,0,0.3,0,0.5c0.1,0.4,0.2,0.7,0.3,1c0.3,0.7,0.4,1.4,0.6,2.1
			C44.5,44.8,44.9,45.1,45.3,45.1z"/>
		<path class="st0" d="M43.9,18.6L43.9,18.6c0.5,0,0.8-0.3,0.9-0.8c0.1-1.1,0.3-2.1,0.6-3.1c0.1-0.4-0.1-0.9-0.5-1c0,0,0,0,0,0
			c-0.4-0.1-0.9,0.1-1,0.5c-0.4,1.1-0.7,2.3-0.7,3.5c0,0.2,0,0.4,0.2,0.6C43.5,18.5,43.7,18.6,43.9,18.6z"/>
		<path class="st0" d="M44,20.4c-0.4,0.1-0.7,0.5-0.7,0.9c0,0,0,0,0,0c0.1,0.8,0.4,1.7,0.7,2.5c0.1,0.3,0.2,0.6,0.3,0.9
			c0.1,0.3,0.4,0.6,0.8,0.6c0.1,0,0.2,0,0.2,0c0.4-0.1,0.7-0.6,0.5-1c0,0,0,0,0,0c-0.1-0.3-0.2-0.6-0.3-0.9
			c-0.3-0.7-0.5-1.5-0.6-2.2C44.9,20.7,44.5,20.3,44,20.4C44,20.4,44,20.4,44,20.4z"/>
		<path class="st0" d="M50.4,46.6c-0.4,0-0.8,0.3-0.8,0.8c0,1-0.2,1.9-0.5,2.9c-0.1,0.4,0.1,0.8,0.5,1c0.4,0.1,0.9-0.1,1-0.5
			c0.4-1.1,0.6-2.2,0.7-3.3C51.2,47,50.8,46.7,50.4,46.6C50.4,46.6,50.4,46.6,50.4,46.6z"/>
		<path class="st0" d="M48.7,20.5L48.7,20.5c0.4,0,0.8-0.3,0.8-0.8c0.1-1,0.3-1.9,0.6-2.8c0.2-0.4,0-0.9-0.4-1.1
			c-0.4-0.2-0.9,0-1.1,0.4c0,0,0,0.1,0,0.1c-0.4,1.1-0.6,2.2-0.7,3.3C48,20.1,48.3,20.5,48.7,20.5C48.7,20.5,48.7,20.5,48.7,20.5z"
			/>
		<path class="st0" d="M50.4,28.2L50.4,28.2c-0.2,0-0.4,0.1-0.6,0.2c-0.1,0.2-0.2,0.4-0.2,0.6v0.3c0,0.9-0.1,1.7-0.3,2.6
			c-0.1,0.4,0.1,0.9,0.6,1c0,0,0,0,0,0h0.2c0.4,0,0.7-0.3,0.8-0.6c0.2-1,0.3-2,0.3-3V29C51.2,28.6,50.8,28.2,50.4,28.2
			C50.4,28.2,50.4,28.2,50.4,28.2z"/>
		<path class="st0" d="M50.2,45.1c0.4,0,0.8-0.3,0.8-0.8c0-0.1,0-0.1,0-0.2c-0.2-0.7-0.4-1.4-0.6-2.1c-0.1-0.3-0.2-0.6-0.3-0.9
			c-0.1-0.4-0.6-0.7-1-0.5c-0.4,0.1-0.7,0.6-0.5,1c0.1,0.3,0.2,0.7,0.3,1c0.2,0.6,0.4,1.3,0.6,1.9C49.5,44.8,49.8,45.1,50.2,45.1z"
			/>
		<path class="st0" d="M48.8,22.1c-0.4,0.1-0.7,0.5-0.6,0.9c0.1,0.8,0.4,1.5,0.7,2.2c0.1,0.3,0.2,0.5,0.3,0.9
			c0.1,0.3,0.4,0.6,0.8,0.6c0.1,0,0.2,0,0.2,0c0.4-0.1,0.6-0.6,0.5-1c-0.1-0.3-0.2-0.6-0.3-0.9c-0.3-0.6-0.5-1.3-0.6-2
			c0-0.2-0.2-0.4-0.3-0.5C49.2,22.1,49,22,48.8,22.1z"/>
		<path class="st0" d="M48.8,39c0.4,0,0.8-0.4,0.8-0.8c0,0,0,0,0,0v-0.2c0-0.9,0.1-1.8,0.3-2.7c0.2-0.4-0.1-0.9-0.5-1
			c-0.4-0.2-0.9,0.1-1,0.5c0,0.1,0,0.1,0,0.2c-0.2,1-0.3,2-0.3,3.1v0.3C48,38.6,48.4,39,48.8,39L48.8,39z"/>
	</g>
</g>
</svg>
