<?xml version="1.0" encoding="utf-8"?>
<!-- Generator: Adobe Illustrator 23.0.4, SVG Export Plug-In . SVG Version: 6.00 Build 0)  -->
<svg version="1.1" id="Calque_1" xmlns="http://www.w3.org/2000/svg" xmlns:xlink="http://www.w3.org/1999/xlink" x="0px" y="0px"
	 viewBox="0 0 66.9 66.9" style="enable-background:new 0 0 66.9 66.9;" xml:space="preserve">
<style type="text/css">
	.st0{fill:#164152;}
</style>
<title>Celeri</title>
<g>
	<g id="picto">
		<path class="st0" d="M47.2,13.1c-0.2-0.2-0.5-0.4-0.9-0.4V9.8c0-0.5-0.2-1-0.6-1.3c-0.4-0.3-0.9-0.4-1.4-0.3l-2.9,0.6
			c-0.1-0.2-0.3-0.3-0.5-0.4c-0.4-0.2-0.8-0.1-1.2,0.1l-1.5-2c-0.5-0.7-1.6-0.9-2.3-0.3c0,0,0,0,0,0l-2.2,1.7l-2.2-1.7
			c-0.7-0.5-1.8-0.4-2.3,0.3c0,0,0,0,0,0l-1.5,2c-0.4-0.2-0.8-0.3-1.2-0.1c-0.2,0.1-0.4,0.2-0.5,0.4l-2.9-0.6c-0.5-0.1-1,0-1.4,0.3
			C21.2,8.9,21,9.3,21,9.8v2.8c-0.3,0.1-0.6,0.2-0.9,0.4c-0.4,0.4-0.6,1-0.4,1.6l1.1,3.9c0.3,1.1,1.3,1.8,2.4,1.8h3.2
			c0.4,0.5,0.6,1.1,0.6,1.7v29.7c0,2.4,1.3,4.7,3.5,5.9c0.2,1.2,1.3,2,2.4,2h1.7c1.2,0,2.2-0.8,2.4-2c2.1-1.2,3.4-3.4,3.5-5.9V22.2
			c0-0.6,0.2-1.2,0.6-1.7h3.2c1.1,0,2.1-0.8,2.4-1.8l1.1-3.9C47.8,14.1,47.7,13.5,47.2,13.1z M44.7,9.8L44.7,9.8L44.7,9.8v3.1
			l-2.5,0.7l-0.5-3.2L44.7,9.8z M40.8,14.2c-0.6,0.5-0.9,1.2-0.9,1.9v0.6L37,19.1v-1.3l0.3-0.4c0.4-0.5,0.5-1.3,0.1-1.8L36,13.1
			l4.2-3L40.8,14.2z M31.2,16.4C31.2,16.4,31.2,16.4,31.2,16.4l2.4-4.3l2.4,4.2c0,0,0,0,0,0.1l-2.4,3L31.2,16.4z M36.9,7.4L36.9,7.4
			L36.9,7.4l1.5,2l-3.2,2.3l-0.8-1.4V9.2L36.9,7.4z M30.4,7.4L30.4,7.4C30.4,7.4,30.4,7.4,30.4,7.4l2.5,1.8v1.1L32,11.7l-3.2-2.3
			L30.4,7.4z M27.1,10.1l4.2,3l-1.4,2.5c-0.3,0.6-0.3,1.3,0.1,1.8l0.3,0.4v1.3l-2.9-2.3v-0.6c0-0.7-0.3-1.4-0.9-1.9L27.1,10.1z
			 M22.6,9.8C22.6,9.8,22.6,9.8,22.6,9.8l2.9,0.6L25,13.6l-2.5-0.7L22.6,9.8L22.6,9.8z M25.9,18.9h-2.7c-0.4,0-0.8-0.3-0.9-0.7
			l-1.1-3.9 M21.2,14.2L21.2,14.2l4,1.1c0.4,0.1,0.7,0.5,0.7,0.9L21.2,14.2z M38.9,51.9c0,1.5-0.7,3-1.9,4V26.7
			c0-0.4-0.4-0.8-0.8-0.8s-0.8,0.4-0.8,0.8v30.6c0,0.5-0.4,0.9-0.9,0.9h-1.7c-0.5,0-0.9-0.4-0.9-0.9v-3.4c0-0.4-0.4-0.8-0.8-0.8
			c-0.4,0-0.8,0.4-0.8,0.8c0,0,0,0,0,0v2c-1.1-1-1.8-2.4-1.8-3.9V22.2c0-1-0.3-2-1-2.8v-0.6l2.9,2.3v29.4c0,0.4,0.4,0.8,0.8,0.8
			c0.4,0,0.8-0.4,0.8-0.8c0,0,0,0,0,0V19.8l1.1,1.4c0.3,0.3,0.8,0.4,1.1,0.1c0.1,0,0.1-0.1,0.1-0.1l1.2-1.4v3.5
			c0,0.4,0.4,0.8,0.8,0.8s0.8-0.4,0.8-0.8v-2.2l2.9-2.3v0.6c-0.7,0.8-1,1.8-1,2.8L38.9,51.9L38.9,51.9z M46.2,14.3l-1.2,4
			c-0.1,0.4-0.5,0.7-0.9,0.7h-2.7v-2.7c0-0.4,0.3-0.8,0.7-0.9l3.9-1.1L46.2,14.3L46.2,14.3z"/>
	</g>
</g>
</svg>
