<?xml version="1.0" encoding="utf-8"?>
<!-- Generator: Adobe Illustrator 23.0.4, SVG Export Plug-In . SVG Version: 6.00 Build 0)  -->
<svg version="1.1" id="Calque_1" xmlns="http://www.w3.org/2000/svg" xmlns:xlink="http://www.w3.org/1999/xlink" x="0px" y="0px"
	 viewBox="0 0 66.9 66.9" style="enable-background:new 0 0 66.9 66.9;" xml:space="preserve">
<style type="text/css">
	.st0{fill:#164152;}
</style>
<title>Farine-de-ble</title>
<g>
	<g id="picto">
		<path class="st0" d="M33.4,26.8C26.9,27,21.7,32.5,21.9,39c0.2,6.3,5.2,11.3,11.5,11.5c3,0,6-1.2,8.1-3.3c0.3-0.3,0.3-0.8,0-1.2
			c-0.3-0.3-0.8-0.3-1.2,0l0,0c-1.9,1.8-4.4,2.8-7,2.8c-5.6,0-10.2-4.5-10.2-10.1s4.5-10.2,10.1-10.2S43.5,33,43.5,38.6
			c0,0,0,0,0,0.1c0,1.7-0.4,3.5-1.3,5c-0.2,0.4-0.1,0.9,0.3,1.1s0.9,0.1,1.1-0.3c3.2-5.7,1.2-12.9-4.5-16.1
			C37.4,27.4,35.4,26.8,33.4,26.8z"/>
		<path class="st0" d="M31.1,13.4c-0.3-0.3-0.8-0.3-1.1,0s-0.3,0.8,0,1.1c0.2,0.2,0.4,0.2,0.6,0.2c0.2,0,0.4-0.1,0.6-0.2
			c0.2-0.2,0.2-0.4,0.2-0.6C31.3,13.8,31.3,13.6,31.1,13.4z"/>
		<path class="st0" d="M34,15.6c-0.3-0.3-0.8-0.3-1.2,0c-0.1,0.1-0.2,0.3-0.2,0.6c0,0.2,0.1,0.4,0.2,0.6c0.3,0.3,0.8,0.3,1.2,0
			C34.3,16.4,34.3,15.9,34,15.6C34,15.6,34,15.6,34,15.6z"/>
		<path class="st0" d="M36.8,13.4c-0.3-0.3-0.8-0.3-1.2,0c-0.1,0.1-0.2,0.3-0.2,0.6c0,0.2,0.1,0.4,0.2,0.6c0.3,0.3,0.8,0.3,1.2,0
			C37.2,14.2,37.2,13.7,36.8,13.4C36.9,13.4,36.9,13.4,36.8,13.4z"/>
		<path class="st0" d="M39.7,15.6c-0.3-0.3-0.8-0.3-1.2,0c-0.3,0.3-0.3,0.8,0,1.2l0,0c0.3,0.3,0.8,0.3,1.2,0
			C40,16.4,40,15.9,39.7,15.6z"/>
		<path class="st0" d="M28.2,15.6c-0.3-0.3-0.8-0.3-1.1,0c0,0,0,0,0,0c-0.3,0.3-0.3,0.8,0,1.1s0.8,0.3,1.1,0
			C28.6,16.4,28.6,15.9,28.2,15.6C28.2,15.6,28.2,15.6,28.2,15.6z"/>
		<path class="st0" d="M38.2,37.8c0-0.2-0.1-0.3-0.3-0.4l0,0c0.5-0.9,0.6-2,0.3-3c-0.1-0.2-0.1-0.3-0.3-0.4
			c-0.1-0.1-0.3-0.2-0.4-0.3c-0.4-0.1-0.8-0.2-1.1-0.2c-0.2,0-0.3,0-0.5,0c0-1.4-0.8-2.6-2-3.2c-0.3-0.2-0.7-0.2-1,0
			c-1.2,0.6-2,1.9-2,3.2h-0.5c-0.4,0-0.8,0.1-1.1,0.2c-0.2,0.1-0.3,0.1-0.4,0.3c-0.1,0.1-0.2,0.3-0.3,0.4c-0.3,1-0.2,2.1,0.3,3l0,0
			c-0.1,0.1-0.2,0.3-0.3,0.4c-0.3,1-0.2,2,0.3,2.9l0,0c-0.1,0.1-0.2,0.3-0.3,0.4c-0.4,1.3-0.1,2.8,0.9,3.8c0.7,0.7,1.6,1.1,2.5,1.1
			c0.2,0,0.4,0,0.5,0v0.6c0,0.4,0.3,0.8,0.7,0.8c0,0,0,0,0,0c0.4,0,0.8-0.3,0.8-0.8V46c0.2,0,0.4,0,0.5,0c1,0,1.9-0.4,2.6-1.1
			c1-1,1.3-2.4,0.9-3.8c0-0.2-0.1-0.3-0.3-0.4l0,0C38.4,39.8,38.5,38.7,38.2,37.8z M36.3,35c0.2,0,0.3,0,0.5,0
			c0.1,0.7,0,1.3-0.5,1.9c-0.8,0-1.5,0.2-2.2,0.7c-0.1-0.7,0.1-1.5,0.6-2C35.2,35.2,35.7,35,36.3,35z M29.9,35c0.2,0,0.3,0,0.5,0
			c0.6,0,1.1,0.2,1.5,0.7c0.5,0.5,0.8,1.3,0.6,2c-0.6-0.4-1.4-0.7-2.1-0.7C29.9,36.4,29.7,35.7,29.9,35z M29.9,38.4
			c0.2,0,0.3-0.1,0.5,0c0.6,0,1.1,0.2,1.5,0.6c0.5,0.5,0.7,1.3,0.6,2c-0.6-0.5-1.4-0.7-2.1-0.7l0,0C30,39.8,29.8,39.1,29.9,38.4
			L29.9,38.4z M32.5,44.4c-0.2,0-0.3,0-0.5,0c-1.2,0-2.2-1-2.2-2.2c0-0.2,0-0.3,0.1-0.5c0.2,0,0.3-0.1,0.5,0c0.6,0,1.1,0.2,1.5,0.6
			C32.5,42.9,32.7,43.7,32.5,44.4L32.5,44.4z M33.7,34.5c-0.1,0.1-0.2,0.3-0.3,0.4c-0.1-0.1-0.2-0.3-0.3-0.4
			c-0.2-0.2-0.4-0.3-0.6-0.5c0-0.2,0-0.3,0-0.5c0-0.7,0.4-1.4,1-1.9c0.6,0.4,1,1.1,1,1.9c0,0.2,0,0.3,0,0.5
			C34.1,34.2,33.9,34.4,33.7,34.5L33.7,34.5z M36.2,43.8c-0.4,0.4-1,0.6-1.5,0.6c-0.2,0-0.3,0-0.5,0c-0.1-0.7,0.1-1.5,0.6-2
			c0.4-0.4,1-0.6,1.5-0.6c0.2,0,0.3,0,0.5,0C36.9,42.6,36.7,43.3,36.2,43.8L36.2,43.8z M36.3,40.3L36.3,40.3c-0.8,0-1.5,0.2-2.2,0.7
			c-0.1-0.7,0.1-1.4,0.6-2c0.4-0.4,1-0.6,1.5-0.6c0.2,0,0.3,0,0.5,0C36.9,39.1,36.8,39.8,36.3,40.3L36.3,40.3z"/>
		<path class="st0" d="M48.1,50.9c-0.2-0.1-0.4-0.2-0.6-0.2c-0.2,0-0.4,0.1-0.6,0.2c-0.3,0.3-0.3,0.8,0,1.1c0.2,0.2,0.4,0.2,0.6,0.2
			c0.4,0,0.8-0.4,0.8-0.8C48.4,51.2,48.3,51,48.1,50.9L48.1,50.9z"/>
		<path class="st0" d="M51.2,52.2c-0.3-0.3-0.8-0.3-1.1,0c-0.3,0.3-0.3,0.8,0,1.1c0.3,0.3,0.8,0.3,1.1,0c0.2-0.2,0.2-0.4,0.2-0.6
			C51.4,52.6,51.3,52.4,51.2,52.2z"/>
		<path class="st0" d="M45.3,52.2c-0.3-0.3-0.8-0.3-1.1,0c-0.3,0.3-0.3,0.8,0,1.1c0.3,0.3,0.8,0.3,1.1,0c0.2-0.2,0.2-0.4,0.2-0.6
			C45.6,52.6,45.5,52.4,45.3,52.2z"/>
		<path class="st0" d="M57.5,55L57.5,55L57.5,55l-5.8-5.5c-0.1-0.1-0.3-0.3-0.4-0.4c-0.4-0.4-0.9-0.7-1.5-0.8h-0.1v-7.7
			c0-0.4-0.4-0.8-0.8-0.8s-0.8,0.4-0.8,0.8c0,0,0,0,0,0v7.3h-0.4c-1.5,0-2.9,0.6-4,1.6l-5.2,5.2H18.8c-1.3,0-2.4-1.1-2.4-2.4
			c0-1,0.7-2,1.7-2.3h2c0.5,0,0.8-0.5,0.7-0.9c0-0.4-0.3-0.7-0.7-0.7h-1.3V23.7H48v0.7h-1c-0.5,0-0.8,0.4-0.8,0.8S46.5,26,47,26h1
			v1.2h-1c-0.4,0-0.8,0.4-0.8,0.8c0,0.4,0.4,0.8,0.8,0.8l0,0h1V30h-1c-0.4,0-0.8,0.4-0.8,0.8c0,0.4,0.4,0.8,0.8,0.8l0,0h1v1.2h-1
			c-0.4,0-0.8,0.4-0.8,0.8s0.4,0.8,0.8,0.8c0,0,0,0,0,0h1v2.7c0,0.4,0.4,0.8,0.8,0.8s0.8-0.4,0.8-0.8c0,0,0,0,0,0V23.7h0.8
			c0.7,0,1.4-0.6,1.4-1.3c0,0,0,0,0,0v-3.6c0-0.7-0.6-1.3-1.3-1.4c0,0,0,0,0,0h-3.2c-0.3-0.3-0.6-0.5-0.9-0.7l-2.8-2
			c-0.4-0.3-0.9-0.2-1.2,0.2s-0.2,0.9,0.2,1.2l2,1.5H22.2l7.1-5.1c2.5-1.6,5.7-1.6,8.2,0l2.4,1.7c0.4,0.3,0.9,0.2,1.1-0.2
			c0.3-0.4,0.2-0.9-0.2-1.1c0,0,0,0,0,0L38.5,11c-3.1-2-7-2-10.1,0l-7.9,5.7c-0.3,0.2-0.6,0.5-0.9,0.7h-3.2c-0.7,0-1.4,0.6-1.4,1.3
			c0,0,0,0,0,0.1v3.6c0,0.7,0.6,1.4,1.3,1.4c0,0,0,0,0,0h0.8v25.1c-2,0.9-2.9,3.3-2,5.3c0.6,1.4,2.1,2.3,3.6,2.4h38.1
			c0.2,0,0.4-0.1,0.6-0.2c0.2-0.2,0.2-0.4,0.2-0.6C57.7,55.4,57.6,55.2,57.5,55z M16.7,22v-0.7h8.5c0.4,0,0.8-0.4,0.8-0.8
			c0-0.4-0.4-0.8-0.8-0.8h-8.5V19h33.5v0.7h-7.7c-0.4,0-0.8,0.4-0.8,0.8c0,0.4,0.4,0.8,0.8,0.8h7.7V22H16.7z M40.8,54.8l4.1-4.1
			c1.6-1.5,4-1.5,5.6,0l4.3,4.1H40.8z"/>
	</g>
</g>
</svg>
