<?xml version="1.0" encoding="utf-8"?>
<!-- Generator: Adobe Illustrator 23.0.4, SVG Export Plug-In . SVG Version: 6.00 Build 0)  -->
<svg version="1.1" id="Calque_1" xmlns="http://www.w3.org/2000/svg" xmlns:xlink="http://www.w3.org/1999/xlink" x="0px" y="0px"
	 viewBox="0 0 66.9 66.9" style="enable-background:new 0 0 66.9 66.9;" xml:space="preserve">
<style type="text/css">
	.st0{fill:#164152;}
</style>
<title>Farine-de-froment</title>
<g>
	<g id="picto">
		<path class="st0" d="M36.6,35.2c-0.5-0.5-1.3-0.6-1.9-0.3c0-0.1,0-0.2,0-0.4c0-1.8-0.9-3.3-2.1-3.3s-2.1,1.4-2.1,3.3
			c0,0.1,0,0.3,0,0.4c-0.6-0.3-1.4-0.2-1.9,0.3c-0.6,0.6-0.5,1.7,0.2,2.9l-0.2,0.1c-0.9,0.8-0.4,2.6,1.1,4.1
			c0.6,0.6,1.4,1.1,2.2,1.4h0.1v1.6c0,0.3,0.3,0.6,0.6,0.6c0.3,0,0.6-0.3,0.6-0.6l0,0v-1.6h0.1c0.8-0.3,1.6-0.8,2.2-1.4
			c1.5-1.5,2-3.2,1.1-4.1l-0.2-0.1C37.2,37,37.2,35.8,36.6,35.2z M35.7,36.1c0.2,0.2,0.1,0.9-0.6,1.8c-0.2,0-0.4,0.1-0.5,0.1
			c-0.5,0.2-1,0.4-1.4,0.8v-1.4c0.1-0.1,0.1-0.1,0.2-0.2c0.2-0.2,0.5-0.5,0.8-0.7l0,0c0.3-0.2,0.5-0.3,0.8-0.4
			C35.4,36,35.7,36,35.7,36.1z M32.6,32.5c0.4,0,0.9,0.8,0.9,2c0,0.4,0,0.7-0.2,1.1c-0.3,0.2-0.5,0.4-0.7,0.6
			c-0.2-0.2-0.5-0.4-0.7-0.6c-0.1-0.4-0.2-0.7-0.2-1.1C31.7,33.3,32.2,32.5,32.6,32.5z M29.4,36.1c0.1-0.1,0.3-0.1,0.7,0
			c0.3,0.1,0.6,0.2,0.8,0.4l0,0c0.3,0.2,0.5,0.4,0.8,0.7l0.2,0.2v1.4c-0.4-0.3-0.9-0.6-1.4-0.7c-0.2-0.1-0.3-0.1-0.5-0.1
			C29.4,37,29.3,36.2,29.4,36.1z M30.5,41.5c-1.1-1.1-1.3-2.2-1.1-2.3s0.3-0.1,0.7,0c0.6,0.2,1.1,0.6,1.6,1.1l0.2,0.2v2
			C31.4,42.2,31,41.9,30.5,41.5z M34.6,41.5c-0.4,0.4-0.9,0.8-1.4,1v-2l0.2-0.2c0.4-0.5,1-0.9,1.6-1.1c0.4-0.1,0.7-0.1,0.7,0
			S35.8,40.4,34.6,41.5z"/>
		<path class="st0" d="M32.6,26.8c-6.5,0-11.8,5.2-11.9,11.8S26,50.4,32.5,50.5c3.1,0,6-1.2,8.2-3.3c0.3-0.3,0.3-0.8,0-1.2
			s-0.8-0.3-1.2,0c-1.9,1.8-4.4,2.8-7,2.8c-5.6,0-10.2-4.5-10.3-10.1s4.5-10.2,10.1-10.3S42.7,33,42.7,38.6c0,0,0,0,0,0.1
			c0,1.7-0.4,3.5-1.3,5c-0.2,0.4-0.1,0.9,0.3,1.1c0,0,0,0,0,0c0.4,0.2,0.9,0.1,1.1-0.3c1-1.8,1.5-3.7,1.5-5.7
			C44.4,32.2,39.1,26.9,32.6,26.8C32.6,26.8,32.6,26.8,32.6,26.8z"/>
		<path class="st0" d="M30.3,13.4c-0.3-0.3-0.8-0.3-1.1,0s-0.3,0.8,0,1.1c0.3,0.3,0.8,0.3,1.1,0c0.1-0.2,0.2-0.4,0.2-0.6
			C30.5,13.8,30.4,13.6,30.3,13.4z"/>
		<path class="st0" d="M33.2,15.6c-0.2-0.2-0.4-0.2-0.6-0.2c-0.4,0-0.8,0.4-0.8,0.8c0,0.2,0.1,0.4,0.2,0.6c0.3,0.3,0.8,0.3,1.1,0
			C33.5,16.4,33.5,15.9,33.2,15.6C33.2,15.6,33.2,15.6,33.2,15.6z"/>
		<path class="st0" d="M36,13.4c-0.3-0.3-0.8-0.3-1.1,0c0,0,0,0,0,0c-0.2,0.1-0.2,0.4-0.2,0.6c0,0.2,0.1,0.4,0.2,0.6
			c0.3,0.3,0.8,0.3,1.1,0C36.3,14.2,36.3,13.7,36,13.4C36,13.4,36,13.4,36,13.4z"/>
		<path class="st0" d="M38.9,15.6c-0.2-0.2-0.4-0.2-0.6-0.2c-0.2,0-0.4,0.1-0.6,0.2c-0.3,0.3-0.3,0.8,0,1.1c0.2,0.1,0.4,0.2,0.6,0.2
			c0.2,0,0.4-0.1,0.6-0.2C39.2,16.4,39.2,15.9,38.9,15.6C38.9,15.6,38.9,15.6,38.9,15.6z"/>
		<path class="st0" d="M27.4,15.6c-0.3-0.3-0.8-0.3-1.1,0s-0.3,0.8,0,1.1c0.3,0.3,0.8,0.3,1.1,0C27.7,16.4,27.7,15.9,27.4,15.6
			C27.4,15.6,27.4,15.6,27.4,15.6z"/>
		<path class="st0" d="M47.3,50.9c-0.3-0.3-0.8-0.3-1.2,0c-0.3,0.3-0.3,0.8,0,1.2c0.3,0.3,0.8,0.3,1.2,0
			C47.6,51.7,47.6,51.2,47.3,50.9C47.3,50.9,47.3,50.9,47.3,50.9z"/>
		<path class="st0" d="M50.3,52.2c-0.3-0.3-0.8-0.3-1.2,0c-0.3,0.3-0.3,0.8,0,1.2c0.3,0.3,0.8,0.3,1.2,0c0,0,0,0,0,0
			C50.7,53,50.7,52.5,50.3,52.2z"/>
		<path class="st0" d="M44.5,52.2c-0.3-0.3-0.8-0.3-1.2,0c-0.3,0.3-0.3,0.8,0,1.2c0.3,0.3,0.8,0.3,1.2,0c0,0,0,0,0,0
			C44.8,53.1,44.8,52.5,44.5,52.2C44.5,52.2,44.5,52.2,44.5,52.2z"/>
		<path class="st0" d="M56.6,55L56.6,55L56.6,55l-5.8-5.5c-0.1-0.1-0.3-0.3-0.4-0.4c-0.4-0.4-0.9-0.7-1.4-0.8h-0.1v-7.7
			c0-0.5-0.5-0.8-0.9-0.7c-0.4,0-0.7,0.3-0.7,0.7v7.3h-0.3c-1.5,0-2.9,0.6-4,1.6l-5.2,5.2H18c-1.3,0-2.4-1.1-2.4-2.4
			c0-1,0.7-2,1.7-2.3h2c0.5,0,0.8-0.5,0.7-0.9c0-0.4-0.3-0.7-0.7-0.7H18V23.7h29.2v0.7h-1.1c-0.4,0-0.8,0.4-0.8,0.8
			c0,0.4,0.4,0.8,0.8,0.8l0,0h1.1v1.2h-1.1c-0.4,0-0.8,0.4-0.8,0.8c0,0.4,0.4,0.8,0.8,0.8l0,0h1.1V30h-1.1c-0.4,0-0.8,0.4-0.8,0.8
			c0,0.4,0.4,0.8,0.8,0.8l0,0h1.1v1.2h-1.1c-0.4,0-0.8,0.4-0.8,0.8s0.4,0.8,0.8,0.8c0,0,0,0,0,0h1.1v2.7c0,0.5,0.5,0.8,0.9,0.7
			c0.4,0,0.7-0.3,0.7-0.7V23.7h0.8c0.8,0,1.4-0.6,1.4-1.3c0,0,0,0,0,0v-3.6c0-0.7-0.6-1.4-1.3-1.4h-3.3c-0.3-0.3-0.6-0.5-0.9-0.7
			l-2.8-2c-0.4-0.3-0.9-0.2-1.2,0.2s-0.2,0.9,0.2,1.2l0,0l2,1.5H21.4l7.1-5.1c2.5-1.6,5.7-1.6,8.2,0L39,14c0.4,0.3,0.9,0.2,1.2-0.2
			s0.2-0.9-0.2-1.2L37.6,11c-3.1-2-7-2-10.1,0l-7.9,5.7c-0.3,0.2-0.6,0.5-0.9,0.7h-3.2c-0.7,0-1.4,0.6-1.4,1.3c0,0,0,0,0,0v3.6
			c0,0.8,0.6,1.4,1.4,1.4l0,0h0.8v25.1c-2,0.9-2.9,3.3-2,5.3c0.6,1.4,2.1,2.4,3.7,2.4h38.1c0.2,0,0.4-0.1,0.6-0.2
			c0.1-0.2,0.2-0.4,0.2-0.6C56.9,55.4,56.8,55.2,56.6,55z M15.8,22v-0.7h8.5c0.4,0,0.8-0.4,0.8-0.8c0-0.4-0.4-0.8-0.8-0.8h-8.5V19
			h33.5v0.7h-7.7c-0.4,0-0.8,0.4-0.8,0.8c0,0.4,0.4,0.8,0.8,0.8h7.7V22H15.8z M40,54.8l4.1-4.1c1.6-1.5,4-1.5,5.6,0l4.3,4.1H40z"/>
	</g>
</g>
</svg>
