<?xml version="1.0" encoding="utf-8"?>
<!-- Generator: Adobe Illustrator 23.0.4, SVG Export Plug-In . SVG Version: 6.00 Build 0)  -->
<svg version="1.1" id="Calque_1" xmlns="http://www.w3.org/2000/svg" xmlns:xlink="http://www.w3.org/1999/xlink" x="0px" y="0px"
	 viewBox="0 0 66.9 66.9" style="enable-background:new 0 0 66.9 66.9;" xml:space="preserve">
<style type="text/css">
	.st0{fill:#164152;}
</style>
<title>Flocons-davoine</title>
<g>
	<g id="picto">
		<path class="st0" d="M25.9,50.1c0,0.5-0.4,0.9-0.9,0.9h-0.3c-0.5,0-0.9-0.4-0.9-0.9c0-0.5,0.4-0.9,0.9-0.9h0.3
			C25.4,49.2,25.9,49.6,25.9,50.1L25.9,50.1z M24.9,41.8h-0.3c-0.5,0-0.9,0.4-0.9,0.9c0,0.5,0.4,0.9,0.9,0.9h0.3
			c0.5,0,0.9-0.4,0.9-0.9C25.9,42.3,25.4,41.8,24.9,41.8z M18.6,47.4h0.3c0.5,0,0.9-0.4,0.9-0.9c0-0.5-0.4-0.9-0.9-0.9h-0.3
			c-0.5,0-0.9,0.4-0.9,0.9C17.7,47,18.1,47.4,18.6,47.4z M20.4,43.7h0.3c0.5,0,0.9-0.4,0.9-0.9c0-0.5-0.4-0.9-0.9-0.9h-0.3
			c-0.5,0-0.9,0.4-0.9,0.9C19.5,43.3,19.9,43.7,20.4,43.7z M18.9,38.2h-0.3c-0.5,0-0.9,0.4-0.9,0.9c0,0.5,0.4,0.9,0.9,0.9h0.3
			c0.5,0,0.9-0.4,0.9-0.9C19.9,38.6,19.4,38.2,18.9,38.2z M27.8,55.3c0,0.5-0.4,0.9-0.9,0.9H11.6c-0.5,0-0.9-0.4-0.9-0.9V31.9
			c0,0,0-0.1,0-0.1l2.7-22.4c0.1-0.5,0.5-0.8,0.9-0.8h27.4c0.5,0,0.9,0.4,0.9,0.8l0.7,6.1c0.1,0.5-0.3,1-0.8,1s-1-0.3-1-0.8l0,0
			l-0.6-5.3h-9.2v9.7c0,0.3-0.2,0.6-0.4,0.8c-0.3,0.2-0.6,0.2-0.9,0l-3-1.4l-3,1.4c-0.3,0.1-0.6,0.1-0.9,0c-0.3-0.2-0.4-0.5-0.4-0.8
			v-9.7h-7.9l-2.6,21.5v22.4h14.3C27.4,54.4,27.8,54.8,27.8,55.3z M24.8,18.7l2.1-1c0.3-0.1,0.6-0.1,0.8,0l2.1,1v-8.2h-4.9
			L24.8,18.7z M45.4,27c-0.3,0.4-0.1,1,0.3,1.3c0,0,0,0,0,0c0.2,0.1,0.3,0.1,0.5,0.1c0.3,0,0.6-0.2,0.8-0.4c1.3-2.1,0.2-3.8-0.7-5.1
			s-1.3-2.1-0.7-3.1c0.3-0.4,0.1-1-0.3-1.3s-1-0.1-1.3,0.3c-1.3,2.1-0.2,3.8,0.7,5.1S46.1,26,45.4,27z M41.8,28.3
			c0.2,0.1,0.3,0.1,0.5,0.1c0.3,0,0.6-0.2,0.8-0.4c1.3-2.1,0.2-3.8-0.7-5.1s-1.3-2.1-0.7-3.1c0.3-0.4,0.2-1-0.2-1.3
			c-0.4-0.3-1-0.2-1.3,0.2c0,0,0,0,0,0.1c-1.3,2.1-0.2,3.8,0.7,5.1s1.3,2.1,0.7,3.1C41.2,27.5,41.4,28,41.8,28.3L41.8,28.3z
			 M48.5,34.9h-0.3c-0.5,0-0.9,0.4-0.9,0.9c0,0.5,0.4,0.9,0.9,0.9h0.3c0.5,0,0.9-0.4,0.9-0.9C49.4,35.3,49,34.9,48.5,34.9z
			 M43.7,33.8h-0.3c-0.5,0-0.9,0.4-0.9,0.9c0,0.5,0.4,0.9,0.9,0.9h0.3c0.5,0,0.9-0.4,0.9-0.9C44.7,34.2,44.2,33.8,43.7,33.8z
			 M53.3,45.6c-0.5,0-0.9,0.4-0.9,0.9c0,4-3.3,7.3-7.3,7.3c-0.5,0-0.9,0.4-0.9,0.9c0,0.5,0.4,0.9,0.9,0.9l0,0c5.1,0,9.2-4.1,9.2-9.2
			C54.2,46,53.8,45.6,53.3,45.6L53.3,45.6z M59,39.3v7.6c0,7.3-5.9,13.2-13.2,13.2c0,0,0,0,0,0h-4.5c-7.3,0-13.1-5.9-13.1-13.2v-7.6
			c0-0.5,0.4-0.9,0.9-0.9h1.2c1.6-4.7,7-8.1,13.2-8.1s11.6,3.4,13.2,8.1H58C58.5,38.3,59,38.7,59,39.3C59,39.3,59,39.3,59,39.3z
			 M32.4,38.4h22.4c-1.6-3.7-6.1-6.2-11.2-6.2S34,34.7,32.4,38.4L32.4,38.4z M57.1,40.3h-27v6.7c0,6.2,5,11.3,11.2,11.3h4.5
			c6.2,0,11.3-5.1,11.3-11.3L57.1,40.3L57.1,40.3z M20.4,51.1h0.3c0.5,0,0.9-0.4,0.9-0.9c0-0.5-0.4-0.9-0.9-0.9h-0.3
			c-0.5,0-0.9,0.4-0.9,0.9C19.5,50.6,19.9,51.1,20.4,51.1z M38.9,34.9h-0.3c-0.5,0-0.9,0.4-0.9,0.9c0,0.5,0.4,0.9,0.9,0.9l0,0h0.3
			c0.5,0,0.9-0.4,0.9-0.9C39.9,35.3,39.5,34.9,38.9,34.9z M22.5,47.4c0.5,0,0.9-0.4,0.9-0.9c0-0.5-0.4-0.9-0.9-0.9h-0.3
			c-0.5,0-0.9,0.4-0.9,0.9c0,0.5,0.4,0.9,0.9,0.9l0,0H22.5z M16.5,41.8h-0.3c-0.5,0-0.9,0.4-0.9,0.9c0,0.5,0.4,0.9,0.9,0.9l0,0h0.3
			c0.5,0,0.9-0.4,0.9-0.9C17.4,42.3,17,41.8,16.5,41.8z M16.5,49.2h-0.3c-0.5,0-0.9,0.4-0.9,0.9c0,0.5,0.4,0.9,0.9,0.9l0,0h0.3
			c0.5,0,0.9-0.4,0.9-0.9C17.4,49.6,17,49.2,16.5,49.2z"/>
	</g>
</g>
</svg>
