<?xml version="1.0" encoding="utf-8"?>
<!-- Generator: Adobe Illustrator 23.0.4, SVG Export Plug-In . SVG Version: 6.00 Build 0)  -->
<svg version="1.1" id="Calque_1" xmlns="http://www.w3.org/2000/svg" xmlns:xlink="http://www.w3.org/1999/xlink" x="0px" y="0px"
	 viewBox="0 0 66.9 66.9" style="enable-background:new 0 0 66.9 66.9;" xml:space="preserve">
<style type="text/css">
	.st0{fill:#164152;}
</style>
<title>Fruit-a-coque</title>
<g>
	<g id="picto">
		<path class="st0" d="M38.5,12.4c-1.3-0.7-5.3-3.2-5.3-3.2c-0.3-0.2-0.8-0.2-1.1,0c0,0-4.1,2.5-5.3,3.2C16.1,18.4,11,26.8,11,38.2
			c0,15.8,14.3,22.7,21.6,22.7s21.6-6.8,21.6-22.7C54.2,26.9,49.1,18.4,38.5,12.4z M32.6,58.8c-6.6,0-19.5-6.2-19.5-20.5
			c0-10.5,4.8-18.4,14.6-24c1-0.6,3.7-2.2,4.8-2.9c1.2,0.7,3.8,2.4,4.8,2.9c9.9,5.6,14.7,13.5,14.7,24
			C52.1,52.8,38.3,58.8,32.6,58.8z"/>
		<path class="st0" d="M49.9,35c0-2.9-1.7-5.6-4.4-6.8c0-0.2,0-0.5,0-0.8c0-4.2-3.4-7.6-7.5-7.6c0,0,0,0,0,0c-0.4,0-0.7,0-1.1,0.1
			c-0.5,0.1-1-0.1-1.2-0.5c-1-1.6-2.2-3.4-2.2-3.4c-0.4-0.5-1.1-0.6-1.5-0.3c-0.1,0.1-0.2,0.2-0.3,0.3c0,0.1-1.2,1.8-2.1,3.4
			c-0.3,0.4-0.8,0.7-1.3,0.5c-0.4-0.1-0.8-0.1-1.2-0.1c-4.2,0-7.6,3.4-7.6,7.6c0,0.2,0,0.5,0,0.8c-3.8,1.7-5.4,6.2-3.7,9.9
			c0.4,0.8,0.9,1.6,1.6,2.2c-0.5,3.4,1.3,6.6,4.4,8c0.7,3.5,3.8,6.1,7.4,6.1c1.1,0,2.2-0.3,3.2-0.8c1,0.5,2.1,0.8,3.2,0.8
			c3.6,0,6.7-2.5,7.4-6.1c3.1-1.4,4.9-4.6,4.4-8C49.1,38.9,49.9,37,49.9,35z M31.5,51.7c-0.7,0.3-1.4,0.5-2.2,0.5
			c-2.8,0-5.1-2.1-5.4-4.8c0-0.1-0.1-0.2-0.1-0.3c0-0.1,0.1-0.2,0.1-0.3c0-0.6,0.1-1.2,0.3-1.8c0.3-0.5,0.1-1.2-0.4-1.5
			c-0.5-0.3-1.2-0.1-1.5,0.4c-0.1,0.1-0.1,0.2-0.1,0.4c-0.2,0.5-0.3,1-0.3,1.5c-1.4-1-2.2-2.6-2.2-4.4c0-0.4,0.1-0.8,0.2-1.3
			c0.1-0.4,0-0.8-0.4-1.1c-2.3-1.9-2.6-5.2-0.8-7.5c0.4-0.5,1-1,1.6-1.3c1.2,2.8,3.9,4.7,7,4.7c0.6,0,1.1-0.5,1.1-1.1
			c0-0.6-0.5-1.1-1.1-1.1c-2.5,0-4.7-1.8-5.3-4.2l0,0c-0.1-0.4-0.1-0.8-0.1-1.2c0-3,2.4-5.4,5.4-5.4c0.3,0,0.5,0,0.8,0
			c1.4,0.3,2.8-0.4,3.5-1.6L31.5,51.7L31.5,51.7z M45.8,39.1c-0.3,0.3-0.5,0.7-0.4,1.1c0.1,0.4,0.2,0.8,0.2,1.3
			c0,1.7-0.8,3.4-2.2,4.4c-0.4-2.8-2.3-5.1-5-6.1c-0.5-0.3-1.2-0.1-1.5,0.4c-0.3,0.5-0.1,1.2,0.4,1.5c0.1,0.1,0.2,0.1,0.4,0.1
			c2.1,0.8,3.6,2.7,3.6,5l-0.1,0.7c-0.3,2.7-2.6,4.8-5.3,4.8c-0.7,0-1.5-0.2-2.2-0.5V20.3l0.2,0.2c0.7,1.2,2.1,1.7,3.5,1.5
			c0.2,0,0.5,0,0.7,0c3,0,5.4,2.4,5.4,5.4c0,0.4-0.1,0.8-0.1,1.2c-0.2,0.9-0.6,1.7-1.3,2.4c-0.4,0.4-0.4,1.1,0.1,1.5
			c0.2,0.2,0.5,0.3,0.7,0.3c0.3,0,0.6-0.1,0.8-0.4c0.6-0.6,1.1-1.4,1.4-2.2c2.6,1.4,3.5,4.7,2.1,7.2C46.8,38.1,46.3,38.7,45.8,39.1
			L45.8,39.1z"/>
	</g>
</g>
</svg>
