<svg xmlns="http://www.w3.org/2000/svg" width="57.783" height="57.783" viewBox="0 0 57.783 57.783">
  <g id="Groupe_2647" data-name="Groupe 2647" transform="translate(367.092 262.88)">
    <path id="Tracé_4332" data-name="Tracé 4332" d="M-338.2-262.88a28.892,28.892,0,0,0-28.892,28.892A28.891,28.891,0,0,0-338.2-205.1a28.892,28.892,0,0,0,28.892-28.892A28.892,28.892,0,0,0-338.2-262.88Zm-15.18,45.773c-1.047-3.25-4.132-13.718,2.81-21.155,9.31-9.971,18.455-5.674,29.143-12.781C-323.522-232.257-331.9-215.013-353.381-217.107Z" transform="translate(0)" fill="#fff" fill-rule="evenodd"/>
    <path id="Tracé_4333" data-name="Tracé 4333" d="M-151.387,9.428c-10.72,14.276-24.237,10.581-24.993,26.2C-171.642,20.529-160.139,26.533-151.387,9.428Z" transform="translate(-177.001 -252.73)" fill="#fff" fill-rule="evenodd"/>
  </g>
</svg>
