<svg xmlns="http://www.w3.org/2000/svg" width="22.113" height="24.161" viewBox="0 0 22.113 24.161">
  <g id="Group_2814" data-name="Group 2814" transform="translate(-87.6 -72)">
    <path id="Path_4453" data-name="Path 4453" d="M205.919,223.753a.922.922,0,0,0,.919-.919v-7.715a.919.919,0,1,0-1.838,0v7.715A.922.922,0,0,0,205.919,223.753Z" transform="translate(-109.692 -132.864)" fill="#164152"/>
    <path id="Path_4454" data-name="Path 4454" d="M279.919,223.753a.922.922,0,0,0,.919-.919v-7.715a.919.919,0,0,0-1.838,0v7.715A.922.922,0,0,0,279.919,223.753Z" transform="translate(-178.834 -132.864)" fill="#164152"/>
    <path id="Path_4455" data-name="Path 4455" d="M108.8,75.217h-6.007v-.985a2.211,2.211,0,0,0-2.2-2.232H96.726a2.211,2.211,0,0,0-2.2,2.232v.985H88.519a.919.919,0,0,0,0,1.838h1.93V93.929a2.222,2.222,0,0,0,2.213,2.232h11.982a2.222,2.222,0,0,0,2.213-2.232V77.055h1.937a.922.922,0,0,0,.919-.919A.912.912,0,0,0,108.8,75.217Zm-12.448-.985a.378.378,0,0,1,.368-.394h3.867a.368.368,0,0,1,.361.394v.985h-4.6Zm8.673,19.7a.379.379,0,0,1-.374.394H92.662a.379.379,0,0,1-.374-.394V77.055h12.737Z" fill="#164152"/>
  </g>
</svg>
