<svg xmlns="http://www.w3.org/2000/svg" width="43.846" height="32.855" viewBox="0 0 43.846 32.855">
  <g id="Group_1121" data-name="Group 1121" transform="translate(0 4.963) rotate(-7)">
    <path id="Path_2582" data-name="Path 2582" d="M34.486,0H6.239A6.255,6.255,0,0,0,0,6.239V21.862A6.255,6.255,0,0,0,6.239,28.1h28.2a6.265,6.265,0,0,0,6.288-6.239V6.239A6.255,6.255,0,0,0,34.486,0ZM6.239,1.451H34.486a4.813,4.813,0,0,1,4.788,4.5H1.451A4.811,4.811,0,0,1,6.239,1.451Zm28.246,25.2H6.239a4.8,4.8,0,0,1-4.788-4.788V9.238H39.274V21.862A4.8,4.8,0,0,1,34.486,26.65Z" transform="translate(0 0)" fill="#305260"/>
    <path id="Path_2583" data-name="Path 2583" d="M8.9.048A3.75,3.75,0,0,0,6.626.774l-.1-.1L6.481.726A4.041,4.041,0,0,0,4.111,0a4.111,4.111,0,1,0,0,8.222A4.041,4.041,0,0,0,6.481,7.5l.048.048L6.578,7.5A3.894,3.894,0,0,0,8.9,8.222,4.067,4.067,0,0,0,13.011,4.16,4.108,4.108,0,0,0,8.9.048ZM6.723,4.5c0,.1-.048.193-.048.29,0,.048-.048.1-.048.145s-.048.145-.048.193h0a2.462,2.462,0,0,1-.242-1.064A2.831,2.831,0,0,1,6.578,3h0A4.225,4.225,0,0,1,6.82,4.063C6.771,4.256,6.771,4.353,6.723,4.5ZM1.5,4.111A2.6,2.6,0,0,1,5.465,1.886a1.961,1.961,0,0,0-.242.435c0,.048-.048.1-.048.145-.048.1-.1.242-.145.339s-.048.193-.1.29-.048.242-.1.339a.291.291,0,0,1-.048.193c0,.193-.048.339-.048.532a2.355,2.355,0,0,0,.048.58h0a4.016,4.016,0,0,0,.629,1.644,2.736,2.736,0,0,1-1.354.387A2.666,2.666,0,0,1,1.5,4.111Zm7.4,2.66a2.6,2.6,0,0,1-1.354-.387,4.356,4.356,0,0,0,.726-2.273,4.016,4.016,0,0,0-.677-2.225A2.51,2.51,0,0,1,8.9,1.548a2.612,2.612,0,0,1,0,5.224Z" transform="translate(24.425 15.671)" fill="#305260"/>
    <path id="Path_2584" data-name="Path 2584" d="M0,6.626H13.736V0H0ZM1.451,1.5H12.237V5.175H1.451Z" transform="translate(4.933 17.025)" fill="#305260"/>
  </g>
</svg>
