<svg xmlns="http://www.w3.org/2000/svg" width="24.648" height="24.648" viewBox="0 0 24.648 24.648">
  <g id="Group_2796" data-name="Group 2796" transform="translate(0 0)">
    <path id="Path_4445" data-name="Path 4445" d="M-226.07-86.886v-21.9a2.007,2.007,0,0,1,2.133-1.326c6.822.024,13.644.013,20.466.013,1.4,0,2.035.634,2.035,2.036,0,6.822-.012,13.643.014,20.465a2.009,2.009,0,0,1-1.327,2.134H-209.1c-.006-3.447-.009-6.893-.027-10.341,0-.307.146-.307.368-.3.711.008,1.423-.008,2.134.008.3.007.457-.051.485-.4.076-.944.187-1.885.306-2.825.044-.348-.029-.484-.415-.47-.82.028-1.642-.011-2.462.018-.348.012-.433-.1-.416-.428.028-.565,0-1.131.015-1.7.02-.829.335-1.153,1.167-1.181.583-.02,1.168-.018,1.75,0,.274.007.387-.062.381-.361-.017-.984-.014-1.97,0-2.955,0-.255-.072-.36-.337-.356-1.239.019-2.482-.054-3.718.077a3.683,3.683,0,0,0-3.521,3.237,15.648,15.648,0,0,0-.12,3.164c.006.421-.12.539-.521.5-.38-.035-.768.019-1.149-.014-.419-.036-.579.089-.561.536.034.874.035,1.752,0,2.625-.018.452.151.534.563.544a3.56,3.56,0,0,1,1.644.105,1,1,0,0,0-.13.682c0,1.2,0,2.406,0,3.608q-.009,3.116-.028,6.232h-10.949A1.881,1.881,0,0,1-226.07-86.886Z" transform="translate(226.07 110.11)" fill="#fff"/>
  </g>
</svg>
