<svg xmlns="http://www.w3.org/2000/svg" width="20.512" height="20.512" viewBox="0 0 20.512 20.512">
  <g id="logo_googleg_48dp" data-name="logo googleg 48dp" transform="translate(0 0)">
    <path id="Shape" d="M33.314,23.451a11.29,11.29,0,0,0-.228-2.051H23.4v3.988h5.47a4.443,4.443,0,0,1-2.051,3.077v2.621h3.3a10.042,10.042,0,0,0,3.191-7.635Z" transform="translate(-13.144 -12.967)" fill="#4285f4" fill-rule="evenodd"/>
    <path id="Path_4440" data-name="Path 4440" d="M24.5,33.019a9.882,9.882,0,0,0,6.837-2.507l-3.3-2.621a6.382,6.382,0,0,1-3.419,1.026,6.131,6.131,0,0,1-5.7-4.216H15.5v2.621a9.857,9.857,0,0,0,9,5.7Z" transform="translate(-14.247 -12.507)" fill="#34a853" fill-rule="evenodd"/>
    <path id="Path_4441" data-name="Path 4441" d="M18.958,25.5a5.66,5.66,0,0,1,0-3.874V19H15.54a10.374,10.374,0,0,0-1.14,4.558,9.03,9.03,0,0,0,1.14,4.558L18.958,25.5Z" transform="translate(-14.4 -13.302)" fill="#fbbc05" fill-rule="evenodd"/>
    <path id="Path_4442" data-name="Path 4442" d="M24.516,18.1a5.843,5.843,0,0,1,3.874,1.481l2.963-2.963A10.175,10.175,0,0,0,15.4,19.7l3.419,2.621a6.131,6.131,0,0,1,5.7-4.216Z" transform="translate(-14.26 -14)" fill="#ea4335" fill-rule="evenodd"/>
    <path id="Path_4443" data-name="Path 4443" d="M14.4,14H34.912V34.512H14.4Z" transform="translate(-14.4 -14)" fill="none"/>
  </g>
</svg>
