<?xml version="1.0" encoding="utf-8"?>
<!-- Generator: Adobe Illustrator 23.0.4, SVG Export Plug-In . SVG Version: 6.00 Build 0)  -->
<svg version="1.1" id="Calque_1" xmlns="http://www.w3.org/2000/svg" xmlns:xlink="http://www.w3.org/1999/xlink" x="0px" y="0px"
	 viewBox="0 0 50 50" style="enable-background:new 0 0 50 50;" xml:space="preserve">
<style type="text/css">
	.st1{fill:#FFFFFF;}
</style>
<path class="st1" d="M24.6,1.4c-13,0-23.5,10.5-23.5,23.5c0,13,10.5,23.5,23.5,23.5c13,0,23.5-10.5,23.5-23.5
	C48.2,11.9,37.6,1.4,24.6,1.4z M27.4,8.9l-0.7,4.2h-3.7l-0.8-4.2H27.4z M9.4,19.1c0.2-0.2,5.8-5.5,15.8-5.5c10,0,15.1,5.3,15.3,5.5
	l1.3,1.4H7.9L9.4,19.1z M41.8,28.6h-2.6l-2.8,7.9H13.8l-3-7.9H7.6v-0.9h2.8l-2.2-5.9h33.3l-2.1,5.9h2.3V28.6z"/>
</svg>
