<svg xmlns="http://www.w3.org/2000/svg" width="57.786" height="58.139" viewBox="0 0 57.786 58.139">
  <g id="Groupe_2650" data-name="Groupe 2650" transform="translate(0)">
    <path id="Tracé_4336" data-name="Tracé 4336" d="M51.569-32.016a14.764,14.764,0,0,1-1.625,1.906l-.285-.122a14.264,14.264,0,0,0-6.89-1.25,14.041,14.041,0,0,0,.073-4.525,9.081,9.081,0,0,1,3.816-.92l-3.45-3.45c-.067.3-.138.59-.229.885l-1.018.409a14.806,14.806,0,0,0-7.922-7.932l-.286-.122a12.381,12.381,0,0,1,.282-2.414L22.523-61.06a1.707,1.707,0,0,1-.289-.436,28.965,28.965,0,0,0-7.575,19.571,29.07,29.07,0,0,0,29.07,29.069,28.962,28.962,0,0,0,19.493-7.506ZM31.251-43.648l.425-1c4.751,1.518,8.183,5.343,8.131,10.214a9.019,9.019,0,0,1-.483,3.506l-1.018.41a14.8,14.8,0,0,0-7.922-7.932l-.286-.122A13.671,13.671,0,0,1,31.251-43.648Zm3.265,24c-7.3-2.269-10.249-9.6-6.551-16.29C35.264-33.67,38.212-26.339,34.516-19.648Zm14.5-6.3A10.783,10.783,0,0,1,37.615-19a14.334,14.334,0,0,0,1.431-8.5,10.964,10.964,0,0,1,7.335-.584,22.735,22.735,0,0,1,3.06,1.136C49.318-26.666,49.136-26.237,49.014-25.952Z" transform="translate(-14.659 70.995)" fill="#fff"/>
    <path id="Tracé_4337" data-name="Tracé 4337" d="M42.11-69.736a28.951,28.951,0,0,0-19.166,7.221,1.638,1.638,0,0,1,.4.269L34.076-51.519c.05-.1.084-.2.136-.3,4.5,1.454,7.289,4.669,7.992,8.432l3.134,3.133a13.808,13.808,0,0,0-.106-2.987,11.342,11.342,0,0,1,7.335-.584,11.5,11.5,0,0,1,3,1.278l-.425,1a10.908,10.908,0,0,1-2.8,4.2l-.286-.121a15.315,15.315,0,0,0-5.2-1.28l4.371,4.37c.273.138.552.288.838.454l-.115.27,12.08,12.08a28.95,28.95,0,0,0,7.158-19.092A29.07,29.07,0,0,0,42.11-69.736Zm3.4,23.068-1.018.409a14.165,14.165,0,0,0-7.922-7.932l-.285-.121a13.439,13.439,0,0,1,1.577-6.076C44.389-58.282,47.192-52.194,45.51-46.668Zm.1-12.1a11.7,11.7,0,0,1,6.551-5.475,12.07,12.07,0,0,1,.587,8.517,13.735,13.735,0,0,0-4.665,1.049A13.728,13.728,0,0,0,45.611-58.773Zm10.315,13-.286-.121a14.274,14.274,0,0,0-6.89-1.251,15.524,15.524,0,0,0,.074-4.524,11.009,11.009,0,0,1,10.394.551A11.68,11.68,0,0,1,55.926-45.771Z" transform="translate(-13.393 69.736)" fill="#fff"/>
  </g>
</svg>
