<?xml version="1.0" encoding="utf-8"?>
<!-- Generator: Adobe Illustrator 23.0.4, SVG Export Plug-In . SVG Version: 6.00 Build 0)  -->
<svg version="1.1" id="Calque_1" xmlns="http://www.w3.org/2000/svg" xmlns:xlink="http://www.w3.org/1999/xlink" x="0px" y="0px"
	 viewBox="0 0 66.9 66.9" style="enable-background:new 0 0 66.9 66.9;" xml:space="preserve">
<style type="text/css">
	.st0{fill:#164152;}
</style>
<title>Lupin</title>
<g>
	<g id="picto">
		<path class="st0" d="M51.3,40.4c-0.5-2.1-1.7-3.9-3.5-5.2c0.1-0.1,0.1-0.1,0.2-0.2c2.2-3.5,1.2-8.1-2.3-10.3c0,0,0,0,0,0
			c-0.3-0.2-0.5-0.3-0.8-0.4c1.5-2.7,0.6-6.1-2-7.7l-0.3-0.2c0.7-2-0.1-4.3-1.9-5.4l-0.1-0.1C41.1,9,40.1,7,38.2,6.4
			c-0.7-0.2-1.5-0.2-2.3,0.1c-0.6-0.4-1.3-0.6-2-0.6c-0.7,0-1.4,0.2-2,0.6C30,5.8,28,6.8,27.3,8.6c-0.3,0.7-0.3,1.5-0.1,2.3L27.1,11
			c-1.8,1.2-2.6,3.4-1.8,5.5L25,16.6c-2.6,1.6-3.5,5-2,7.7c-0.3,0.1-0.5,0.3-0.8,0.4c-0.2,0.1-0.4,0.3-0.6,0.5
			c-0.4,0.3-0.4,0.8-0.2,1.1c0,0,0,0,0,0c0.2,0.2,0.4,0.3,0.6,0.3c0.2,0,0.4-0.1,0.5-0.2l0.5-0.4c1.5-0.9,3.3-1.2,4.9-0.6
			c-1,1.3-1.6,2.9-1.6,4.5c0,1.4,0.3,2.7,0.8,4c-1.9-0.6-4-0.4-5.8,0.4c-0.1-0.1-0.1-0.2-0.2-0.3c-1.1-1.7-1.2-3.8-0.3-5.6
			c0.2-0.4,0-0.9-0.4-1.1s-0.9,0-1.1,0.4l0,0c-1.1,2.3-0.9,5,0.4,7.2l0.1,0.2c-3.8,2.6-4.8,7.7-2.4,11.6c1.6,2.3,3.8,4.2,6.2,5.4
			c1.5,0.9,3.2,1.4,5,1.4c0.6,0,1.1-0.1,1.6-0.2V57c0.1,1.9,1.7,3.4,3.7,3.3c1.8-0.1,3.2-1.5,3.3-3.3v-3.5c0.5,0.2,1.1,0.2,1.7,0.2
			c2.5-0.2,4.9-1.1,6.9-2.6c0.4-0.3,0.5-0.8,0.2-1.1c0,0,0,0,0,0c-0.3-0.4-0.8-0.5-1.1-0.2c0,0,0,0,0,0c-3.2,2.2-5.6,2.6-7.1,2.2
			c0.9-0.9,1.7-1.9,2.2-3c1.4-2.4,2.2-5.1,2.4-7.9c0-1.9-0.7-3.8-1.9-5.3c3.7-1.2,7.6,0.7,8.9,4.4c0.7,2,0.4,4.1-0.6,5.9
			c-0.5,0.7-1,1.3-1.6,1.9c-0.3,0.3-0.3,0.8,0,1.1c0,0,0,0,0,0c0.2,0.2,0.4,0.2,0.6,0.2c0.2,0,0.4-0.1,0.6-0.2
			c0.7-0.7,1.3-1.4,1.8-2.2C51.4,44.9,51.8,42.6,51.3,40.4z M43.8,20.6c0.2,1.1,0.1,2.2-0.5,3.2l0,0c-1.4-0.3-2.9-0.2-4.2,0.3
			c0.4-1.1,0.6-2.2,0.7-3.3c0-1.2-0.3-2.3-1-3.3c2.2-0.6,4.5,0.8,5.1,3C43.8,20.5,43.8,20.5,43.8,20.6L43.8,20.6z M38.8,34.1
			c-3-2.1-6.9-2.1-9.9,0c-0.5-1.3-0.8-2.7-0.9-4.1c0-3.2,2.6-5.8,5.8-5.8s5.8,2.6,5.8,5.8C39.7,31.4,39.4,32.8,38.8,34.1L38.8,34.1z
			 M29.7,20.7c0-2.3,1.9-4.2,4.2-4.2c2.3,0,4.2,1.9,4.2,4.2c0,0.9-0.2,1.9-0.6,2.8c-2.2-1.2-5-1.2-7.2,0
			C29.9,22.6,29.7,21.7,29.7,20.7z M31,14.2c0-1.6,1.3-2.9,2.9-2.9c1.6,0,2.9,1.3,2.9,2.9c0,0.5-0.1,0.9-0.2,1.3
			c-1.7-0.9-3.8-0.9-5.5,0C31.1,15.2,31,14.7,31,14.2z M41,15.8c-0.9-0.2-1.9-0.2-2.8,0c0.1-0.5,0.2-1.1,0.2-1.6
			c0-0.8-0.2-1.6-0.6-2.3c0.7-0.1,1.4,0,2,0.4C41,13,41.5,14.5,41,15.8z M38.2,8.2c0.7,0.5,1,1.3,0.8,2.1c-0.5-0.1-1.1-0.1-1.7,0
			c0.1-0.3,0.1-0.6,0.1-0.9c0-0.5-0.1-1.1-0.3-1.5C37.5,7.8,37.9,8,38.2,8.2z M33.9,7.5c1.1,0,2,0.9,2,2c0,0,0,0,0,0
			c0,0.2,0,0.5-0.1,0.7c-1.2-0.5-2.6-0.5-3.8,0C32,9.9,32,9.7,32,9.5C31.9,8.4,32.8,7.5,33.9,7.5z M29.6,8.2c0.3-0.2,0.7-0.3,1-0.3
			c-0.2,0.5-0.3,1-0.4,1.5c0,0.3,0,0.6,0.1,0.9c-0.5-0.1-1.1-0.1-1.7,0C28.5,9.5,28.9,8.6,29.6,8.2z M27.9,12.4
			c0.6-0.4,1.3-0.5,2-0.4c-0.4,0.7-0.6,1.5-0.6,2.3c0,0.6,0.1,1.1,0.2,1.6c-0.9-0.2-1.9-0.3-2.8-0.1C26.3,14.5,26.8,13.1,27.9,12.4z
			 M24.5,23.8L24.5,23.8c-1.2-1.9-0.6-4.5,1.3-5.8c1-0.6,2.2-0.8,3.3-0.5c-0.7,1-1,2.1-1,3.3c0,1.1,0.3,2.3,0.7,3.3
			C27.4,23.6,25.9,23.5,24.5,23.8z M24.5,50.9c-2.2-1.2-4.1-2.8-5.6-4.9c-2-3.3-0.9-7.6,2.4-9.6c1.8-1.1,3.9-1.3,5.9-0.6
			c-1.2,1.5-1.9,3.4-1.9,5.3c0.1,2.8,1,5.5,2.4,7.9c0.6,1.1,1.4,2.1,2.3,3C28.6,52.3,26.7,52,24.5,50.9L24.5,50.9z M33.8,58.9
			c-1,0-1.8-0.9-1.8-1.9v-3.6c1.2,0.5,2.5,0.5,3.7,0V57C35.7,58,34.9,58.9,33.8,58.9C33.9,58.9,33.9,58.9,33.8,58.9L33.8,58.9z
			 M33.8,52.1c-1.6,0-3.4-1.4-4.8-3.9c-1.3-2.2-2-4.6-2.2-7.1c-0.5-3.8,2.3-7.3,6.1-7.8c3.8-0.5,7.3,2.3,7.8,6.1
			c0.1,0.6,0.1,1.1,0,1.7C40.8,45.2,37.5,52.1,33.8,52.1L33.8,52.1z M40.5,34.1c0.5-1.3,0.7-2.6,0.8-4c0-1.6-0.5-3.2-1.5-4.5
			c1.6-0.5,3.5-0.3,4.9,0.6c2.7,1.7,3.5,5.3,1.8,8c-0.1,0.1-0.1,0.2-0.2,0.3C44.5,33.6,42.5,33.5,40.5,34.1L40.5,34.1z"/>
	</g>
</g>
</svg>
