<?xml version="1.0" encoding="utf-8"?>
<!-- Generator: Adobe Illustrator 23.0.4, SVG Export Plug-In . SVG Version: 6.00 Build 0)  -->
<svg version="1.1" id="Calque_1" xmlns="http://www.w3.org/2000/svg" xmlns:xlink="http://www.w3.org/1999/xlink" x="0px" y="0px"
	 viewBox="0 0 66.9 66.9" style="enable-background:new 0 0 66.9 66.9;" xml:space="preserve">
<style type="text/css">
	.st0{fill:#164152;}
</style>
<title>Moutarde</title>
<g>
	<g id="picto">
		<path class="st0" d="M32.3,40.3c0.5,0.2,0.6,0.8,0.4,1.3c-0.1,0.2-0.3,0.4-0.5,0.4c-0.9,0.3-1.3,1.3-1,2.2c0,0,0,0,0,0
			c0.3,0.7,0.9,1.1,1.6,1.1c0.2,0,0.4,0,0.6-0.1c2.2-0.9,3.3-3.4,2.5-5.7c-0.4-1-1.1-1.8-2.1-2.3c-0.2-0.1-0.4-0.3-0.5-0.5
			c-0.1-0.3,0-0.5,0.1-0.8c0.1-0.3,0.4-0.5,0.7-0.5c0.9,0,1.7-0.8,1.6-1.8c0-0.9-0.8-1.7-1.8-1.6c-0.1,0-0.1,0-0.2,0
			c-2.4,0.2-4.1,2.4-3.9,4.8C30.2,38.3,31,39.6,32.3,40.3L32.3,40.3z M31.7,35.1c0.4-0.9,1.3-1.5,2.3-1.6l0,0c0.2,0,0.3,0.1,0.3,0.3
			c0,0.2-0.1,0.3-0.3,0.3c-1.3,0.1-2.2,1.3-2.1,2.6c0,0.1,0,0.3,0.1,0.4c0.2,0.6,0.6,1.1,1.2,1.4c1.5,0.7,2.1,2.4,1.4,3.9
			c-0.3,0.7-0.9,1.2-1.6,1.5h-0.1c-0.1,0-0.2-0.1-0.3-0.2c-0.1-0.2,0-0.3,0.2-0.4c0,0,0,0,0,0c1.2-0.5,1.8-1.8,1.3-3
			c-0.2-0.5-0.6-0.9-1.1-1.2C31.6,38.4,31,36.6,31.7,35.1C31.7,35.1,31.7,35.1,31.7,35.1L31.7,35.1z"/>
		<path class="st0" d="M39.4,28.5H27c-0.4,0-0.7,0.3-0.7,0.7c0,0,0,0,0,0v19.6c0,0.4,0.3,0.7,0.7,0.7h12.4c0.4,0,0.7-0.3,0.7-0.7
			c0,0,0,0,0,0V29.2C40.1,28.8,39.8,28.5,39.4,28.5z M38.7,48.1h-11V29.9h11V48.1z"/>
		<path class="st0" d="M40.5,21.6v-2.4c0-0.4-0.3-0.7-0.7-0.7c0,0,0,0,0,0H39l-3.7-6.8c-0.1-0.2-0.4-0.4-0.6-0.4h-2.8
			c-0.3,0-0.5,0.1-0.6,0.4l-3.7,6.8h-0.8c-0.4,0-0.7,0.3-0.7,0.7v0v2.5c-1.7,0-3.1,1.5-3.1,3.2v28.5c0,1.8,1.4,3.2,3.2,3.2h14.4
			c1.8,0,3.2-1.5,3.2-3.2V24.8C43.7,23,42.3,21.6,40.5,21.6z M38.4,19.8h0.7v1.8h-0.7V19.8z M32.2,12.7h2l3.2,5.7h-8.3L32.2,12.7z
			 M37,19.8v1.8h-1.6v-1.8H37z M34,19.8v1.8h-1.5v-1.8H34z M31,19.8v1.8h-1.5v-1.8H31z M27.3,19.8H28v1.8h-0.7V19.8z M42.3,53.3
			L42.3,53.3c0,1-0.8,1.8-1.8,1.8H26c-1,0-1.8-0.8-1.8-1.8c0,0,0,0,0,0V24.8c0-1,0.8-1.8,1.8-1.8h14.4c1,0,1.8,0.8,1.8,1.8V53.3z"/>
	</g>
</g>
</svg>
