<?xml version="1.0" encoding="utf-8"?>
<!-- Generator: Adobe Illustrator 23.0.4, SVG Export Plug-In . SVG Version: 6.00 Build 0)  -->
<svg version="1.1" id="Calque_1" xmlns="http://www.w3.org/2000/svg" xmlns:xlink="http://www.w3.org/1999/xlink" x="0px" y="0px"
	 viewBox="0 0 66.9 66.9" style="enable-background:new 0 0 66.9 66.9;" xml:space="preserve">
<style type="text/css">
	.st0{fill:#164152;}
</style>
<title>Poisson</title>
<g>
	<g id="picto">
		<path class="st0" d="M55.8,27.2c-2.5-2.1-5.4-3.8-8.5-4.9l0,0c-1.5-0.5-3-0.9-4.6-1.2c-2.4-2.8-5.6-4.7-9.1-5.5
			c-0.9-0.2-1.8,0-2.5,0.6c-0.7,0.6-1.1,1.4-1.1,2.3v4.1c-4.1,1.9-7.8,4.6-10.9,7.8c-0.3-1.9-1.2-3.7-2.5-5.1
			c-2.9-2.9-7.6-2.8-7.8-2.8c-0.6,0-1,0.5-1.1,1c0,0.2-0.1,4.9,2.8,7.7c0.7,0.7,1.5,1.2,2.4,1.6c-0.9,0.4-1.7,1-2.4,1.7
			c-2.9,2.9-2.8,7.5-2.8,7.8c0,0.6,0.5,1,1,1h0.2c0.9,0,5-0.2,7.6-2.8c1.3-1.4,2.2-3.2,2.5-5.2c2.1,2.2,4.6,4.2,7.2,5.8v3.8
			c0,0.9,0.4,1.8,1.2,2.3c0.5,0.4,1.1,0.6,1.7,0.6c0.3,0,0.6,0,0.8-0.1c2-0.6,3.9-1.7,5.5-3c0.9,0.1,1.7,0.2,2.6,0.2
			c3,0,6-0.5,8.8-1.5l0,0c6.7-2.2,12.2-7,12.2-10.7C59.2,31.3,58,29.2,55.8,27.2z M12.1,29.9c-1.2-1.4-1.9-3.2-2.1-5
			c1.8,0.1,3.6,0.9,5,2.1c1.2,1.4,2,3.1,2.1,5C15.3,31.9,13.5,31.2,12.1,29.9z M15.1,39.2c-1.4,1.2-3.2,2-5,2.1
			c0.1-1.8,0.9-3.6,2.1-5c1.4-1.2,3.2-1.9,5-2.1C17.1,36.1,16.3,37.8,15.1,39.2L15.1,39.2z M32.2,18.5c0-0.4,0.3-0.7,0.7-0.7
			c0.1,0,0.1,0,0.2,0c2.3,0.5,4.4,1.5,6.2,3h-1c-2.1,0-4.1,0.3-6.1,1L32.2,18.5z M29.5,46c-0.2,0.1-0.5,0-0.7-0.1
			c-0.2-0.1-0.3-0.4-0.3-0.6v-2.6c1.4,0.7,2.8,1.3,4.3,1.8C31.7,45.1,30.6,45.6,29.5,46z M38.2,43.1c-0.9,0-1.9-0.1-2.8-0.2
			c-2.7-0.5-5.2-1.5-7.5-3c-3.1-1.9-5.9-4.2-8.3-6.9c3.3-3.7,7.3-6.6,11.8-8.6l0,0c2.1-0.9,4.4-1.4,6.8-1.4c1.2,0,2.5,0.1,3.7,0.3
			c0.9,0.1,1.9,0.3,2.8,0.6c-2.4,2.6-3.7,5.9-3.7,9.4c0.1,3.3,1.4,6.5,3.6,9C42.5,42.8,40.4,43.1,38.2,43.1L38.2,43.1z M46.9,41.6
			c-2.3-2.1-3.7-5.1-3.8-8.2c0-3.3,1.4-6.4,3.9-8.7c6.2,2.3,10,6.4,10,8.4S53.2,39.2,46.9,41.6L46.9,41.6z"/>
		<path class="st0" d="M50.9,31.7c-0.6,0-1.1,0.5-1.1,1.1l0,0v0.5c0.1,0.6,0.6,1,1.2,1c0.5,0,0.9-0.5,1-1v-0.5
			C52,32.2,51.5,31.7,50.9,31.7C50.9,31.7,50.9,31.7,50.9,31.7z"/>
		<path class="st0" d="M39.7,25.8c-0.4-0.4-1.1-0.4-1.5,0l-0.3,0.3c-0.4,0.5-0.3,1.1,0.1,1.5c0.2,0.2,0.4,0.3,0.7,0.3
			c0.3,0,0.6-0.1,0.8-0.4c0.1-0.1,0.1-0.2,0.2-0.2C40.1,26.8,40.1,26.2,39.7,25.8z"/>
		<path class="st0" d="M39.6,39c-1.3-1.6-2-3.7-1.9-5.8c0-1.2,0.2-2.5,0.6-3.6c0.3-0.5,0.1-1.2-0.5-1.5c-0.5-0.3-1.2-0.1-1.5,0.5
			c0,0.1-0.1,0.1-0.1,0.2c-0.5,1.4-0.8,2.9-0.8,4.4c-0.1,2.6,0.8,5.2,2.4,7.2c0.2,0.2,0.5,0.4,0.8,0.4c0.3,0,0.5-0.1,0.7-0.3
			C39.9,40.1,40,39.4,39.6,39C39.6,39,39.6,39,39.6,39z"/>
	</g>
</g>
</svg>
