<svg id="Calque_1" data-name="Calque 1" xmlns="http://www.w3.org/2000/svg" width="150" height="150" viewBox="0 0 150 150">
  <title>Modal-SMS10H</title>
  <g>
    <path d="M94.32,10.76H55.68A16.07,16.07,0,0,0,39.62,26.82v96.36a16.07,16.07,0,0,0,16.06,16.06H94.32a16.07,16.07,0,0,0,16.06-16.06V100.29a2.51,2.51,0,1,0-5,0v17.87H44.64V29.33h60.72V77.7a2.51,2.51,0,1,0,5,0V26.82A16.07,16.07,0,0,0,94.32,10.76Zm11,112.42h0a11,11,0,0,1-11,11H55.68a11,11,0,0,1-11-11h60.72ZM44.93,24.31a11.06,11.06,0,0,1,10.75-8.53H94.32a11.06,11.06,0,0,1,10.75,8.53Z" style="fill: #fff"/>
    <path d="M75,38.5A6.46,6.46,0,0,0,68.55,45v3.46a20.4,20.4,0,0,0-13.9,19.31V83.44h-2.3A2.52,2.52,0,0,0,49.84,86v5.74a6.78,6.78,0,0,0,6.78,6.77H66.93a8.07,8.07,0,0,0,16.14,0H93.38a6.78,6.78,0,0,0,6.78-6.77V86a2.52,2.52,0,0,0-2.51-2.51h-2.3V67.73a20.4,20.4,0,0,0-13.9-19.31V45A6.46,6.46,0,0,0,75,38.5ZM73.56,45a1.44,1.44,0,0,1,2.88,0v2.46c-.48,0-1-.05-1.44-.05s-1,0-1.44.05ZM75,101.45a3,3,0,0,1-3-3h6.1A3,3,0,0,1,75,101.45Zm20.14-9.76a1.75,1.75,0,0,1-1.76,1.75H56.62a1.75,1.75,0,0,1-1.76-1.75V88.46H95.14Zm-4.81-24V83.44H59.67V67.73a15.33,15.33,0,1,1,30.66,0Z" style="fill: #fac846"/>
    <path d="M107.87,91.5a2.51,2.51,0,1,1,2.46-2A2.53,2.53,0,0,1,107.87,91.5Z" style="fill: #fff"/>
    <path d="M78.57,131.21H71.43a2.51,2.51,0,1,1,0-5h7.14a2.51,2.51,0,1,1,0,5Z" style="fill: #fff"/>
    <path d="M132.5,90.4a2.51,2.51,0,0,1-2-4,19.27,19.27,0,0,0,0-22.82,2.51,2.51,0,0,1,4.05-3,24.31,24.31,0,0,1,0,28.76A2.51,2.51,0,0,1,132.5,90.4Z" style="fill: #fff"/>
    <path d="M125.41,85.08a2.5,2.5,0,0,1-2-4,10.5,10.5,0,0,0,0-12.22A2.5,2.5,0,1,1,127.45,66a15.51,15.51,0,0,1,0,18.06A2.49,2.49,0,0,1,125.41,85.08Z" style="fill: #fff"/>
    <path d="M17.5,90.4a2.51,2.51,0,0,1-2-1,24.31,24.31,0,0,1,0-28.76,2.51,2.51,0,1,1,4,3,19.27,19.27,0,0,0,0,22.82A2.51,2.51,0,0,1,19,89.92,2.56,2.56,0,0,1,17.5,90.4Z" style="fill: #fff"/>
    <path d="M24.59,85.08a2.49,2.49,0,0,1-2-1,15.51,15.51,0,0,1,0-18.06,2.5,2.5,0,1,1,4.07,2.92,10.5,10.5,0,0,0,0,12.22,2.5,2.5,0,0,1-2,4Z" style="fill: #fff"/>
  </g>
</svg>
