<?xml version="1.0" encoding="utf-8"?>
<!-- Generator: Adobe Illustrator 23.0.3, SVG Export Plug-In . SVG Version: 6.00 Build 0)  -->
<svg version="1.1" id="Calque_1" xmlns="http://www.w3.org/2000/svg" xmlns:xlink="http://www.w3.org/1999/xlink" x="0px" y="0px"
	 viewBox="0 0 50 50" style="enable-background:new 0 0 50 50;" xml:space="preserve">
<style type="text/css">
	.st0{fill:#65C1AC;}
	.st1{fill:#FFFFFF;}
	.st2{fill:none;stroke:#FFFFFF;}
	.st3{fill:#164152;}
	.st4{fill:none;stroke:#164152;stroke-width:2;}
	.st5{fill:#F17889;}
	.st6{fill:none;stroke:#164152;stroke-width:2;stroke-linecap:round;stroke-linejoin:round;}
	.st7{fill:#64B7D3;}
	.st8{fill:none;stroke:#64B7D3;stroke-miterlimit:10;}
	.st9{fill:#64B7D3;stroke:#FFFFFF;stroke-width:0.5;}
	.st10{fill-rule:evenodd;clip-rule:evenodd;fill:#164152;}
</style>
<g id="Groupe_2818" transform="translate(-2.557 -29.398)">
	<path id="Tracé_2579" class="st3" d="M17.7,48.9c0.2,0,0.4-0.1,0.5-0.2c1.3-1,2.9-1.3,4.5-0.8c0.4,0.1,0.8-0.1,0.9-0.4
		c0.1-0.4-0.1-0.8-0.4-0.9c-2-0.6-4.3-0.2-6,1.1c-0.3,0.3-0.3,0.7-0.1,1C17.3,48.8,17.5,48.9,17.7,48.9z"/>
	<path id="Tracé_2580" class="st3" d="M14.9,68.4c1.3,0,2.6-0.5,3.5-1.5l0.7-0.7c1.7,0.4,3.5,0.4,5.3,0.1l0.4,0.4
		c1.9,1.9,4.9,2,6.9,0.3c1.5-1.3,2-3.4,1.3-5.3c0.5-0.7,1-1.5,1.4-2.3h0c1.6,0,3-1.3,3-2.9c0,0,0,0,0,0v-4c0-0.8-0.3-1.6-0.8-2.1
		c-0.5-0.6-1.3-0.9-2.1-0.9h0c-0.8-1.5-1.8-2.8-3.1-3.8l0.1-1.4c0.1-0.7,0.2-1.5,0.1-2.2c-0.1-0.7-0.7-1.2-1.4-1.2l0,0
		c-1.6,0-4.6,1.4-5.5,1.9c0,0-0.1,0-0.1,0c-0.8-0.1-1.6-0.2-2.4-0.2c-4.9-0.1-9.5,2.5-12,6.7c0,0.1-0.1,0.1-0.1,0.2
		c0-0.1,0-0.2,0.1-0.2c-0.8,1.2-1.3,2.6-1.5,4.1c-0.5,0.3-1.2,0.3-1.7,0c-0.4-0.2-0.7-0.6-0.9-1.1c-0.1-0.5-0.1-1,0.1-1.4
		c0.2-0.4,0-0.8-0.4-0.9c-0.3-0.1-0.7,0-0.9,0.3c-0.4,0.8-0.5,1.7-0.2,2.5c0.2,0.8,0.8,1.6,1.6,2c0.5,0.2,1,0.4,1.6,0.4
		c0.3,0,0.5,0,0.8-0.1c0.1,2.1,0.7,4.2,1.9,6c-1.1,1.9-0.9,4.2,0.5,5.9C12.2,67.8,13.5,68.4,14.9,68.4L14.9,68.4z M12.2,65.8
		c-1-1.2-1.1-3-0.2-4.3c0.2-0.4,0.2-0.9,0-1.2c-1.2-1.6-1.8-3.6-1.8-5.6c0-1.6,0.4-3.2,1.3-4.5c0,0,0,0,0-0.1
		c2.3-3.7,6.3-6,10.7-5.9c0.8,0,1.5,0.1,2.2,0.2c0.3,0.1,0.7,0,1-0.1c1.6-0.8,3.8-1.7,4.7-1.7c0,0.6-0.1,1.2-0.1,1.8l-0.2,1.8
		c0,0.2,0.1,0.5,0.3,0.6c1.4,1,2.4,2.4,3.2,4c0.1,0.3,0.4,0.4,0.7,0.4h0.5c0.8,0,1.5,0.7,1.5,1.5c0,0,0,0,0,0v4
		c0,0.8-0.6,1.5-1.5,1.5H34c-0.3,0-0.6,0.2-0.7,0.4c-0.4,0.9-1,1.8-1.6,2.6c-0.2,0.3-0.3,0.7-0.1,1c0.6,1.3,0.3,2.9-0.8,3.9
		c-1.4,1.2-3.6,1.1-4.9-0.2L25,65.2c-0.2-0.2-0.4-0.2-0.6-0.2c-1.8,0.3-3.7,0.3-5.5-0.1c-0.2-0.1-0.5,0-0.7,0.2L17.3,66
		c-0.7,0.6-1.5,1-2.4,1h-0.1C13.8,66.9,12.9,66.5,12.2,65.8z"/>
	<circle id="Ellipse_480" class="st3" cx="28.2" cy="52.1" r="1.3"/>
	<path id="Tracé_2581" class="st3" d="M50.9,66.6c-0.3-0.3-0.7-0.3-1-0.1l-2.7,2.3h-4.4v-1h4.1c0.2,0,0.3,0,0.5-0.1l2.9-2.4
		c0.3-0.3,0.4-0.7,0.1-1c-0.3-0.3-0.7-0.4-1-0.1l-2.7,2.3h-3.9v-1h4.1c0.2,0,0.4-0.1,0.5-0.2l2.5-2.4c0.2-0.2,0.3-0.5,0.1-0.8
		c-0.1-0.3-0.4-0.5-0.7-0.4h-2.8c-0.1-0.3-0.4-0.5-0.7-0.5H42c-0.2,0-0.3,0-0.4,0.1l-0.4,0.3h-4c-0.2,0-0.3,0-0.5,0.1l-2.9,2.4
		c-0.2,0.2-0.3,0.5-0.2,0.8c0.1,0.3,0.4,0.5,0.7,0.5h3.5v1h-3.5c-0.4,0-0.7,0.3-0.8,0.7s0.3,0.7,0.7,0.8c0,0,0,0,0,0h3.5v0.9h-3.5
		c-0.4,0-0.7,0.3-0.8,0.7s0.3,0.7,0.7,0.8c0,0,0,0,0,0h13.2c0.2,0,0.3,0,0.5-0.1l2.9-2.4C51.1,67.5,51.1,67,50.9,66.6z M46.6,64
		h-2.5l1.4-1h2.1L46.6,64z M37.4,63h1.9L38,64h-1.8L37.4,63z"/>
</g>
</svg>
