<?xml version="1.0" encoding="utf-8"?>
<!-- Generator: Adobe Illustrator 23.0.3, SVG Export Plug-In . SVG Version: 6.00 Build 0)  -->
<svg version="1.1" id="Calque_1" xmlns="http://www.w3.org/2000/svg" xmlns:xlink="http://www.w3.org/1999/xlink" x="0px" y="0px"
	 viewBox="0 0 50 50" style="enable-background:new 0 0 50 50;" xml:space="preserve">
<style type="text/css">
	.st0{fill:#65C1AC;}
	.st1{fill:#FFFFFF;}
	.st2{fill:none;stroke:#FFFFFF;}
	.st3{fill:#164152;}
	.st4{fill:none;stroke:#164152;stroke-width:2;}
	.st5{fill:#F17889;}
	.st6{fill:none;stroke:#164152;stroke-width:2;stroke-linecap:round;stroke-linejoin:round;}
	.st7{fill:#64B7D3;}
	.st8{fill:none;stroke:#64B7D3;stroke-miterlimit:10;}
	.st9{fill:#64B7D3;stroke:#FFFFFF;stroke-width:0.5;}
	.st10{fill-rule:evenodd;clip-rule:evenodd;fill:#164152;}
</style>
<g id="Groupe_3000" transform="translate(-9.8 -9)">
	<g id="Groupe_2999" transform="translate(9.8 9)">
		<path id="Tracé_5441" class="st7" d="M21.8,13.9c0.8,0,1.4-0.6,1.4-1.4c0,0,0,0,0,0V3.4c0-0.8-0.7-1.4-1.4-1.4
			c-0.7,0-1.3,0.6-1.4,1.4v9.2C20.4,13.3,21,13.9,21.8,13.9C21.8,13.9,21.8,13.9,21.8,13.9z"/>
		<path id="Tracé_5442" class="st7" d="M14,18.8H4.9c-0.8,0-1.4,0.6-1.4,1.4c0,0.8,0.6,1.4,1.4,1.4c0,0,0,0,0.1,0H14
			c0.8,0,1.4-0.6,1.4-1.4C15.5,19.4,14.9,18.8,14,18.8C14.1,18.8,14.1,18.8,14,18.8z"/>
		<path id="Tracé_5443" class="st7" d="M12.8,9.3c-0.6-0.5-1.4-0.5-1.9,0.1c-0.5,0.5-0.5,1.4,0,1.9l2.9,2.9c0.5,0.6,1.4,0.6,2,0
			c0.6-0.5,0.6-1.4,0-2L12.8,9.3z"/>
		<path id="Tracé_5444" class="st7" d="M29.6,14.2l2.9-2.9c0.5-0.6,0.5-1.4-0.1-1.9c-0.5-0.5-1.4-0.5-1.9,0l-2.9,2.9
			c-0.5,0.5-0.5,1.4,0,1.9c0.3,0.3,0.6,0.4,1,0.4C29,14.6,29.3,14.5,29.6,14.2z"/>
		<path id="Tracé_5445" class="st7" d="M13.7,26.1l-2.9,2.9c-0.5,0.6-0.5,1.4,0.1,2c0.5,0.5,1.4,0.5,1.9,0l2.9-2.9
			c0.5-0.5,0.6-1.4,0-1.9c0,0,0,0,0,0C15.2,25.6,14.3,25.6,13.7,26.1C13.7,26.1,13.7,26.1,13.7,26.1z"/>
		<path id="Tracé_5446" class="st7" d="M46.3,25.9l-23.7-6.5c-0.5-0.1-1,0-1.3,0.3c-0.3,0.4-0.5,0.9-0.4,1.3l6.4,23.9
			c0.2,0.6,0.7,1,1.3,1.1h0.1c0.6,0,1.1-0.3,1.3-0.9l4.5-12.2l12-4.3c0.5-0.2,0.9-0.7,0.9-1.3C47.3,26.6,46.9,26.1,46.3,25.9z
			 M32.8,30.5c-0.4,0.1-0.7,0.4-0.8,0.8l-3.2,8.7l-4.7-17.4l17.2,4.7L32.8,30.5z"/>
	</g>
</g>
</svg>
