<?xml version="1.0" encoding="utf-8"?>
<!-- Generator: Adobe Illustrator 23.0.3, SVG Export Plug-In . SVG Version: 6.00 Build 0)  -->
<svg version="1.1" id="Calque_1" xmlns="http://www.w3.org/2000/svg" xmlns:xlink="http://www.w3.org/1999/xlink" x="0px" y="0px"
	 viewBox="0 0 50 50" style="enable-background:new 0 0 50 50;" xml:space="preserve">
<style type="text/css">
	.st0{fill:#65C1AC;}
	.st1{fill:#FFFFFF;}
	.st2{fill:none;stroke:#FFFFFF;}
	.st3{fill:#164152;}
	.st4{fill:none;stroke:#164152;stroke-width:2;}
	.st5{fill:#F17889;}
	.st6{fill:none;stroke:#164152;stroke-width:2;stroke-linecap:round;stroke-linejoin:round;}
	.st7{fill:#64B7D3;}
	.st8{fill:none;stroke:#64B7D3;stroke-miterlimit:10;}
	.st9{fill:#64B7D3;stroke:#FFFFFF;stroke-width:0.5;}
	.st10{fill-rule:evenodd;clip-rule:evenodd;fill:#164152;}
</style>
<ellipse id="Ellipse_487" class="st7" cx="10.8" cy="26.1" rx="0.9" ry="1.2"/>
<ellipse id="Ellipse_488" class="st7" cx="19.2" cy="26.1" rx="0.9" ry="1.2"/>
<ellipse id="Ellipse_489" class="st7" cx="30.4" cy="26.1" rx="0.9" ry="1.2"/>
<ellipse id="Ellipse_490" class="st7" cx="38.8" cy="26.1" rx="0.9" ry="1.2"/>
<g id="Groupe_2543" transform="translate(42.484)">
	<path id="Tracé_4045" class="st7" d="M-5.8,36c-5.5,0-10-4.5-10-10s4.5-10,10-10s10,4.5,10,10c0,0,0,0,0,0C4.2,31.5-0.3,36-5.8,36
		z M-5.8,17c-5,0-9,4-9,9s4,9,9,9c5,0,9-4,9-9C3.2,21.1-0.8,17-5.8,17C-5.8,17-5.8,17-5.8,17z"/>
</g>
<circle id="Ellipse_491" class="st7" cx="33.6" cy="30.3" r="2.1"/>
<path id="Tracé_4046" class="st7" d="M19.7,32.8C16.1,36.1,10.4,36,7,32.4s-3.2-9.3,0.4-12.7c1.7-1.6,3.9-2.5,6.2-2.4
	c5,0,9,4,9,8.9c0,0,0,0,0,0.1c0,1.8-0.6,3.6-1.6,5.1h0.8c0.2-0.2,0.5-0.5,0.8-0.6c0.8-1.4,1.1-2.9,1.1-4.5c0-5.5-4.5-10-10-10
	s-10,4.5-10,10c0,5.5,4.5,10,10,10c0,0,0,0,0,0c2.5,0,4.9-0.9,6.7-2.6C20.1,33.4,19.9,33.1,19.7,32.8z"/>
<g id="Groupe_2544" transform="translate(30.025 26.147)">
	<path id="Tracé_4047" class="st7" d="M-5.2,11.4c-1.4,0.1-2.6-0.7-3.3-1.9C-8.7,9-8.8,8.4-8.8,7.9C-9,7.5-9.2,7.2-9.5,7
		c-0.5-0.6-0.8-0.9-0.6-1.1C-10,5.6-9.5,5.6-9,5.6c0.2,0,0.8,0,0.9-0.1c0.3-0.5,0.7-0.8,1.3-1C-5,3.6-2.7,4.2-1.8,6
		c0.5,0.8,0.5,1.8,0.2,2.7c-0.3,1-1,1.7-1.9,2.1l0,0C-4,11.2-4.6,11.4-5.2,11.4z M-9.7,6.1c0.1,0.1,0.4,0.5,0.5,0.6
		c0.5,0.5,0.8,0.9,0.8,1.1c0,0.5,0.1,1,0.4,1.4c0.9,1.6,2.9,2.1,4.5,1.3l0,0c0.8-0.4,1.3-1.1,1.6-1.9C-1.7,7.8-1.8,7-2.2,6.2
		C-3.2,4.7-5.1,4.1-6.7,5c-0.4,0.2-0.7,0.4-1,0.7C-8,6-8.3,6-9,6C-9.2,6-9.6,6-9.7,6.1z"/>
</g>
<g id="Groupe_2545" transform="translate(36.284 30.543)">
	<path id="Tracé_4048" class="st7" d="M-10,2.6h-2.7c-0.1,0-0.3-0.1-0.3-0.3c0-0.1,0.1-0.3,0.3-0.3h2.7c0.1,0,0.2,0.1,0.2,0.2
		C-9.7,2.5-10,2.6-10,2.6z"/>
</g>
<g id="Groupe_2546" transform="translate(36.284 32.38)">
	<path id="Tracé_4049" class="st7" d="M-10,1.7h-2.7c-0.1,0-0.3-0.1-0.3-0.3c0-0.1,0.1-0.3,0.3-0.3h2.7c0.1,0,0.2,0.1,0.2,0.2
		C-9.7,1.6-10,1.7-10,1.7z"/>
</g>
<g id="Groupe_2547" transform="translate(36.284 33.987)">
	<path id="Tracé_4050" class="st7" d="M-10,1h-2.7C-12.9,1-13,0.9-13,0.8c0-0.1,0.1-0.3,0.3-0.3h2.7c0.1,0,0.2,0.1,0.2,0.2
		C-9.7,0.9-10,1-10,1z"/>
</g>
<path id="Tracé_4051" class="st7" d="M20.2,28.1c0,2.8-2.2,5-5,5s-5-2.2-5-5H20.2z"/>
</svg>
