<?xml version="1.0" encoding="utf-8"?>
<!-- Generator: Adobe Illustrator 23.0.4, SVG Export Plug-In . SVG Version: 6.00 Build 0)  -->
<svg version="1.1" id="Calque_1" xmlns="http://www.w3.org/2000/svg" xmlns:xlink="http://www.w3.org/1999/xlink" x="0px" y="0px"
	 viewBox="0 0 66.9 66.9" style="enable-background:new 0 0 66.9 66.9;" xml:space="preserve">
<style type="text/css">
	.st0{fill:#164152;}
</style>
<title>Sulfite</title>
<g>
	<g id="picto">
		<path class="st0" d="M56.4,23.2c-2.2-3.2-6.5-4-9.7-1.8c-1.9,1.3-3,3.5-3,5.8c0,0.1,0,0.1,0,0.2l-4.1,1.4c-2-2.3-5.4-3-8.2-1.7
			l-7.1-7c1.6-3.5,0.1-7.7-3.5-9.3s-7.7-0.1-9.3,3.5s-0.1,7.7,3.5,9.3c2,0.9,4.4,0.8,6.4-0.3l6.8,6.8c-0.9,1.6-1.1,3.5-0.7,5.2
			l-4.4,2.9c-3-2.5-7.5-2-10,1c-2.5,3-2,7.5,1,10c3,2.5,7.5,2,10-1c1.4-1.8,1.9-4.1,1.4-6.3l4.4-2.9c1.8,1.5,4.3,2,6.6,1.2l2.2,3.2
			c-2.8,2.8-2.8,7.3,0,10.1c2.8,2.8,7.3,2.8,10.1,0c2.8-2.8,2.8-7.3,0-10.1c-1.6-1.6-3.9-2.4-6.2-2L40,37.5c1-1.4,1.5-3.2,1.2-5
			l3.7-1.2c2.2,3.2,6.6,3.9,9.8,1.7C57.9,30.8,58.6,26.4,56.4,23.2L56.4,23.2z M17.9,22.5c-3,0-5.5-2.4-5.5-5.5c0-3,2.4-5.5,5.5-5.5
			c3,0,5.5,2.4,5.5,5.5v0C23.3,20.1,20.9,22.5,17.9,22.5C17.9,22.5,17.9,22.5,17.9,22.5z M22.6,22.2c0.3-0.3,0.6-0.6,0.8-0.9
			l8.3,8.3c0.2,0.2,0.2,0.6,0,0.8l-0.1,0.1c-0.2,0.2-0.6,0.1-0.8-0.1L22.6,22.2z M18.6,49c-3,0-5.5-2.4-5.5-5.5c0-3,2.4-5.5,5.5-5.5
			c3,0,5.5,2.4,5.5,5.5C24.1,46.5,21.7,49,18.6,49C18.7,49,18.7,49,18.6,49z M24.9,40.3c-0.2-0.4-0.4-0.7-0.7-1.1l3.8-2.5
			c0.2,0.4,0.4,0.7,0.7,1L24.9,40.3z M35.1,38.1l0.4,0.6c-2.9,0.7-5.9-1.1-6.6-4c-0.3-1.2-0.2-2.5,0.4-3.6l0.5,0.5
			c1,0.7,2.3,0.5,3-0.4c0.6-0.8,0.6-1.9,0-2.6l-0.3-0.3c2.8-1,5.9,0.6,6.9,3.4c0.2,0.6,0.3,1.2,0.3,1.8c0,0.9-0.2,1.9-0.7,2.7
			l-0.2-0.3c-0.7-1-2.1-1.2-3.1-0.5C34.8,36,34.5,37.2,35.1,38.1L35.1,38.1z M43.6,42.8c3,0,5.5,2.4,5.5,5.5c0,3-2.4,5.5-5.5,5.5
			c-3,0-5.5-2.4-5.5-5.5l0,0C38.2,45.2,40.6,42.8,43.6,42.8L43.6,42.8z M40.9,41.8c-0.4,0.2-0.8,0.4-1.1,0.6l-3.4-5
			c-0.2-0.3-0.2-0.7,0.1-0.9c0.3-0.2,0.7-0.2,0.9,0.1c0,0,0.1,0.1,0.1,0.1L40.9,41.8z M40.8,31c-0.1-0.3-0.2-0.6-0.4-0.8l3.4-1.2
			c0.1,0.3,0.2,0.6,0.3,0.9L40.8,31z M50.6,32.7c-3,0-5.5-2.4-5.5-5.5c0-3,2.4-5.5,5.5-5.5c3,0,5.5,2.4,5.5,5.5v0
			C56.1,30.2,53.6,32.7,50.6,32.7L50.6,32.7z"/>
	</g>
</g>
</svg>
