<svg id="Calque_1" data-name="Calque 1" xmlns="http://www.w3.org/2000/svg" viewBox="0 0 50 50"><defs><style>.cls-1{fill:#164152;}</style></defs><title>Sans titre - 1</title><g id="Groupe_2628" data-name="Groupe 2628"><path id="Tracé_4266" data-name="Tracé 4266" class="cls-1" d="M26,34l-.73.67.11.12.08-.07.65-.59Z"/><rect id="Rectangle_2376" data-name="Rectangle 2376" class="cls-1" x="23.41" y="32.27" width="0.99" height="0.33" transform="translate(-15.6 24.5) rotate(-42.25)"/><rect id="Rectangle_2377" data-name="Rectangle 2377" class="cls-1" x="22.97" y="31.78" width="0.99" height="0.33" transform="translate(-15.39 24.07) rotate(-42.25)"/><rect id="Rectangle_2378" data-name="Rectangle 2378" class="cls-1" x="22.07" y="30.8" width="0.99" height="0.33" transform="translate(-14.95 23.21) rotate(-42.25)"/><rect id="Rectangle_2379" data-name="Rectangle 2379" class="cls-1" x="24.31" y="33.26" width="0.99" height="0.33" transform="translate(-16.03 25.36) rotate(-42.25)"/><rect id="Rectangle_2380" data-name="Rectangle 2380" class="cls-1" x="21.62" y="30.3" width="0.99" height="0.33" transform="translate(-14.74 22.78) rotate(-42.25)"/><rect id="Rectangle_2381" data-name="Rectangle 2381" class="cls-1" x="24.75" y="33.75" width="0.99" height="0.33" transform="translate(-16.24 25.79) rotate(-42.25)"/><rect id="Rectangle_2382" data-name="Rectangle 2382" class="cls-1" x="23.86" y="32.76" width="0.99" height="0.33" transform="translate(-15.82 24.93) rotate(-42.25)"/><rect id="Rectangle_2383" data-name="Rectangle 2383" class="cls-1" x="22.52" y="31.29" width="0.99" height="0.33" transform="translate(-15.17 23.64) rotate(-42.25)"/><rect id="Rectangle_2384" data-name="Rectangle 2384" class="cls-1" x="21.18" y="29.81" width="0.99" height="0.33" transform="translate(-14.53 22.36) rotate(-42.25)"/><rect id="Rectangle_2385" data-name="Rectangle 2385" class="cls-1" x="20.73" y="29.32" width="0.99" height="0.33" transform="translate(-14.31 21.93) rotate(-42.25)"/><rect id="Rectangle_2386" data-name="Rectangle 2386" class="cls-1" x="20.28" y="28.83" width="0.99" height="0.33" transform="translate(-14.1 21.5) rotate(-42.25)"/><rect id="Rectangle_2387" data-name="Rectangle 2387" class="cls-1" x="33.48" y="14.32" width="2.48" height="0.09" transform="translate(-0.56 27.31) rotate(-42.62)"/><path id="Tracé_4267" data-name="Tracé 4267" class="cls-1" d="M32.79,14.1l1.82-1.68h0l-.12-.13L32.67,14Z"/><rect id="Rectangle_2388" data-name="Rectangle 2388" class="cls-1" x="33.36" y="14.19" width="2.48" height="0.09" transform="translate(-0.5 27.19) rotate(-42.62)"/><rect id="Rectangle_2389" data-name="Rectangle 2389" class="cls-1" x="32.55" y="13.31" width="2.48" height="0.09" transform="translate(-0.12 26.41) rotate(-42.62)"/><rect id="Rectangle_2390" data-name="Rectangle 2390" class="cls-1" x="33.09" y="13.77" width="2.48" height="0.35" transform="translate(-0.37 26.94) rotate(-42.64)"/><rect id="Rectangle_2391" data-name="Rectangle 2391" class="cls-1" x="32.17" y="12.76" width="2.48" height="0.35" transform="translate(0.07 26.04) rotate(-42.62)"/><rect id="Rectangle_2392" data-name="Rectangle 2392" class="cls-1" x="34.34" y="15.18" width="2.48" height="0.22" transform="translate(-0.96 28.13) rotate(-42.62)"/><path id="Tracé_4268" data-name="Tracé 4268" class="cls-1" d="M34.53,16l1.82-1.67h0l-.06-.07-1.82,1.68Z"/><rect id="Rectangle_2393" data-name="Rectangle 2393" class="cls-1" x="33.99" y="14.79" width="2.48" height="0.26" transform="translate(-0.79 27.8) rotate(-42.62)"/><path id="Tracé_4269" data-name="Tracé 4269" class="cls-1" d="M34,15.4l1.82-1.68h0l-.06-.06-1.82,1.68Z"/><rect id="Rectangle_2394" data-name="Rectangle 2394" class="cls-1" x="33.81" y="14.68" width="2.48" height="0.09" transform="translate(-0.71 27.63) rotate(-42.62)"/><rect id="Rectangle_2395" data-name="Rectangle 2395" class="cls-1" x="32.79" y="13.48" width="2.48" height="0.26" transform="translate(-0.23 26.64) rotate(-42.62)"/><rect id="Rectangle_2396" data-name="Rectangle 2396" class="cls-1" x="35.6" y="16.63" width="2.48" height="0.09" transform="translate(-1.56 29.36) rotate(-42.62)"/><rect id="Rectangle_2397" data-name="Rectangle 2397" class="cls-1" x="35.48" y="16.5" width="2.48" height="0.09" transform="translate(-1.5 29.24) rotate(-42.62)"/><rect id="Rectangle_2398" data-name="Rectangle 2398" class="cls-1" x="35.22" y="16.08" width="2.48" height="0.35" transform="translate(-1.38 28.98) rotate(-42.62)"/><path id="Tracé_4270" data-name="Tracé 4270" class="cls-1" d="M35.33,16.87l1.82-1.68h0L37,15l-1.83,1.67Z"/><rect id="Rectangle_2399" data-name="Rectangle 2399" class="cls-1" x="34.68" y="15.63" width="2.48" height="0.09" transform="translate(-1.12 28.47) rotate(-42.64)"/><rect id="Rectangle_2400" data-name="Rectangle 2400" class="cls-1" x="36.11" y="17.1" width="2.48" height="0.26" transform="translate(-1.8 29.85) rotate(-42.62)"/><rect id="Rectangle_2401" data-name="Rectangle 2401" class="cls-1" x="36.29" y="17.38" width="2.48" height="0.09" transform="translate(-1.88 30.03) rotate(-42.64)"/><rect id="Rectangle_2402" data-name="Rectangle 2402" class="cls-1" x="36.46" y="17.49" width="2.48" height="0.22" transform="translate(-1.96 30.18) rotate(-42.62)"/><rect id="Rectangle_2403" data-name="Rectangle 2403" class="cls-1" x="35.93" y="16.99" width="2.48" height="0.09" transform="translate(-1.72 29.67) rotate(-42.62)"/><rect id="Rectangle_2404" data-name="Rectangle 2404" class="cls-1" x="35.75" y="16.8" width="2.48" height="0.09" transform="translate(-1.63 29.5) rotate(-42.62)"/><rect id="Rectangle_2405" data-name="Rectangle 2405" class="cls-1" x="34.53" y="15.42" width="2.48" height="0.18" transform="translate(-1.05 28.32) rotate(-42.62)"/><path id="Tracé_4271" data-name="Tracé 4271" class="cls-1" d="M39.2,21.1,41,19.43h0l-.3-.33-1.82,1.68Z"/><rect id="Rectangle_2406" data-name="Rectangle 2406" class="cls-1" x="38.07" y="19.25" width="2.48" height="0.26" transform="translate(-2.74 31.74) rotate(-42.62)"/><rect id="Rectangle_2407" data-name="Rectangle 2407" class="cls-1" x="37.89" y="19.15" width="2.48" height="0.09" transform="translate(-2.66 31.57) rotate(-42.62)"/><path id="Tracé_4272" data-name="Tracé 4272" class="cls-1" d="M38.07,19.87l1.82-1.68h0l-.06-.06L38,19.8Z"/><rect id="Rectangle_2408" data-name="Rectangle 2408" class="cls-1" x="37.44" y="18.66" width="2.48" height="0.09" transform="translate(-2.45 31.13) rotate(-42.62)"/><path id="Tracé_4273" data-name="Tracé 4273" class="cls-1" d="M38.61,20.45l1.82-1.67h0l-.06-.07-1.82,1.68Z"/><rect id="Rectangle_2409" data-name="Rectangle 2409" class="cls-1" x="37.56" y="18.79" width="2.48" height="0.09" transform="translate(-2.5 31.25) rotate(-42.62)"/><rect id="Rectangle_2410" data-name="Rectangle 2410" class="cls-1" x="38.41" y="19.65" width="2.48" height="0.22" transform="translate(-2.91 32.07) rotate(-42.62)"/><rect id="Rectangle_2411" data-name="Rectangle 2411" class="cls-1" x="37.17" y="18.23" width="2.48" height="0.35" transform="translate(-2.32 30.87) rotate(-42.62)"/><rect id="Rectangle_2412" data-name="Rectangle 2412" class="cls-1" x="36.93" y="18.09" width="2.48" height="0.09" transform="translate(-2.2 30.64) rotate(-42.62)"/><rect id="Rectangle_2413" data-name="Rectangle 2413" class="cls-1" x="36.78" y="17.93" width="2.48" height="0.09" transform="translate(-2.13 30.49) rotate(-42.62)"/><rect id="Rectangle_2414" data-name="Rectangle 2414" class="cls-1" x="36.66" y="17.8" width="2.48" height="0.09" transform="translate(-2.07 30.38) rotate(-42.62)"/><path id="Tracé_4274" data-name="Tracé 4274" class="cls-1" d="M30.89,35.1a2.12,2.12,0,0,0-.39-.55l-.13-.13.19-.15a1.82,1.82,0,0,0,.42-2.1,2.12,2.12,0,0,0-.44-.59l-.13-.12L42,20.69a2,2,0,0,0,.13-2.84L38.1,13.38l.67-1.31a1.53,1.53,0,0,0-.66-2L29.67,5.67a1.54,1.54,0,0,0-2.05.66L18.85,23.64l-2.76,2.55-.05,0c-.71.32-1.61.68-2.7,1.07a8.13,8.13,0,0,0-1.69.79,8,8,0,0,0-2.88,10.1h0a8.11,8.11,0,0,0,4.52,4.24,7.88,7.88,0,0,0,6.19-.21l.11-.05v0l0,0,.06,0,5.38-2.43h0a1.35,1.35,0,0,0,.34-.11l4.49-2a5.6,5.6,0,0,0,.49-.36A1.84,1.84,0,0,0,30.89,35.1Zm-1.13-2.88a.81.81,0,0,1,.31.35.88.88,0,0,1,0,.62v0a1.16,1.16,0,0,1-.22.31.74.74,0,0,1-.21.13l-3.28,1.47,3.27-3ZM28.5,6.78a.54.54,0,0,1,.71-.22l8.45,4.35a.55.55,0,0,1,.22.72l-.49,1L37,12.22l-.18.38-.37-.18.25-.52-.09-.1-.27.56-.19-.09.32-.63-.06-.07-.33.67-.07,0,.34-.69-.06-.07-.36.72-.06-.31.25-.59-.06-.06-.27.62-.07,0,.28-.65L35.92,11l-.31.71-.07,0,.32-.74-.09-.1-.34.78-.08,0,.36-.81-.07-.06-.36.83-.08,0,.38-.85-.15-.11-.27.52-.29-.14.28-.54L35,10.33l-.44.89a1,1,0,0,1,.44.27l1.87,2.06.71.79,3.81,4.18A1,1,0,0,1,41.35,20L29.21,31.21l-.12.11-.16.15-1.77,1.6L25.4,34.66l-.08.07h0l-.6.57a1,1,0,0,1-1.44-.07l-4.54-5,.15-.11a17,17,0,0,0,1.65-1.4l.32-.31a2.29,2.29,0,0,0,.69-1.56,2.19,2.19,0,0,0,0-.51,1.93,1.93,0,0,0-.36-.9,2.48,2.48,0,0,0-1.38-.93l-.3-.07.33-.3,1-.89L33.59,11.42a1,1,0,0,1,.95-.23h0l.44-.89-.13,0-.44.84-.07,0,.43-.82-.08,0-.43.81-.07,0,.41-.79h-.15l-.39.73-.18-.1.33-.64h-.07l-.45,1-.07,0,.42-.92-.11,0-.77,1.57-.22-.11.68-1.38-.11,0-.64,1.31-.08,0,.6-1.22-.25.15-.49,1-.08,0,.42-.84-.06,0-.19.18-.28.57-.07,0,.18-.38-.16.16-.09.18-.08,0L28.1,15.13l-.61,1.4a.17.17,0,0,1-.22.08l-.05,0a.19.19,0,0,1,0-.19l.31-.71-6.56,6.05ZM20,28.83l.74-.66.11.12-.74.67ZM19.3,41.24l-.1.06-.05,0-.09,0a6.92,6.92,0,0,1-5.41.17,7.15,7.15,0,0,1-4-3.7A7,7,0,0,1,12.23,29a6.07,6.07,0,0,1,1.46-.68,16.62,16.62,0,0,0,4.3-2,2,2,0,0,0,.32-.33h0l0,0a1.3,1.3,0,0,1,1-.43,1.27,1.27,0,0,1,1,.54,1.05,1.05,0,0,1,.21.47,1.22,1.22,0,0,1-.42,1.24h0a14,14,0,0,1-3.63,2.72,1.51,1.51,0,0,0-.88,1.11,1.42,1.42,0,0,0,.41,1.2.46.46,0,0,0,.34.14.46.46,0,0,0,.36-.16.48.48,0,0,0,.14-.34.46.46,0,0,0-.16-.36c-.06-.07-.2-.22-.13-.38a.8.8,0,0,1,.35-.38c.25-.13.51-.28.81-.46l.12-.07,4.63,5.1a2,2,0,0,0,.77.51l.22.09-.16.18a1.86,1.86,0,0,0-.32,2,1.8,1.8,0,0,0,.32.49l.16.17Zm10.27-4.65-4.52,2A.86.86,0,0,1,24,38.23a.88.88,0,0,1,.2-.95.66.66,0,0,1,.2-.14l3.23-1.46L29,35.05a1,1,0,0,1,.54,0,.84.84,0,0,1,.45,1,.86.86,0,0,1-.23.33.59.59,0,0,1-.19.13Z"/><path id="Tracé_4275" data-name="Tracé 4275" class="cls-1" d="M25.33,34.74l.08-.07Z"/><rect id="Rectangle_2415" data-name="Rectangle 2415" class="cls-1" x="19.89" y="28.48" width="0.99" height="0.17" transform="matrix(0.74, -0.67, 0.67, 0.74, -13.91, 21.12)"/><rect id="Rectangle_2416" data-name="Rectangle 2416" class="cls-1" x="28.02" y="8.49" width="2.3" height="0.08" transform="translate(8.64 30.94) rotate(-63.81)"/><rect id="Rectangle_2417" data-name="Rectangle 2417" class="cls-1" x="28.31" y="8.55" width="2.3" height="0.25" transform="translate(8.67 31.29) rotate(-63.81)"/><rect id="Rectangle_2418" data-name="Rectangle 2418" class="cls-1" x="27.54" y="8.13" width="2.3" height="0.33" transform="translate(8.58 30.38) rotate(-63.81)"/><rect id="Rectangle_2419" data-name="Rectangle 2419" class="cls-1" x="28.68" y="8.69" width="2.3" height="0.33" transform="translate(8.72 31.72) rotate(-63.81)"/><rect id="Rectangle_2420" data-name="Rectangle 2420" class="cls-1" x="27.83" y="8.36" width="2.3" height="0.16" transform="translate(8.62 30.72) rotate(-63.81)"/><rect id="Rectangle_2421" data-name="Rectangle 2421" class="cls-1" x="30.21" y="9.51" width="2.3" height="0.2" transform="translate(8.9 33.51) rotate(-63.81)"/><rect id="Rectangle_2422" data-name="Rectangle 2422" class="cls-1" x="29.79" y="9.28" width="2.3" height="0.25" transform="translate(8.85 33.01) rotate(-63.81)"/><rect id="Rectangle_2423" data-name="Rectangle 2423" class="cls-1" x="29.01" y="8.98" width="2.3" height="0.08" transform="translate(8.76 32.11) rotate(-63.81)"/><path id="Tracé_4276" data-name="Tracé 4276" class="cls-1" d="M30.69,10.56l1-2.06h0l-.07,0-1,2.06Z"/><path id="Tracé_4277" data-name="Tracé 4277" class="cls-1" d="M30.24,10.34l1-2.06h0l-.08,0-1,2.07Z"/><path id="Tracé_4278" data-name="Tracé 4278" class="cls-1" d="M29.84,10.14l1-2.06h0l-.07,0-1,2.07Z"/><rect id="Rectangle_2424" data-name="Rectangle 2424" class="cls-1" x="29.35" y="9.14" width="2.3" height="0.08" transform="translate(8.8 32.5) rotate(-63.81)"/><path id="Tracé_4279" data-name="Tracé 4279" class="cls-1" d="M34,9.61l-.34.67-.68,1.39.22.11.78-1.57.23-.5Z"/><path id="Tracé_4280" data-name="Tracé 4280" class="cls-1" d="M33.65,9.46l-.07,0L33,10.64l-.42.85.08,0,.49-1,.52-1.07Z"/><path id="Tracé_4281" data-name="Tracé 4281" class="cls-1" d="M33.8,9.53l-.42.85-.59,1.22.07,0,.64-1.3.37-.76Z"/><path id="Tracé_4282" data-name="Tracé 4282" class="cls-1" d="M34.24,9.75l-.2.44-.43.91.07,0,.45-1,.19-.39Z"/><rect id="Rectangle_2425" data-name="Rectangle 2425" class="cls-1" x="30.45" y="9.65" width="2.3" height="0.16" transform="translate(8.92 33.79) rotate(-63.81)"/><path id="Tracé_4283" data-name="Tracé 4283" class="cls-1" d="M33.39,9.33,32.56,11l-.18.38.07,0,.28-.57.73-1.5Z"/><path id="Tracé_4284" data-name="Tracé 4284" class="cls-1" d="M34.39,9.83l-.18.35-.34.64.19.09.38-.73.14-.26Z"/><path id="Tracé_4285" data-name="Tracé 4285" class="cls-1" d="M33.32,9.3l-.07,0-1,2.06h0l.08,0,.09-.19.92-1.87Z"/><path id="Tracé_4286" data-name="Tracé 4286" class="cls-1" d="M31.31,10.87l1-2.06h0l-.08,0-1,2.06Z"/><rect id="Rectangle_2426" data-name="Rectangle 2426" class="cls-1" x="30.93" y="9.84" width="2.3" height="0.25" transform="translate(8.98 34.35) rotate(-63.81)"/><rect id="Rectangle_2427" data-name="Rectangle 2427" class="cls-1" x="31.3" y="9.98" width="2.3" height="0.33" transform="translate(9.02 34.78) rotate(-63.81)"/><path id="Tracé_4287" data-name="Tracé 4287" class="cls-1" d="M37.1,11.17l-.36.72-.25.52.37.18.18-.37.43-.87Z"/><path id="Tracé_4288" data-name="Tracé 4288" class="cls-1" d="M36.81,11l-.3.6-.32.64.19.09.28-.56.33-.68Z"/><path id="Tracé_4289" data-name="Tracé 4289" class="cls-1" d="M36,10.63l-.13.3-.33.74.08,0,.31-.71.14-.32Z"/><path id="Tracé_4290" data-name="Tracé 4290" class="cls-1" d="M36.66,11l-.27.54-.34.7.07,0,.33-.66.28-.57Z"/><path id="Tracé_4291" data-name="Tracé 4291" class="cls-1" d="M35.22,10.25l-.06.12-.28.54.29.15.28-.52.07-.14Z"/><path id="Tracé_4292" data-name="Tracé 4292" class="cls-1" d="M35.66,10.47l-.07.18-.38.85.08,0,.36-.83.09-.2Z"/><path id="Tracé_4293" data-name="Tracé 4293" class="cls-1" d="M35.81,10.55l-.1.22-.35.81.07,0,.35-.78.1-.25Z"/><path id="Tracé_4294" data-name="Tracé 4294" class="cls-1" d="M36.36,10.82l-.19.44-.26.59.07.31.35-.72.25-.52Z"/><path id="Tracé_4295" data-name="Tracé 4295" class="cls-1" d="M36.22,10.74l-.18.39-.28.65.07,0,.28-.61.18-.42Z"/><path id="Tracé_4296" data-name="Tracé 4296" class="cls-1" d="M35,10.15l-.07.14-.44.89h0l.06,0h0l.44-.89.06-.14Z"/><path id="Tracé_4297" data-name="Tracé 4297" class="cls-1" d="M34.92,10.1l-.08,0-.08.17-.44.83.08,0,.44-.84.08-.15Z"/><path id="Tracé_4298" data-name="Tracé 4298" class="cls-1" d="M34.7,10l-.11.21-.41.79.07,0,.42-.81.1-.18Z"/><path id="Tracé_4299" data-name="Tracé 4299" class="cls-1" d="M32.55,17.52a1.06,1.06,0,0,0,.36-.5l-.21-.15a1.12,1.12,0,0,1-.3.41.75.75,0,0,1-.57.17,1,1,0,0,1-.5-.26l.87-.71-.13-.15-.89.72,0-.05-.1-.14.89-.71L31.8,16l-.86.69a1,1,0,0,1-.14-.53.73.73,0,0,1,.27-.5.85.85,0,0,1,.42-.19l-.1-.26a1.23,1.23,0,0,0-.49.23,1,1,0,0,0-.4.75,1.27,1.27,0,0,0,.16.72l-.2.17.13.15.18-.14.11.14,0,.05-.17.14.12.15.19-.16a1.16,1.16,0,0,0,.65.35A1,1,0,0,0,32.55,17.52Z"/><path id="Tracé_4300" data-name="Tracé 4300" class="cls-1" d="M30.15,19a.16.16,0,0,0-.23,0L23.1,25.18a.16.16,0,0,0,0,.23h0a.16.16,0,0,0,.22,0l6.82-6.23A.16.16,0,0,0,30.15,19Z"/><path id="Tracé_4301" data-name="Tracé 4301" class="cls-1" d="M29.73,12.38a1.07,1.07,0,0,0,.12-.6l-.26-.06a.92.92,0,0,1-.1.49.72.72,0,0,1-.46.39.9.9,0,0,1-.56,0l.51-1-.17-.09-.52,1-.06,0-.15-.09.52-1-.17-.09-.51,1a1,1,0,0,1-.34-.44.68.68,0,0,1,.05-.56.92.92,0,0,1,.3-.35l-.2-.19a1.1,1.1,0,0,0-.35.42,1,1,0,0,0-.07.84,1.35,1.35,0,0,0,.45.6l-.12.23.18.09.11-.21.15.09.05,0L28,13l.17.08.11-.21a1.25,1.25,0,0,0,.74,0A1,1,0,0,0,29.73,12.38Z"/><path id="Tracé_4302" data-name="Tracé 4302" class="cls-1" d="M28.12,14.67a.17.17,0,0,0-.22.08l-.41.94.61-.55.11-.26A.17.17,0,0,0,28.12,14.67Z"/><path id="Tracé_4303" data-name="Tracé 4303" class="cls-1" d="M27.19,16.4a.16.16,0,0,0,.09.22.17.17,0,0,0,.21-.09l.61-1.4-.6.55Z"/></g></svg>