<svg xmlns="http://www.w3.org/2000/svg" width="40.364" height="27.221" viewBox="0 0 40.364 27.221">
  <g id="Groupe_2523" data-name="Groupe 2523" transform="translate(-12.648 4.691)">
    <g id="Groupe_2525" data-name="Groupe 2525" transform="translate(5.648 -25.686)">
      <path id="Tracé_4013" data-name="Tracé 4013" d="M10.666,21a.469.469,0,0,0-.382.469v2.346H7.469a.457.457,0,0,0-.088,0A.469.469,0,0,0,7,24.283V47.746a.469.469,0,0,0,.469.469h30a.471.471,0,0,0,.322-.132l3.784-3.505a.47.47,0,0,0,.146-.337V40.913q0-.015,0-.03l2.2-2.024a.471.471,0,0,0,.146-.337V32.73h2.816a.469.469,0,1,0,.013-.939H44.073v-4.4a.47.47,0,0,0-.146-.337l-6.438-5.939A.471.471,0,0,0,37.165,21H10.754A.457.457,0,0,0,10.666,21Zm.557.939H36.989l6.145,5.675v4.179h-3.8a2.816,2.816,0,1,0,0,.939h3.8V38.3l-6.159,5.69H11.223ZM7.938,24.752h2.346v19.71a.469.469,0,0,0,.469.469H37.165a.471.471,0,0,0,.323-.132l3.3-3.05v2.273l-3.505,3.255H7.938Zm19.24,0a10.779,10.779,0,0,0-6.511,2.215,12.1,12.1,0,0,0-4.737,9.224,18.5,18.5,0,0,0-1.848,2.889.475.475,0,0,0,.85.426,16.9,16.9,0,0,1,1.613-2.566,10.642,10.642,0,0,0,9.635-1.745,12.112,12.112,0,0,0,4.751-9.415.469.469,0,0,0-.308-.455,10.378,10.378,0,0,0-2.493-.528C27.815,24.767,27.5,24.752,27.179,24.752Zm0,.939c.291,0,.576,0,.865.03a9.413,9.413,0,0,1,1.906.425,11.124,11.124,0,0,1-4.326,8.3A9.626,9.626,0,0,1,17.207,36.1a27.248,27.248,0,0,1,9.224-7.171.469.469,0,0,0-.205-.909.457.457,0,0,0-.176.044,27.589,27.589,0,0,0-9.019,6.76,11.022,11.022,0,0,1,4.194-7.1A9.883,9.883,0,0,1,27.179,25.69Zm9.386,4.693a1.867,1.867,0,0,1,1.8,1.408H37.034a.457.457,0,0,0-.088,0,.471.471,0,1,0,.088.939h1.335a1.871,1.871,0,1,1-1.8-2.346Z" fill="#164152"/>
    </g>
  </g>
</svg>
