<svg xmlns="http://www.w3.org/2000/svg" width="38.593" height="27.468" viewBox="0 0 38.593 27.468">
  <g id="Groupe_2524" data-name="Groupe 2524" transform="translate(-7 -18)">
    <path id="Tracé_4012" data-name="Tracé 4012" d="M15.078,18a2.64,2.64,0,0,0-2.693,2.575v5.579a.449.449,0,0,0,.9.012V24.008H44.7V38.6a1.744,1.744,0,0,1-1.8,1.717H21.809a.43.43,0,1,0-.013.858H42.9A2.64,2.64,0,0,0,45.593,38.6V20.575A2.64,2.64,0,0,0,42.9,18Zm0,.858H42.9a1.744,1.744,0,0,1,1.8,1.717V23.15H13.283V20.575A1.744,1.744,0,0,1,15.078,18.858Zm-2.244,10.3a5.388,5.388,0,0,0-3.029.7A2.24,2.24,0,0,0,8.8,31.734V34.47A2.576,2.576,0,0,0,7,36.884v6.008a2.64,2.64,0,0,0,2.693,2.575h6.283a2.64,2.64,0,0,0,2.693-2.575V36.884a2.576,2.576,0,0,0-1.8-2.414V31.734a2.24,2.24,0,0,0-1.01-1.878A5.388,5.388,0,0,0,12.834,29.159Zm0,.858a4.593,4.593,0,0,1,2.51.536,1.314,1.314,0,0,1,.631,1.18v2.575H9.693V31.734a1.314,1.314,0,0,1,.631-1.18A4.593,4.593,0,0,1,12.834,30.017Zm-3.141,5.15h6.283a1.744,1.744,0,0,1,1.8,1.717v6.008a1.744,1.744,0,0,1-1.8,1.717H9.693a1.744,1.744,0,0,1-1.8-1.717V36.884A1.744,1.744,0,0,1,9.693,35.167Zm3.141,3a1.718,1.718,0,1,0,1.8,1.717A1.764,1.764,0,0,0,12.834,38.171Zm0,.858a.859.859,0,1,1-.9.858A.872.872,0,0,1,12.834,39.03Z" transform="translate(0 0)" fill="#164152"/>
  </g>
</svg>
