<svg xmlns="http://www.w3.org/2000/svg" width="116.739" height="109.737" viewBox="0 0 116.739 109.737">
  <g id="Groupe_2606" data-name="Groupe 2606" transform="translate(-9.7 -11.7)">
    <path id="Tracé_4150" data-name="Tracé 4150" d="M36.429,56.731h5.858A1.35,1.35,0,0,0,43.716,55.3V47.729A1.35,1.35,0,0,0,42.287,46.3H36.429A1.35,1.35,0,0,0,35,47.729V55.3A1.537,1.537,0,0,0,36.429,56.731Zm1.429-7.573h3v4.715h-3Z" transform="translate(10.85 14.839)" fill="#64b7d3"/>
    <path id="Tracé_4151" data-name="Tracé 4151" d="M45.329,56.731h5.858A1.35,1.35,0,0,0,52.616,55.3V47.729A1.35,1.35,0,0,0,51.187,46.3H45.329A1.35,1.35,0,0,0,43.9,47.729V55.3A1.432,1.432,0,0,0,45.329,56.731Zm1.429-7.573h3v4.715h-3Z" transform="translate(14.667 14.839)" fill="#64b7d3"/>
    <path id="Tracé_4152" data-name="Tracé 4152" d="M36.429,70.431h5.858A1.35,1.35,0,0,0,43.716,69V61.429A1.35,1.35,0,0,0,42.287,60H36.429A1.35,1.35,0,0,0,35,61.429V69A1.432,1.432,0,0,0,36.429,70.431Zm1.429-7.573h3v4.715h-3Z" transform="translate(10.85 20.714)" fill="#64b7d3"/>
    <path id="Tracé_4153" data-name="Tracé 4153" d="M26.687,46.3H20.829A1.35,1.35,0,0,0,19.4,47.729V55.3a1.35,1.35,0,0,0,1.429,1.429h5.858A1.35,1.35,0,0,0,28.116,55.3V47.729A1.432,1.432,0,0,0,26.687,46.3Zm-1.429,7.573h-3V49.158h3Z" transform="translate(4.16 14.839)" fill="#64b7d3"/>
    <path id="Tracé_4154" data-name="Tracé 4154" d="M26.687,60H20.829A1.35,1.35,0,0,0,19.4,61.429V69a1.35,1.35,0,0,0,1.429,1.429h5.858A1.35,1.35,0,0,0,28.116,69V61.429A1.432,1.432,0,0,0,26.687,60Zm-1.429,7.573h-3V62.858h3Z" transform="translate(4.16 20.714)" fill="#64b7d3"/>
    <path id="Tracé_4155" data-name="Tracé 4155" d="M26.687,73.9H20.829A1.35,1.35,0,0,0,19.4,75.329V82.9a1.35,1.35,0,0,0,1.429,1.429h5.858A1.35,1.35,0,0,0,28.116,82.9V75.329A1.537,1.537,0,0,0,26.687,73.9Zm-1.429,7.573h-3V76.758h3Z" transform="translate(4.16 26.676)" fill="#64b7d3"/>
    <path id="Tracé_4156" data-name="Tracé 4156" d="M66.787,46.1H60.929A1.35,1.35,0,0,0,59.5,47.529V55.1a1.35,1.35,0,0,0,1.429,1.429h5.858A1.35,1.35,0,0,0,68.216,55.1V47.529A1.537,1.537,0,0,0,66.787,46.1Zm-1.429,7.716h-3V49.1h3Z" transform="translate(21.358 14.753)" fill="#64b7d3"/>
    <path id="Tracé_4157" data-name="Tracé 4157" d="M66.787,59.9H60.929A1.35,1.35,0,0,0,59.5,61.329V68.9a1.35,1.35,0,0,0,1.429,1.429h5.858A1.35,1.35,0,0,0,68.216,68.9V61.329A1.432,1.432,0,0,0,66.787,59.9Zm-1.429,7.573h-3V62.758h3Z" transform="translate(21.358 20.671)" fill="#64b7d3"/>
    <path id="Tracé_4158" data-name="Tracé 4158" d="M66.787,73.8H60.929A1.35,1.35,0,0,0,59.5,75.229V82.8a1.35,1.35,0,0,0,1.429,1.429h5.858A1.35,1.35,0,0,0,68.216,82.8V75.229A1.537,1.537,0,0,0,66.787,73.8Zm-1.429,7.573h-3V76.658h3Z" transform="translate(21.358 26.633)" fill="#64b7d3"/>
    <path id="Tracé_4159" data-name="Tracé 4159" d="M45.329,70.431h5.858A1.35,1.35,0,0,0,52.616,69V61.429A1.35,1.35,0,0,0,51.187,60H45.329A1.35,1.35,0,0,0,43.9,61.429V69A1.35,1.35,0,0,0,45.329,70.431Zm1.429-7.573h3v4.715h-3Z" transform="translate(14.667 20.714)" fill="#64b7d3"/>
    <path id="Tracé_4160" data-name="Tracé 4160" d="M36.429,43.231h5.858A1.35,1.35,0,0,0,43.716,41.8V34.229A1.35,1.35,0,0,0,42.287,32.8H36.429A1.35,1.35,0,0,0,35,34.229V41.8A1.432,1.432,0,0,0,36.429,43.231Zm1.429-7.573h3v4.715h-3Z" transform="translate(10.85 9.049)" fill="#64b7d3"/>
    <path id="Tracé_4161" data-name="Tracé 4161" d="M45.329,43.231h5.858A1.35,1.35,0,0,0,52.616,41.8V34.229A1.35,1.35,0,0,0,51.187,32.8H45.329A1.35,1.35,0,0,0,43.9,34.229V41.8A1.35,1.35,0,0,0,45.329,43.231Zm1.429-7.573h3v4.715h-3Z" transform="translate(14.667 9.049)" fill="#64b7d3"/>
    <path id="Tracé_4162" data-name="Tracé 4162" d="M124.867,118.722h-4.715v-3.429a6.138,6.138,0,0,0,5.144-6,6.225,6.225,0,0,0-2.572-5,4.611,4.611,0,0,0,1.143-3,4.715,4.715,0,1,0-9.431,0,4.611,4.611,0,0,0,1.143,3,6.028,6.028,0,0,0-2.572,5,6.318,6.318,0,0,0,4.287,5.858v3.572H107.72v-12h0a7.691,7.691,0,0,0,2.572-14.146,5.812,5.812,0,0,0,1.715-4.144,5.715,5.715,0,1,0-11.431,0,6.365,6.365,0,0,0,1.715,4.144,7.876,7.876,0,0,0-3.715,6.573,7.8,7.8,0,0,0,6.287,7.573h0v12h-8V51.851a1.537,1.537,0,0,0,1.429-1.429V43.707a1.35,1.35,0,0,0-1.429-1.429H76.142V30.847h.143a1.35,1.35,0,0,0,1.429-1.429V20.845a1.35,1.35,0,0,0-1.429-1.429H69V13.129A1.35,1.35,0,0,0,67.569,11.7H60a1.35,1.35,0,0,0-1.429,1.429v6.287H37.134a1.35,1.35,0,0,0-1.429,1.429v8.573a1.35,1.35,0,0,0,1.429,1.429h.143V44.564H14.844a1.35,1.35,0,0,0-1.429,1.429v7.573a1.35,1.35,0,0,0,1.429,1.429H15.7v63.585H11.129a1.429,1.429,0,1,0,0,2.858H125.01a1.35,1.35,0,0,0,1.429-1.429A1.441,1.441,0,0,0,124.867,118.722Zm-7.43-17.432a1.858,1.858,0,1,1,1.858,1.858A1.891,1.891,0,0,1,117.437,101.29Zm-1.572,8a3.286,3.286,0,1,1,3.286,3.286A3.324,3.324,0,0,1,115.865,109.292ZM103.434,88.43a2.858,2.858,0,1,1,2.858,2.858A2.866,2.866,0,0,1,103.434,88.43Zm-1.858,10.717A4.858,4.858,0,1,1,106.434,104,4.91,4.91,0,0,1,101.576,99.147ZM76.142,51.994h18v66.728h-18Zm19.433-6.716v3.858H76.142V45.278ZM61.425,14.7H66.14v4.858H61.425ZM38.563,22.417H74.856v5.715H38.563ZM73.285,30.99v87.733H62.425V102A1.35,1.35,0,0,0,61,100.576H51.566A1.35,1.35,0,0,0,50.137,102v16.575h-10V30.99ZM59.71,118.722H53.138V103.433H59.71ZM16.273,47.565h21V52.28h-21Zm2.143,7.573H37.277v63.585H18.416Z" transform="translate(0)" fill="#64b7d3"/>
  </g>
</svg>
