<svg xmlns="http://www.w3.org/2000/svg" width="69.41" height="104.462" viewBox="0 0 69.41 104.462">
  <g id="Groupe_2607" data-name="Groupe 2607" transform="translate(-20.43 -5.499)">
    <path id="Tracé_4163" data-name="Tracé 4163" d="M72.6,5.5c-.455-.012-.921,0-1.431.036-.04,0-.069,0-.11,0H39.006a8.084,8.084,0,0,0-4.731,1.137,5.671,5.671,0,0,0-2.238,3.557c-.615,2.709-.246,6.088-.219,10.416L20.7,37.156a1.312,1.312,0,0,0-.073.147,1.493,1.493,0,0,0-.147.587c0,.038-.036.072-.038.109v19.88a1.536,1.536,0,0,0,0,.44V82.526a1.107,1.107,0,0,0,0,.257v20.062a1.586,1.586,0,0,0,1.5,1.5H55.474l.477,4.217a1.527,1.527,0,0,0,1.5,1.358l17.861.036a1.528,1.528,0,0,0,1.5-1.358l.477-4.255H88.19a1.584,1.584,0,0,0,1.5-1.5V83.332a1.36,1.36,0,0,0,.147-.587,1.522,1.522,0,0,0-.147-.623V58.795a1.525,1.525,0,0,0,0-1.284V38.219a1.385,1.385,0,0,0,0-.221c0-.025,0-.049,0-.073a1.525,1.525,0,0,0-.219-.771L78.361,20.614c-.391-4.39.077-7.81-.293-10.527A5.019,5.019,0,0,0,76.05,6.419,6.424,6.424,0,0,0,72.6,5.5Zm-1.32,3.081a5.472,5.472,0,0,1,3.081.366c.369.244.563.567.7,1.541.265,1.949-.245,5.777.256,10.746a1.525,1.525,0,0,0,.257.7L85.33,36.459H24.848L34.6,21.934a1.532,1.532,0,0,0,.257-.844c0-4.723-.283-8.272.147-10.159A2.469,2.469,0,0,1,36,9.207a5.277,5.277,0,0,1,2.972-.587h32.2c.038-.011.074-.022.11-.036Zm-21.97,3.887c-2.311,0-3.887,2.135-3.887,4.4a4.16,4.16,0,0,0,3.887,4.4H60.866a4.16,4.16,0,0,0,3.887-4.4c0-2.266-1.576-4.4-3.887-4.4Zm0,3.045H60.866c.289,0,.844.427.844,1.357s-.555,1.358-.844,1.358H49.312c-.289,0-.806-.427-.806-1.358S49.023,15.515,49.312,15.515ZM23.491,39.539H86.65V56.594H23.491Zm0,20.1H86.65V81.205H79.791L81.148,68.7a1.526,1.526,0,0,0-1.356-1.68,1.614,1.614,0,0,0-.184-.008l-26.665.036a1.528,1.528,0,0,0-1.513,1.54c0,.049,0,.1.009.148l1.43,12.47H23.491V59.639Zm54.43,10.416-3.961,36.861-15.111-.036L54.668,70.092l23.253-.036ZM23.491,84.25H53.2L55.144,101.3H23.491Zm55.971,0H86.65V101.3H77.627Z" transform="translate(0)" fill="#64b7d3"/>
  </g>
</svg>
