<svg id="Groupe_2612" data-name="Groupe 2612" xmlns="http://www.w3.org/2000/svg" width="81.24" height="67.7" viewBox="0 0 81.24 67.7">
  <path id="Tracé_4014" data-name="Tracé 4014" d="M80.843,186,64.035,169.19A4.033,4.033,0,0,0,61.163,168H43.328v2.708h1.354v20.31H47.39v-20.31H61.163a1.367,1.367,0,0,1,.957.4l2.311,2.311H58.222a2.708,2.708,0,0,0-2.708,2.708V188.31a2.708,2.708,0,0,0,2.708,2.708h20.31V201.85a1.354,1.354,0,0,1-1.354,1.354H74.362a9.466,9.466,0,0,0-18.739,0H36.45a9.466,9.466,0,0,0-18.739,0H14.894a1.354,1.354,0,0,1-1.354-1.354V188.31H10.832v13.54a4.062,4.062,0,0,0,4.062,4.062H17.71a9.445,9.445,0,0,0,2.75,5.416H0v2.708H64.992a9.478,9.478,0,0,0,9.37-8.124h2.816a4.062,4.062,0,0,0,4.062-4.062V186.956A1.354,1.354,0,0,0,80.843,186ZM20.31,204.558a6.77,6.77,0,1,1,6.77,6.77A6.77,6.77,0,0,1,20.31,204.558Zm13.39,6.77a9.445,9.445,0,0,0,2.75-5.416H55.623a9.445,9.445,0,0,0,2.75,5.416Zm31.292,0a6.77,6.77,0,1,1,6.77-6.77A6.77,6.77,0,0,1,64.992,211.328Zm-6.77-23.018V176.124h8.917l11.393,11.393v.793Z" transform="translate(0 -146.336)" fill="#64b7d3"/>
  <path id="Tracé_4015" data-name="Tracé 4015" d="M152,376h2.708v2.708H152Z" transform="translate(-126.274 -319.132)" fill="#64b7d3"/>
  <path id="Tracé_4016" data-name="Tracé 4016" d="M376,376h2.708v2.708H376Z" transform="translate(-312.362 -319.132)" fill="#64b7d3"/>
  <path id="Tracé_4017" data-name="Tracé 4017" d="M0,352H6.77v2.708H0Z" transform="translate(0 -299.194)" fill="#64b7d3"/>
  <path id="Tracé_4018" data-name="Tracé 4018" d="M16,320h4.062v2.708H16Z" transform="translate(-13.292 -272.61)" fill="#64b7d3"/>
  <path id="Tracé_4019" data-name="Tracé 4019" d="M24,288h2.708v2.708H24Z" transform="translate(-19.938 -246.026)" fill="#64b7d3"/>
  <path id="Tracé_4020" data-name="Tracé 4020" d="M304,320h5.416v2.708H304Z" transform="translate(-252.548 -272.61)" fill="#64b7d3"/>
  <path id="Tracé_4021" data-name="Tracé 4021" d="M20.31,80.62A20.31,20.31,0,1,0,0,60.31,20.31,20.31,0,0,0,20.31,80.62Zm0-37.912a17.6,17.6,0,1,1-17.6,17.6A17.6,17.6,0,0,1,20.31,42.708Z" transform="translate(0 -40)" fill="#64b7d3"/>
  <path id="Tracé_4022" data-name="Tracé 4022" d="M80.124,110.894a4.052,4.052,0,0,0,1.354-7.875V96H78.77v7.019a4.058,4.058,0,0,0-2.459,2.459H72v2.708h4.311A4.062,4.062,0,0,0,80.124,110.894Zm0-5.416a1.354,1.354,0,1,1-1.354,1.354A1.354,1.354,0,0,1,80.124,105.478Z" transform="translate(-59.814 -86.522)" fill="#64b7d3"/>
  <path id="Tracé_4023" data-name="Tracé 4023" d="M24,152h2.708v2.708H24Z" transform="translate(-19.938 -133.044)" fill="#64b7d3"/>
  <path id="Tracé_4024" data-name="Tracé 4024" d="M112,240h2.708v2.708H112Z" transform="translate(-93.044 -206.15)" fill="#64b7d3"/>
  <path id="Tracé_4025" data-name="Tracé 4025" d="M200,152h2.708v2.708H200Z" transform="translate(-166.15 -133.044)" fill="#64b7d3"/>
  <path id="Tracé_4026" data-name="Tracé 4026" d="M112,64h2.708v2.708H112Z" transform="translate(-93.044 -59.938)" fill="#64b7d3"/>
</svg>
